<svg width="544" height="462" viewBox="0 0 544 462" fill="none" xmlns="http://www.w3.org/2000/svg">
<path d="M60.0898 104.203H482.431" stroke="#DED8D5" stroke-width="1.96782" stroke-miterlimit="10"/>
<path d="M65.6052 76.5547H476.916C478.379 76.5547 479.782 77.135 480.816 78.1679C481.85 79.2008 482.431 80.6018 482.431 82.0625V332.001C482.431 333.461 481.85 334.862 480.816 335.895C479.782 336.928 478.379 337.508 476.916 337.508H65.6052C64.1424 337.508 62.7396 336.928 61.7052 335.895C60.6709 334.862 60.0898 333.461 60.0898 332.001V82.0625C60.0898 80.6018 60.6709 79.2008 61.7052 78.1679C62.7396 77.135 64.1424 76.5547 65.6052 76.5547Z" stroke="#DED8D5" stroke-width="1.96782" stroke-miterlimit="10"/>
<path d="M87.924 90.6604C87.924 91.4234 87.6974 92.1693 87.2729 92.8038C86.8484 93.4382 86.2451 93.9327 85.5391 94.2247C84.8332 94.5167 84.0564 94.5931 83.307 94.4443C82.5576 94.2954 81.8692 93.928 81.3289 93.3885C80.7885 92.8489 80.4206 92.1615 80.2715 91.4131C80.1224 90.6648 80.1989 89.8891 80.4913 89.1841C80.7837 88.4792 81.2789 87.8766 81.9142 87.4527C82.5496 87.0288 83.2965 86.8025 84.0606 86.8025C85.0852 86.8025 86.0679 87.2089 86.7924 87.9324C87.517 88.6559 87.924 89.6372 87.924 90.6604Z" fill="#FF4C29"/>
<path d="M102.939 90.6604C102.939 91.4234 102.712 92.1693 102.288 92.8038C101.863 93.4383 101.26 93.9328 100.554 94.2248C99.8479 94.5168 99.0711 94.5932 98.3217 94.4444C97.5722 94.2955 96.8838 93.9281 96.3435 93.3885C95.8032 92.849 95.4352 92.1616 95.2862 91.4132C95.1371 90.6648 95.2136 89.8891 95.506 89.1841C95.7984 88.4791 96.2936 87.8766 96.9289 87.4527C97.5643 87.0288 98.3112 86.8025 99.0753 86.8025C100.1 86.8025 101.083 87.2089 101.807 87.9324C102.532 88.6559 102.939 89.6372 102.939 90.6604Z" fill="#FFA800"/>
<path d="M117.952 90.6604C117.952 91.4234 117.726 92.1693 117.301 92.8038C116.877 93.4382 116.273 93.9327 115.567 94.2247C114.862 94.5167 114.085 94.5931 113.335 94.4443C112.586 94.2954 111.897 93.928 111.357 93.3885C110.817 92.8489 110.449 92.1615 110.3 91.4131C110.151 90.6648 110.227 89.8891 110.52 89.1841C110.812 88.4792 111.307 87.8766 111.943 87.4527C112.578 87.0288 113.325 86.8025 114.089 86.8025C115.114 86.8025 116.096 87.2089 116.821 87.9324C117.545 88.6559 117.952 89.6372 117.952 90.6604Z" fill="#00C2B4"/>
<path d="M537.297 95.5322H438.038C435.24 95.5322 432.972 97.7976 432.972 100.592V192.267C432.972 195.062 435.24 197.327 438.038 197.327H537.297C540.096 197.327 542.364 195.062 542.364 192.267V100.592C542.364 97.7976 540.096 95.5322 537.297 95.5322Z" fill="#EDEDED"/>
<path d="M537.297 95.5322H438.038C435.24 95.5322 432.972 97.7976 432.972 100.592V192.267C432.972 195.062 435.24 197.327 438.038 197.327H537.297C540.096 197.327 542.364 195.062 542.364 192.267V100.592C542.364 97.7976 540.096 95.5322 537.297 95.5322Z" stroke="#DED8D5" stroke-width="1.96782" stroke-miterlimit="10"/>
<path d="M513.624 170.848H462.034C460.684 170.848 459.388 170.312 458.433 169.358C457.478 168.404 456.942 167.111 456.942 165.762V123.539C456.942 122.871 457.073 122.21 457.329 121.593C457.585 120.976 457.96 120.415 458.433 119.943C458.906 119.47 459.468 119.096 460.086 118.84C460.703 118.585 461.366 118.453 462.035 118.453H513.624C514.975 118.453 516.27 118.989 517.225 119.943C518.18 120.896 518.717 122.19 518.717 123.539V165.762C518.717 167.111 518.18 168.404 517.225 169.358C516.27 170.312 514.975 170.848 513.624 170.848Z" fill="#D02AE9"/>
<path d="M501.921 153.362H477.774H473.412V134.269H501.921V139.042V153.362Z" stroke="white" stroke-width="1.6466" stroke-linecap="round" stroke-linejoin="round"/>
<path d="M473.412 134.269L487.666 145.487L501.921 134.269" stroke="white" stroke-width="1.6466" stroke-linecap="round" stroke-linejoin="round"/>
<path d="M5.83211 182.021H100.493C101.775 182.021 103.004 182.53 103.91 183.435C104.817 184.34 105.326 185.567 105.326 186.847V269.267C105.326 270.547 104.817 271.774 103.91 272.679C103.004 273.584 101.775 274.093 100.493 274.093H5.83203C4.55049 274.093 3.32145 273.584 2.41527 272.679C1.50909 271.774 1 270.547 1 269.267V186.847C1 185.567 1.5091 184.34 2.41529 183.435C3.32149 182.53 4.55056 182.021 5.83211 182.021Z" fill="#EDEDED"/>
<path d="M5.83211 182.021H100.494C101.775 182.021 103.004 182.53 103.91 183.435C104.817 184.34 105.326 185.567 105.326 186.847V269.267C105.326 270.547 104.817 271.774 103.91 272.679C103.004 273.584 101.775 274.093 100.494 274.093H5.83203C4.55049 274.093 3.32145 273.584 2.41527 272.679C1.50909 271.774 1 270.547 1 269.267V186.847C1 185.567 1.5091 184.34 2.41529 183.435C3.32149 182.53 4.55056 182.021 5.83211 182.021Z" stroke="#DED8D5" stroke-width="1.96782" stroke-miterlimit="10"/>
<path d="M28.3701 197.79H77.4652C78.9545 197.79 80.3827 198.38 81.4357 199.432C82.4888 200.484 83.0804 201.91 83.0804 203.397V250.746C83.0804 251.483 82.9352 252.212 82.653 252.892C82.3708 253.572 81.9571 254.191 81.4357 254.711C80.9143 255.232 80.2953 255.645 79.614 255.927C78.9327 256.209 78.2025 256.354 77.4651 256.354H28.3702C27.6328 256.354 26.9026 256.209 26.2213 255.927C25.54 255.645 24.921 255.232 24.3996 254.711C23.8781 254.191 23.4645 253.572 23.1823 252.892C22.9001 252.212 22.7549 251.483 22.7549 250.746V203.397C22.7549 202.661 22.9001 201.932 23.1823 201.251C23.4645 200.571 23.8781 199.953 24.3995 199.432C24.921 198.911 25.54 198.498 26.2212 198.216C26.9025 197.935 27.6327 197.79 28.3701 197.79Z" fill="#FF4C29"/>
<path d="M41.2242 215.575C38.8388 217.957 37.2144 220.992 36.5563 224.296C35.8981 227.6 36.2359 231.025 37.5268 234.137C38.8177 237.249 41.0038 239.91 43.8087 241.781C46.6135 243.653 49.9111 244.652 53.2845 244.652C56.6578 244.652 59.9554 243.653 62.7603 241.781C65.5651 239.91 67.7512 237.249 69.0421 234.137C70.3331 231.025 70.6708 227.6 70.0127 224.296C69.3546 220.992 67.7301 217.957 65.3448 215.575C62.1375 212.397 57.8025 210.614 53.2845 210.614C48.7664 210.614 44.4315 212.397 41.2242 215.575ZM65.3058 218.027H59.8703C59.304 216.269 58.5973 214.558 57.757 212.912C60.7327 213.817 63.3644 215.6 65.3058 218.027ZM47.0216 226.623C47.0226 224.397 47.2939 222.18 47.8296 220.019H58.7398C59.2753 222.18 59.5466 224.397 59.5476 226.623H47.0216ZM59.4807 228.615C59.3198 230.85 58.9271 233.063 58.3088 235.218H48.2604C47.6421 233.063 47.2494 230.85 47.0886 228.615H59.4807ZM53.2846 212.252C54.0915 212.252 54.8972 212.315 55.6943 212.44C56.699 214.217 57.5273 216.089 58.1673 218.027H48.4019C49.0417 216.089 49.87 214.217 50.8749 212.44C51.6721 212.315 52.4777 212.252 53.2846 212.252ZM48.8125 212.912C47.9719 214.558 47.2652 216.268 46.6991 218.027H41.2634C43.2048 215.6 45.8366 213.817 48.8125 212.912ZM39.9082 220.019H46.1339C45.5955 222.181 45.303 224.396 45.2619 226.623H37.9302C38.0772 224.3 38.7537 222.041 39.9082 220.019ZM39.9082 235.218C38.7534 233.196 38.0769 230.938 37.9302 228.615H45.2923C45.4067 230.846 45.7548 233.059 46.331 235.218H39.9082ZM41.2634 237.21H46.9195C47.5023 238.981 48.2046 240.711 49.0216 242.387C45.9618 241.504 43.2513 239.695 41.2634 237.21ZM53.2846 242.985C52.6105 242.986 51.9371 242.942 51.2687 242.854C50.3489 241.028 49.5521 239.142 48.8836 237.21H57.6854C57.0167 239.142 56.2199 241.028 55.3005 242.854C54.6321 242.942 53.9587 242.986 53.2846 242.985ZM57.5476 242.387C58.3647 240.711 59.067 238.981 59.6497 237.21H65.3058C63.318 239.695 60.6075 241.504 57.5476 242.387ZM66.6609 235.218H60.2382C60.8144 233.059 61.1626 230.846 61.2769 228.615H68.6387C68.4919 230.938 67.8154 233.196 66.6609 235.218ZM68.6387 226.623H61.3074C61.2661 224.396 60.9735 222.181 60.4353 220.019H66.6609C67.8152 222.041 68.4917 224.3 68.6387 226.623Z" fill="white"/>
<path d="M94.8525 52.4742H9.09465C8.67338 52.4742 8.25623 52.3914 7.86703 52.2304C7.47783 52.0694 7.12419 51.8334 6.8263 51.5359C6.52842 51.2385 6.29212 50.8853 6.13091 50.4966C5.9697 50.1079 5.88672 49.6913 5.88672 49.2706C5.88672 48.85 5.9697 48.4334 6.13092 48.0447C6.29214 47.656 6.52843 47.3029 6.82632 47.0054C7.1242 46.7079 7.47784 46.472 7.86704 46.311C8.25624 46.15 8.67338 46.0671 9.09465 46.0671H94.8525C95.2738 46.0671 95.6909 46.15 96.0801 46.311C96.4693 46.472 96.8229 46.7079 97.1208 47.0054C97.4187 47.3029 97.655 47.656 97.8162 48.0447C97.9774 48.4334 98.0604 48.85 98.0604 49.2706C98.0604 49.6913 97.9774 50.1079 97.8162 50.4966C97.655 50.8853 97.4187 51.2385 97.1208 51.5359C96.823 51.8334 96.4693 52.0694 96.0801 52.2304C95.6909 52.3914 95.2738 52.4742 94.8525 52.4742Z" fill="#D02AE9"/>
<path d="M540.792 261.67H499.169C498.748 261.67 498.33 261.587 497.941 261.426C497.552 261.265 497.198 261.029 496.9 260.731C496.603 260.434 496.366 260.081 496.205 259.692C496.044 259.303 495.961 258.887 495.961 258.466C495.961 258.045 496.044 257.629 496.205 257.24C496.366 256.851 496.603 256.498 496.9 256.201C497.198 255.903 497.552 255.667 497.941 255.506C498.33 255.345 498.748 255.262 499.169 255.262H540.792C541.214 255.262 541.631 255.345 542.02 255.506C542.409 255.667 542.763 255.903 543.061 256.201C543.359 256.498 543.595 256.851 543.756 257.24C543.917 257.629 544 258.045 544 258.466C544 258.887 543.917 259.303 543.756 259.692C543.595 260.081 543.359 260.434 543.061 260.731C542.763 261.029 542.409 261.265 542.02 261.426C541.631 261.587 541.214 261.67 540.792 261.67Z" fill="#56DFED"/>
<path d="M24.4347 311.322H29.5213C30.1631 311.322 30.7787 311.576 31.2325 312.029C31.6863 312.483 31.9413 313.097 31.9413 313.738V318.506C31.9413 319.147 31.6863 319.762 31.2325 320.215C30.7787 320.668 30.1631 320.923 29.5213 320.923H24.4346C23.7928 320.923 23.1773 320.668 22.7234 320.215C22.2696 319.762 22.0146 319.147 22.0146 318.506V313.738C22.0146 313.097 22.2696 312.483 22.7235 312.029C23.1773 311.576 23.7929 311.322 24.4347 311.322Z" fill="#FF4C29"/>
<path d="M334.153 23.4382H418.798C419.474 23.4382 420.122 23.7062 420.6 24.1833C421.077 24.6604 421.346 25.3074 421.346 25.9821V46.6207C421.346 47.2954 421.077 47.9425 420.6 48.4196C420.122 48.8967 419.474 49.1647 418.798 49.1647H334.153C333.477 49.1647 332.829 48.8967 332.352 48.4196C331.874 47.9426 331.605 47.2956 331.605 46.6209V25.9821C331.605 25.648 331.671 25.3172 331.799 25.0086C331.927 24.7 332.115 24.4195 332.352 24.1833C332.588 23.9471 332.869 23.7597 333.178 23.6319C333.487 23.504 333.818 23.4382 334.153 23.4382Z" fill="#FF4C29"/>
<path d="M343.83 32.605H404.029" stroke="white" stroke-width="1.18031" stroke-miterlimit="10"/>
<path d="M343.83 38.7751H368.35" stroke="white" stroke-width="1.18031" stroke-miterlimit="10"/>
<path d="M341.382 46.2544V56.2807L354.009 46.2544H341.382Z" fill="#FF4C29"/>
<path d="M168.118 0H210.835C212.284 0 213.674 0.574818 214.698 1.598C215.723 2.62118 216.299 4.00892 216.299 5.45591V45.2392C216.299 46.6862 215.723 48.0739 214.698 49.0971C213.674 50.1203 212.284 50.6951 210.835 50.6951H169.861C167.949 50.6951 166.116 49.9369 164.765 48.5873C163.414 47.2377 162.654 45.4072 162.654 43.4986V5.4559C162.654 4.00891 163.23 2.62118 164.254 1.598C165.279 0.574817 166.669 0 168.118 0Z" fill="#8179F8"/>
<path d="M201.994 29.0961L198.94 26.0457C198.695 25.763 198.394 25.5345 198.056 25.375C197.718 25.2155 197.35 25.1285 196.976 25.1197C196.232 25.1409 195.527 25.4541 195.012 25.9912L193.267 27.7343C193.158 27.6799 193.049 27.6255 192.94 27.571C192.752 27.4912 192.57 27.4002 192.394 27.2986C190.668 26.1751 189.139 24.7766 187.867 23.1586C187.296 22.481 186.819 21.7298 186.449 20.9253C186.885 20.544 187.267 20.1082 187.649 19.7269C187.812 19.5635 187.976 19.4001 188.139 19.2366C188.43 18.9873 188.664 18.6781 188.824 18.3302C188.984 17.9823 189.067 17.604 189.067 17.2212C189.067 16.8384 188.984 16.4601 188.824 16.1122C188.664 15.7643 188.43 15.4551 188.139 15.2057L186.612 13.6805C186.435 13.5114 186.271 13.3293 186.121 13.1358L185.085 12.1008C184.571 11.5637 183.865 11.2505 183.121 11.2292C182.752 11.2327 182.387 11.3118 182.049 11.4618C181.711 11.6117 181.408 11.8292 181.158 12.1008L179.248 14.0073C178.534 14.7256 178.091 15.6687 177.994 16.6765C177.932 18.0912 178.174 19.5028 178.703 20.8164C179.661 23.4402 181.104 25.8608 182.958 27.9522C185.354 30.8102 188.328 33.1305 191.685 34.7613C193.221 35.539 194.883 36.0371 196.594 36.2321H196.976C197.591 36.2415 198.201 36.1201 198.765 35.8759C199.329 35.6317 199.835 35.2703 200.249 34.8157L200.303 34.7613C200.603 34.4077 200.931 34.0798 201.285 33.7808L201.994 33.0726C202.265 32.8172 202.482 32.509 202.629 32.1671C202.777 31.8252 202.853 31.4568 202.853 31.0844C202.853 30.712 202.777 30.3436 202.629 30.0016C202.482 29.6597 202.265 29.3516 201.994 29.0961ZM200.74 31.9287C200.521 32.1466 200.303 32.3645 200.085 32.5823C199.703 32.9092 199.376 33.2905 198.994 33.6718C198.743 33.9389 198.439 34.1499 198.1 34.2907C197.762 34.4316 197.397 34.4991 197.03 34.4889H196.758C195.268 34.3341 193.823 33.89 192.503 33.1816C189.376 31.6498 186.607 29.4784 184.376 26.8084C182.697 24.8434 181.352 22.6168 180.394 20.2171C179.887 19.1668 179.662 18.0032 179.739 16.8399C179.775 16.2332 180.049 15.6653 180.503 15.2602L182.358 13.4082C182.553 13.1874 182.827 13.0507 183.121 13.0268C183.268 13.0329 183.412 13.0701 183.544 13.1358C183.676 13.2015 183.792 13.2943 183.885 13.4082C184.212 13.7349 184.539 14.0618 184.867 14.3886C185.035 14.5836 185.217 14.7657 185.412 14.9334L186.939 16.4586C187.15 16.6617 187.285 16.9309 187.321 17.2212C187.297 17.5151 187.161 17.7884 186.939 17.9838L186.449 18.474L185.085 19.8359L185.03 19.8904C184.839 20.0539 184.704 20.2737 184.646 20.5182C184.587 20.7628 184.607 21.0197 184.703 21.2521V21.3066C185.165 22.365 185.771 23.3548 186.503 24.2481C187.894 26.021 189.571 27.5491 191.467 28.7693C191.691 28.9173 191.929 29.0449 192.176 29.1506C192.363 29.2304 192.545 29.3214 192.721 29.423L192.776 29.4775C193.024 29.6099 193.31 29.6551 193.587 29.6057C193.864 29.5563 194.116 29.4152 194.303 29.2051L196.212 27.2986C196.295 27.1806 196.406 27.0844 196.534 27.0179C196.662 26.9515 196.804 26.9168 196.949 26.9168C197.093 26.9168 197.235 26.9515 197.363 27.0179C197.492 27.0844 197.602 27.1806 197.685 27.2986L200.74 30.349C200.855 30.4459 200.948 30.5668 201.011 30.7032C201.075 30.8397 201.108 30.9884 201.108 31.1389C201.108 31.2894 201.075 31.4381 201.011 31.5745C200.948 31.711 200.855 31.8318 200.74 31.9287Z" fill="white"/>
<path d="M389.075 243.481L358.203 239.376L358.444 242.438L332.05 245.948C332.05 245.948 315.036 288.574 330.031 382.322H351.502L359.229 287.263H361.974L369.458 382.322H390.929C405.924 288.574 389.075 243.481 389.075 243.481Z" fill="#8E716C"/>
<path d="M349.413 287.263H371.814" stroke="#282828" stroke-width="1.23331" stroke-linecap="round" stroke-linejoin="round"/>
<path d="M407.102 198.514C404.461 194.304 389.625 194.453 388.842 194.361C384.832 193.892 391.414 225.764 399.757 253.624C400.133 254.885 400.771 256.052 401.629 257.05C402.488 258.048 403.547 258.854 404.739 259.415C405.93 259.977 407.226 260.281 408.543 260.308C409.86 260.334 411.168 260.084 412.382 259.572L412.548 259.501C414.521 258.667 416.149 257.185 417.161 255.299C418.172 253.414 418.507 251.239 418.11 249.137C414.142 228.114 410.157 203.382 407.102 198.514Z" fill="#FFB1A5"/>
<path d="M410.639 210.039L391.698 217.379L389.922 208.404L409.536 203.518L410.639 210.039Z" fill="#F3978E"/>
<path d="M414.218 227.994C414.218 227.994 405.244 240.029 405.672 239.476C406.1 238.922 412.71 220.027 412.71 220.027L414.218 227.994Z" fill="#F3978E"/>
<path d="M427.047 211.818L401.326 245.098C400.528 246.131 399.952 247.319 399.636 248.585C399.32 249.851 399.27 251.17 399.49 252.456C399.71 253.743 400.194 254.97 400.912 256.06C401.631 257.151 402.568 258.08 403.664 258.791H403.664C404.758 259.5 405.988 259.976 407.276 260.188C408.563 260.4 409.881 260.343 411.145 260.022C412.41 259.7 413.594 259.121 414.624 258.321C415.654 257.52 416.506 256.515 417.128 255.369L438.537 215.923L427.047 211.818Z" fill="#FFB1A5"/>
<path d="M433.705 220.364C431.708 219.719 429.947 218.498 428.645 216.855C427.343 215.211 426.559 213.219 426.391 211.13C426.222 209.042 426.678 206.95 427.701 205.12C428.723 203.29 430.266 201.803 432.134 200.849C434.002 199.894 436.111 199.514 438.196 199.757C440.28 200 442.245 200.855 443.843 202.213C445.441 203.571 446.6 205.372 447.173 207.388C447.746 209.404 447.707 211.544 447.062 213.538C446.634 214.863 445.949 216.089 445.046 217.149C444.143 218.209 443.039 219.08 441.799 219.714C440.559 220.348 439.205 220.731 437.817 220.843C436.428 220.954 435.03 220.791 433.705 220.364Z" fill="#FFB1A5"/>
<path d="M444.702 203.913C444.702 203.913 447.606 200.902 442.455 198.792C437.304 196.682 430.936 197.166 426.87 207.025L444.702 203.913Z" fill="#FFB1A5"/>
<path d="M450.038 182.88L460.808 187.543C460.951 187.608 461.078 187.703 461.181 187.821C461.284 187.938 461.362 188.077 461.408 188.226C461.454 188.376 461.467 188.534 461.448 188.689C461.429 188.844 461.376 188.994 461.295 189.128L447.127 215.556C446.975 215.851 446.719 216.079 446.409 216.198C446.099 216.317 445.756 216.318 445.445 216.201L434.675 211.538C434.532 211.473 434.405 211.378 434.302 211.261C434.198 211.143 434.121 211.005 434.075 210.855C434.029 210.705 434.015 210.547 434.035 210.392C434.054 210.237 434.107 210.087 434.188 209.953L448.356 183.525C448.508 183.231 448.764 183.002 449.074 182.883C449.384 182.764 449.727 182.763 450.038 182.88Z" fill="#372F5F"/>
<path d="M449.009 182.413L459.779 187.076C459.921 187.141 460.048 187.235 460.152 187.353C460.255 187.471 460.332 187.609 460.378 187.759C460.424 187.908 460.438 188.066 460.419 188.221C460.399 188.377 460.347 188.526 460.266 188.66L446.098 215.088C445.945 215.383 445.69 215.612 445.38 215.731C445.07 215.85 444.726 215.85 444.416 215.733L433.646 211.07C433.503 211.005 433.376 210.911 433.273 210.793C433.169 210.675 433.092 210.537 433.046 210.387C433 210.238 432.986 210.08 433.006 209.925C433.025 209.769 433.077 209.62 433.159 209.486L447.326 183.058C447.479 182.763 447.734 182.534 448.045 182.415C448.355 182.296 448.698 182.295 449.009 182.413Z" fill="#261B43"/>
<path d="M447.794 185.102L457.257 189.199L445.711 210.737L436.248 206.64L447.794 185.102Z" fill="#E6E6E6"/>
<path d="M457.257 189.199L436.248 206.64L447.794 185.102L457.257 189.199Z" fill="white"/>
<path d="M439.363 197.914C440.957 198.259 442.493 198.829 443.926 199.606C444.391 199.865 444.758 200.27 444.97 200.758C445.183 201.245 445.23 201.789 445.103 202.306C444.986 202.779 444.727 203.206 444.362 203.529C443.997 203.853 443.543 204.059 443.058 204.12L437.459 204.825C437.459 204.825 434.538 209.853 430.721 210.418L434.222 201.589L439.363 197.914Z" fill="#FFB1A5"/>
<path d="M367.859 156.604C367.241 156.601 407.564 162.176 414.217 208.087L393.294 211.288L389.075 245.948H330.705L319.116 181.91C319.116 181.91 332.048 163.401 356.06 156.604H367.859Z" fill="#FC5F2D"/>
<path d="M393.293 211.288L395.109 191.243" stroke="#282828" stroke-width="1.23331" stroke-linecap="round" stroke-linejoin="round"/>
<path d="M371.691 157.261V141.314H352.979V157.448C351.254 158.001 349.574 158.681 347.951 159.484L362.546 168.166L377.467 159.484C375.645 158.5 373.704 157.753 371.691 157.261Z" fill="#FFB1A5"/>
<path d="M352.805 143.262C352.805 143.262 356.166 152.173 365.137 151.404C373.383 150.697 372.07 138.347 372.07 138.347L352.805 143.262Z" fill="#282828"/>
<path d="M344.643 131.41C341.71 134.066 335.151 123.989 337.985 121.16C340.819 118.331 342.981 122.769 342.981 122.769L344.247 125.777L345.201 129.852L345.428 130.918L344.643 131.41Z" fill="#F3978E"/>
<path d="M339.355 124.73C339.355 124.73 341.576 123.733 343.548 126.947" stroke="#282828" stroke-width="0.99284" stroke-linecap="round" stroke-linejoin="round"/>
<path d="M379.331 131.105C382.029 134 389.417 124.512 386.833 121.454C384.248 118.395 381.718 122.636 381.718 122.636L380.203 125.526L378.906 129.505L378.59 130.549L379.331 131.105Z" fill="#F3978E"/>
<path d="M385.165 124.894C385.165 124.894 383.038 123.713 380.8 126.749" stroke="#282828" stroke-width="0.99284" stroke-linecap="round" stroke-linejoin="round"/>
<path d="M339.499 111.547C339.499 124.887 349.683 131.212 362.247 131.212C374.81 131.212 384.994 124.887 384.994 111.547C384.994 98.2069 374.81 89.1316 362.247 89.1316C349.683 89.1316 339.499 98.2068 339.499 111.547Z" fill="#282828"/>
<path d="M342.59 112.475C342.601 119.298 343.377 126.097 344.906 132.747C346.038 137.657 349.224 141.089 353.728 143.851L354.548 144.354C356.918 145.79 359.631 146.563 362.403 146.594C365.174 146.624 367.904 145.911 370.305 144.529C375.184 141.688 378.6 137.943 379.652 132.674C380.872 126.005 381.581 119.252 381.773 112.475C381.773 112.475 383.592 91.8018 362.461 92.2035C341.33 92.6052 342.59 112.475 342.59 112.475Z" fill="#FFB1A5"/>
<path d="M360.9 124.273V127.134C360.9 127.298 360.932 127.462 360.993 127.614C361.119 127.895 361.342 128.121 361.622 128.25C361.902 128.379 362.219 128.403 362.514 128.317L363.828 127.969" stroke="#282828" stroke-width="1.23163" stroke-linecap="round" stroke-linejoin="round"/>
<path d="M357.539 113.179L347.037 115.637C347.037 115.637 347.514 112.968 351.811 111.999C356.107 111.029 357.539 113.179 357.539 113.179Z" fill="#282828"/>
<path d="M366.859 113.179L377 115.637C377 115.637 376.539 112.968 372.391 111.999C368.242 111.029 366.859 113.179 366.859 113.179Z" fill="#282828"/>
<path d="M353.549 122.647C354.528 122.647 355.321 121.857 355.321 120.883C355.321 119.909 354.528 119.119 353.549 119.119C352.571 119.119 351.778 119.909 351.778 120.883C351.778 121.857 352.571 122.647 353.549 122.647Z" fill="#282828"/>
<path d="M372.111 120.883C372.112 121.233 372.009 121.576 371.815 121.867C371.621 122.159 371.344 122.386 371.021 122.521C370.697 122.655 370.341 122.691 369.997 122.623C369.653 122.556 369.337 122.388 369.089 122.141C368.841 121.893 368.671 121.578 368.603 121.235C368.534 120.892 368.569 120.536 368.703 120.212C368.837 119.889 369.064 119.612 369.355 119.418C369.646 119.223 369.989 119.119 370.34 119.119C370.572 119.119 370.802 119.164 371.017 119.253C371.231 119.341 371.427 119.471 371.591 119.635C371.755 119.799 371.886 119.993 371.975 120.208C372.064 120.422 372.11 120.651 372.111 120.883Z" fill="#282828"/>
<path d="M355.32 131.647H368.979C368.979 131.647 362.925 139.001 355.32 131.647Z" fill="white"/>
<path d="M358.13 126.887C361.071 123.95 361.071 119.188 358.13 116.25C355.189 113.313 350.42 113.313 347.479 116.25C344.538 119.188 344.538 123.95 347.479 126.887C350.42 129.824 355.189 129.824 358.13 126.887Z" stroke="#C98BD2" stroke-width="1.3423" stroke-miterlimit="10"/>
<path d="M376.633 126.887C379.574 123.95 379.574 119.188 376.633 116.25C373.692 113.313 368.923 113.313 365.982 116.25C363.041 119.188 363.041 123.95 365.982 126.887C368.923 129.824 373.692 129.824 376.633 126.887Z" stroke="#C98BD2" stroke-width="1.3423" stroke-miterlimit="10"/>
<path d="M360.335 121.568C360.335 121.568 362.119 119.906 363.774 121.568" stroke="#C98BD2" stroke-width="1.3423" stroke-miterlimit="10"/>
<path d="M345.274 121.569L342.901 121.509" stroke="#C98BD2" stroke-width="1.3423" stroke-miterlimit="10"/>
<path d="M378.838 121.569L381.225 121.509" stroke="#C98BD2" stroke-width="1.3423" stroke-miterlimit="10"/>
<path d="M381.502 119.329C381.502 119.329 373.053 107.923 375.002 96.3677C377.05 97.5756 378.816 99.2078 380.179 101.155C381.543 103.101 382.472 105.317 382.906 107.653C384.539 115.787 381.502 119.329 381.502 119.329Z" fill="#282828"/>
<path d="M342.577 120.101C342.577 120.101 352.392 107.147 350.443 95.5918C346.144 98.341 343.11 102.677 342.002 107.653C340.369 115.787 342.577 120.101 342.577 120.101Z" fill="#282828"/>
<path d="M380.792 100.919C380.792 100.919 369.944 112.778 340.264 110.748C340.264 110.748 344.808 93.3449 359.192 91.4914C359.192 91.4914 375.8 89.511 380.792 100.919Z" fill="#282828"/>
<path d="M394.022 89.3096C395.269 81.5935 390.016 74.3287 382.29 73.0832C374.563 71.8377 367.289 77.0832 366.041 84.7993C364.794 92.5154 370.047 99.7802 377.773 101.026C385.5 102.271 392.774 97.0256 394.022 89.3096Z" fill="#282828"/>
<path d="M207.038 243.449L180.643 239.939L180.884 236.878L150.013 240.983C150.013 240.983 133.164 286.076 148.159 379.824H169.63L177.114 284.764H179.858L187.586 379.824H209.057C224.052 286.076 207.038 243.449 207.038 243.449Z" fill="#282828"/>
<path d="M204.933 115.2C200.996 110.486 197.988 105.069 196.07 99.2365C193.46 91.861 184.915 94.859 184.915 94.859C184.915 94.859 177.794 85.7114 167.08 88.8974C156.365 92.0833 152.642 99.6979 152.424 108.751C152.205 117.803 145.075 119.219 139.585 129.692C129.892 148.18 146.211 163.753 175.917 159.432L175.957 159.145C179.498 160.121 183.184 160.465 186.844 160.159C222.531 158.044 219.088 131.83 204.933 115.2Z" fill="#282828"/>
<path d="M193.249 128.911C196.182 131.568 202.741 121.491 199.907 118.662C197.073 115.832 194.911 120.271 194.911 120.271L193.646 123.279L192.691 127.353L192.464 128.42L193.249 128.911Z" fill="#F3978E"/>
<path d="M198.537 122.231C198.537 122.231 196.316 121.234 194.344 124.448" stroke="#282828" stroke-width="0.99284" stroke-linecap="round" stroke-linejoin="round"/>
<path d="M158.562 128.606C155.864 131.501 148.475 122.013 151.059 118.955C153.644 115.896 156.174 120.137 156.174 120.137L157.69 123.027L158.986 127.006L159.303 128.05L158.562 128.606Z" fill="#F3978E"/>
<path d="M152.727 122.396C152.727 122.396 154.854 121.215 157.092 124.251" stroke="#282828" stroke-width="0.99284" stroke-linecap="round" stroke-linejoin="round"/>
<path d="M198.394 109.048C198.394 122.388 188.209 128.714 175.646 128.714C163.083 128.714 152.898 122.388 152.898 109.048C152.898 95.7085 163.083 86.6333 175.646 86.6333C188.209 86.6333 198.394 95.7085 198.394 109.048Z" fill="#282828"/>
<path d="M184.914 138.815H166.201V163.014H184.914V138.815Z" fill="#FFB1A5"/>
<path d="M163.471 137.306C163.471 137.306 168.68 147.688 175.088 149.309C176.81 149.72 178.616 149.616 180.279 149.009C182.691 148.156 185.75 144.564 186.27 140.591L186.511 138.321C186.511 138.321 175.108 144.521 163.471 137.306Z" fill="#282828"/>
<path d="M195.301 109.976C195.291 116.799 194.515 123.598 192.986 130.248C191.854 135.158 188.668 138.59 184.164 141.352L183.344 141.855C180.974 143.291 178.261 144.064 175.489 144.095C172.718 144.125 169.988 143.412 167.587 142.03V142.03C162.708 139.189 159.292 135.444 158.24 130.175C157.02 123.506 156.311 116.753 156.119 109.976C156.119 109.976 154.3 89.3028 175.431 89.7045C196.562 90.1062 195.301 109.976 195.301 109.976Z" fill="#FFB1A5"/>
<path d="M174.234 122.894V124.593C174.233 124.788 174.277 124.981 174.365 125.156C174.453 125.33 174.581 125.481 174.738 125.597C174.896 125.712 175.079 125.788 175.272 125.819C175.465 125.85 175.663 125.834 175.849 125.773L177.162 125.426" stroke="#282828" stroke-width="1.22976" stroke-linecap="round" stroke-linejoin="round"/>
<path d="M178.636 111.687L189.879 114.344C189.879 114.344 189.367 111.459 184.768 110.411C180.169 109.362 178.636 111.687 178.636 111.687Z" fill="#282828"/>
<path d="M172.735 111.687L161.348 114.344C161.348 114.344 161.865 111.459 166.524 110.411C171.182 109.362 172.735 111.687 172.735 111.687Z" fill="#282828"/>
<path d="M168.657 118.656C168.659 119.006 168.557 119.349 168.363 119.641C168.17 119.933 167.894 120.162 167.57 120.297C167.247 120.433 166.89 120.469 166.546 120.402C166.202 120.335 165.885 120.167 165.637 119.92C165.388 119.673 165.218 119.358 165.149 119.015C165.08 118.671 165.114 118.315 165.248 117.991C165.382 117.668 165.609 117.391 165.9 117.196C166.192 117.001 166.535 116.897 166.885 116.897C167.354 116.896 167.804 117.08 168.136 117.41C168.468 117.74 168.655 118.188 168.657 118.656Z" fill="#282828"/>
<path d="M185.446 118.656C185.448 119.006 185.346 119.349 185.152 119.641C184.959 119.933 184.683 120.162 184.359 120.297C184.036 120.433 183.68 120.469 183.335 120.402C182.991 120.335 182.674 120.167 182.426 119.92C182.177 119.673 182.007 119.358 181.938 119.015C181.869 118.671 181.903 118.315 182.037 117.991C182.171 117.668 182.398 117.391 182.689 117.196C182.981 117.001 183.324 116.897 183.675 116.897C184.143 116.896 184.593 117.08 184.925 117.41C185.257 117.74 185.444 118.188 185.446 118.656Z" fill="#282828"/>
<path d="M167.486 128.714H183.031C183.031 128.714 181.934 132.979 174.885 132.979C173.38 133.011 171.894 132.63 170.589 131.878C169.285 131.126 168.212 130.032 167.486 128.714Z" fill="white"/>
<path d="M156.39 116.83C156.39 116.83 164.839 105.424 162.89 93.8691C160.842 95.077 159.077 96.7093 157.713 98.656C156.35 100.603 155.42 102.819 154.986 105.154C153.353 113.288 156.39 116.83 156.39 116.83Z" fill="#282828"/>
<path d="M195.316 116.45C195.316 116.45 185.502 104.648 187.45 93.0933C191.749 95.8424 194.783 100.178 195.891 105.154C197.524 113.288 195.316 116.45 195.316 116.45Z" fill="#282828"/>
<path d="M157.1 98.42C157.1 98.42 166.794 111.432 196.474 109.402C196.474 109.402 193.083 90.8461 178.699 88.9926C178.699 88.9926 162.091 87.0122 157.1 98.42Z" fill="#282828"/>
<path d="M130.044 300.687C129.613 301.365 154.747 191.475 147.285 193.137C146.604 193.288 133.535 194.5 131.593 198.444C125.962 209.877 121.924 299.854 121.924 299.854L130.044 300.687Z" fill="#FFB1A5"/>
<path d="M121.924 299.854C121.924 299.854 117.873 318.625 133.189 320.677C133.68 320.743 134.178 320.637 134.6 320.378C135.022 320.119 135.342 319.723 135.505 319.256L135.549 319.129C135.721 318.618 135.693 318.061 135.473 317.569C135.252 317.077 134.854 316.685 134.357 316.473C131.861 315.358 127.987 312.541 129.909 306.144C129.909 306.144 132.123 305.873 133.345 309.996C133.417 310.246 133.543 310.477 133.714 310.672C133.886 310.867 134.098 311.023 134.336 311.127C134.574 311.232 134.832 311.283 135.092 311.277C135.352 311.271 135.608 311.208 135.841 311.093C136.17 310.927 136.438 310.663 136.611 310.338C136.783 310.013 136.849 309.643 136.801 309.279C136.434 306.39 134.979 299.438 129.397 297.572L121.924 299.854Z" fill="#FFB1A5"/>
<path d="M127.076 224.848C127.076 224.848 141.558 245.215 141.634 244.821C141.71 244.427 146.699 216.227 146.699 216.227L129.126 208.625L127.076 224.848Z" fill="#F3978E"/>
<path d="M167.316 159.03C167.934 159.026 131.525 159.678 124.871 205.588L145.795 208.79L150.013 243.449H208.384L219.972 179.411C219.972 179.411 211.734 165.537 187.722 158.74L167.316 159.03Z" fill="#FC5F2D"/>
<path d="M149.519 164.58C149.519 164.58 154.664 171.401 175.746 171.401C196.632 171.401 201.973 164.223 201.973 164.223C201.973 164.223 189.661 157.353 175.373 155.13C166.34 157.005 157.63 160.189 149.519 164.58Z" fill="#FFB1A5"/>
<path d="M221.153 310.024L221.204 401.584H266.56L270.046 310.024H221.153Z" fill="#005683"/>
<path d="M319.633 310.024L319.582 401.584H274.226L270.74 310.024H319.633Z" fill="#005683"/>
<path d="M294.862 310.023H247.966V341.833H294.862V310.023Z" fill="#005683"/>
<path d="M254.516 341.833H286.862" stroke="#282828" stroke-width="1.39681" stroke-linecap="round" stroke-linejoin="round"/>
<path d="M348.287 230.121C351.099 261.146 348.132 283.752 348.953 340.841L321.881 341.974L317.848 235.112L348.287 230.121Z" fill="#FFB1A5"/>
<path d="M321.187 254.331C321.187 254.331 337.952 252.798 349.413 245.249L349.111 238.604L321.178 242.403L321.187 254.331Z" fill="#F3978E"/>
<path d="M294.292 158.688C294.292 158.688 347.54 172.061 357.188 239.557C357.188 239.557 331.127 250.841 305.01 245.987L310.886 223.412L294.292 158.688Z" fill="#0172D2"/>
<path d="M135.242 186.753L174.889 233.512L162.756 267.632C162.756 267.632 132.623 225.793 119.082 193.454L135.242 186.753Z" fill="#FFB1A5"/>
<path d="M136.545 188.441C136.545 188.441 122.623 196.296 119.082 193.454C112.893 188.489 107.779 170.313 107.779 170.313C107.779 170.313 133.814 160.511 133.569 160.894C133.324 161.277 136.545 188.441 136.545 188.441Z" fill="#FFB1A5"/>
<path d="M136.544 188.441C136.298 187.041 141.707 171.942 143.561 166.28C143.657 165.943 143.682 165.589 143.632 165.242C143.583 164.895 143.461 164.562 143.274 164.265C143.087 163.968 142.84 163.714 142.548 163.519C142.257 163.324 141.927 163.192 141.581 163.133C140.974 162.973 140.331 163.015 139.75 163.253C139.169 163.491 138.681 163.911 138.36 164.451L131.83 175.596L136.544 188.441Z" fill="#FFB1A5"/>
<path d="M136.068 172.118L131.584 149.843C131.443 149.121 131.024 148.484 130.417 148.068C129.81 147.653 129.064 147.492 128.339 147.62C127.727 147.726 127.179 148.064 126.81 148.562C126.44 149.061 126.277 149.683 126.354 150.298L128.308 166.885L136.068 172.118Z" fill="#FFB1A5"/>
<path d="M127.153 163.901L121.064 147.995C120.817 147.322 120.32 146.77 119.676 146.453C119.031 146.136 118.29 146.079 117.605 146.294C117.029 146.482 116.545 146.88 116.25 147.409C115.955 147.938 115.87 148.559 116.013 149.147L120.531 167.527L127.153 163.901Z" fill="#FFB1A5"/>
<path d="M120.609 168.592L112.905 152.962C112.566 152.264 111.973 151.72 111.246 151.442C110.52 151.164 109.716 151.173 108.995 151.466C108.673 151.605 108.381 151.808 108.138 152.06C107.894 152.313 107.702 152.612 107.574 152.939C107.446 153.266 107.385 153.615 107.392 153.966C107.4 154.317 107.477 154.663 107.619 154.984L113.76 169.739L120.609 168.592Z" fill="#FFB1A5"/>
<path d="M107.779 170.313L101.734 160.738C101.612 160.48 101.543 160.199 101.53 159.914C101.517 159.628 101.56 159.342 101.659 159.074C101.757 158.805 101.908 158.558 102.102 158.348C102.296 158.138 102.531 157.969 102.791 157.849C103.318 157.623 103.908 157.587 104.459 157.747C105.01 157.907 105.488 158.254 105.812 158.727L113.761 169.739L107.779 170.313Z" fill="#FFB1A5"/>
<path d="M134.848 170.444C134.848 170.444 125.771 169.493 124.838 181.574" stroke="#282828" stroke-width="1.53173" stroke-linecap="round" stroke-linejoin="round"/>
<path d="M154.715 251.674C154.715 251.674 162.172 277.446 177.031 274.02C191.891 270.593 215.05 238.899 215.05 238.899L209.866 184.781L168.159 236.044L154.715 251.674Z" fill="#FFB1A5"/>
<path d="M181.096 220.12C181.096 220.12 195.176 241.33 207.188 248.81L215.05 238.899L184.72 215.469L181.096 220.12Z" fill="#F3978E"/>
<path d="M242.702 157.519C242.702 157.519 201.361 166.824 179.331 214.805C179.331 214.805 192.642 234.834 213.98 243.736L228.267 226.258L242.702 157.519Z" fill="#0172D2"/>
<path d="M242.702 157.37C232.972 162.356 224.095 168.851 216.4 176.612L219.587 316.868H321.353L321.023 177.336C321.023 177.336 308.195 164.8 294.293 158.688C282.484 153.497 254.182 151.489 242.702 157.37Z" fill="#0172D2"/>
<path d="M276.702 197.441H305.012V211.577C305.012 215.326 303.52 218.922 300.866 221.573C298.211 224.223 294.611 225.713 290.857 225.713H290.857C288.998 225.713 287.157 225.347 285.44 224.637C283.723 223.926 282.162 222.885 280.848 221.573C279.534 220.26 278.491 218.702 277.78 216.987C277.068 215.272 276.702 213.433 276.702 211.577V197.441V197.441Z" stroke="#282828" stroke-width="1.39681" stroke-linecap="round" stroke-linejoin="round"/>
<path d="M321.188 246.509L322.508 200.627" stroke="#282828" stroke-width="1.39681" stroke-linecap="round" stroke-linejoin="round"/>
<path d="M217.964 238.862L215.765 199.09" stroke="#282828" stroke-width="1.39681" stroke-linecap="round" stroke-linejoin="round"/>
<path d="M243.894 106.142L239.652 85.183C239.413 83.4756 238.75 80.8413 239.562 78.3662C240.906 74.2707 245.844 66.4052 254.284 70.0065L256.109 78.3044C256.109 78.3044 247.344 80.071 243.828 91.5223L243.894 106.142Z" fill="#282828"/>
<path d="M253.663 74.3325C253.509 77.0862 251.075 89.1355 242.518 93.5255C242.518 93.5255 235.022 77.4734 253.663 74.3325Z" fill="#282828"/>
<path d="M283.681 153.511V117.922H250.829V153.511L241.05 157.963C241.05 157.963 243.343 172.713 267.6 173.04C291.856 173.367 294.294 158.689 294.294 158.689L283.681 153.511Z" fill="#FFB1A5"/>
<path d="M254.284 70.0066C254.284 70.0066 260.313 54.1227 278.905 62.5669C290.159 67.6778 293.31 74.5304 294.651 79.3858C295.095 81.2389 295.264 83.1469 295.154 85.049L290.656 106.142L273.099 76.9589L256.109 78.3045L254.284 70.0066Z" fill="#282828"/>
<path d="M290.655 106.142C290.655 106.142 292.87 102.624 297.439 104.354C302.007 106.084 299.94 117.164 293.088 118.576C292.318 118.712 291.527 118.68 290.771 118.482C290.014 118.285 289.31 117.926 288.705 117.431C288.705 117.431 290.39 109.248 290.655 106.142Z" fill="#F3978E"/>
<path d="M296.534 108.263C296.534 108.263 292.707 106.988 289.991 112.615" stroke="#282828" stroke-width="1.39681" stroke-linecap="round" stroke-linejoin="round"/>
<path d="M243.894 106.142C243.894 106.142 241.679 102.624 237.11 104.354C232.542 106.084 234.609 117.164 241.461 118.576C242.231 118.712 243.022 118.68 243.778 118.482C244.535 118.285 245.239 117.926 245.844 117.431C245.844 117.431 244.159 109.248 243.894 106.142Z" fill="#F3978E"/>
<path d="M238.017 108.263C238.017 108.263 241.843 106.988 244.56 112.615" stroke="#282828" stroke-width="1.39681" stroke-linecap="round" stroke-linejoin="round"/>
<path d="M291.114 95.6286C291.116 102.308 290.46 116.281 286.348 124.575C282.488 132.362 276.103 136.553 267.732 136.802C259.361 137.052 253.125 133.83 248.128 123.723C243.13 113.617 243.369 95.7526 243.369 95.7526C243.369 95.7526 243.369 71.8931 266.982 71.8931C291.853 71.8931 291.114 95.6286 291.114 95.6286Z" fill="#FFB1A5"/>
<path d="M251.075 128.704C251.075 128.704 253.827 142.645 265.975 144.246C279.957 146.09 283.681 129.059 283.681 129.059C283.681 129.059 277.503 136.79 267.732 136.802C264.525 136.786 261.363 136.05 258.48 134.648C255.596 133.247 253.066 131.215 251.075 128.704Z" fill="#282828"/>
<path d="M265.557 105.534V111.056C265.556 111.286 265.6 111.515 265.686 111.729C265.861 112.121 266.172 112.437 266.563 112.618C266.953 112.798 267.396 112.832 267.809 112.712L269.641 112.225" stroke="#282828" stroke-width="1.39681" stroke-linecap="round" stroke-linejoin="round"/>
<path d="M258.584 102.897C258.584 103.321 258.458 103.736 258.221 104.089C257.985 104.442 257.649 104.718 257.257 104.88C256.864 105.042 256.431 105.085 256.014 105.002C255.597 104.919 255.214 104.715 254.914 104.415C254.613 104.114 254.408 103.732 254.325 103.316C254.243 102.899 254.285 102.467 254.448 102.075C254.611 101.683 254.886 101.348 255.24 101.112C255.593 100.876 256.009 100.75 256.434 100.75C256.716 100.75 256.996 100.806 257.257 100.913C257.517 101.021 257.754 101.179 257.954 101.379C258.154 101.578 258.312 101.815 258.42 102.075C258.528 102.336 258.584 102.615 258.584 102.897Z" fill="#282828"/>
<path d="M278.738 102.897C278.738 103.321 278.612 103.736 278.376 104.089C278.139 104.442 277.804 104.718 277.411 104.88C277.018 105.042 276.586 105.085 276.169 105.002C275.752 104.919 275.369 104.715 275.068 104.415C274.767 104.114 274.563 103.732 274.48 103.315C274.397 102.899 274.439 102.467 274.602 102.075C274.765 101.683 275.04 101.348 275.394 101.112C275.747 100.876 276.163 100.75 276.588 100.75C276.871 100.75 277.15 100.806 277.411 100.913C277.672 101.021 277.909 101.179 278.108 101.379C278.308 101.578 278.466 101.815 278.574 102.075C278.682 102.336 278.738 102.615 278.738 102.897Z" fill="#282828"/>
<path d="M271.086 92.2168L285.54 95.9452C285.54 95.9452 284.883 91.8968 278.97 90.4256C273.057 88.9543 271.086 92.2168 271.086 92.2168Z" fill="#282828"/>
<path d="M262.106 92.2168L247.652 95.9452C247.652 95.9452 248.309 91.8968 254.222 90.4256C260.135 88.9543 262.106 92.2168 262.106 92.2168Z" fill="#282828"/>
<path d="M259.23 116.619C259.23 116.619 261.362 118.251 266.97 118.251C269.817 118.314 272.644 117.758 275.254 116.619" stroke="#282828" stroke-width="1.39681" stroke-linecap="round" stroke-linejoin="round"/>
<path d="M255.855 112.646C260.9 112.646 264.989 108.562 264.989 103.524C264.989 98.4862 260.9 94.4021 255.855 94.4021C250.81 94.4021 246.721 98.4862 246.721 103.524C246.721 108.562 250.81 112.646 255.855 112.646Z" stroke="white" stroke-width="1.95143" stroke-miterlimit="10"/>
<path d="M278.295 112.646C283.34 112.646 287.43 108.562 287.43 103.524C287.43 98.4862 283.34 94.4021 278.295 94.4021C273.251 94.4021 269.161 98.4862 269.161 103.524C269.161 108.562 273.251 112.646 278.295 112.646Z" stroke="white" stroke-width="1.95143" stroke-miterlimit="10"/>
<path d="M264.99 103.524C264.99 103.524 267.154 101.508 269.161 103.524" stroke="white" stroke-width="1.95143" stroke-miterlimit="10"/>
<path d="M246.721 103.524L243.658 103.447" stroke="white" stroke-width="1.95143" stroke-miterlimit="10"/>
<path d="M287.429 103.524L290.848 103.469" stroke="white" stroke-width="1.95143" stroke-miterlimit="10"/>
<path d="M251.075 74.8774C251.075 74.8774 255.462 87.323 275.256 86.9412C288.706 86.6818 291.92 96.4015 291.92 96.4015C291.92 96.4015 289.579 74.6726 288.964 74.8774C288.348 75.0822 268.497 69.5879 268.497 69.5879L251.075 74.8774Z" fill="#282828"/>
<path opacity="0.7" d="M271.289 462C368.172 462 446.71 431.527 446.71 393.937C446.71 356.347 368.172 325.875 271.289 325.875C174.407 325.875 95.8682 356.347 95.8682 393.937C95.8682 431.527 174.407 462 271.289 462Z" fill="url(#paint0_radial_613_1857)"/>
<path d="M90.6974 370.067C99.0041 371.986 106.253 373.012 112.5 373.464C112.709 376.763 114.02 380.127 117.953 381.826C120.421 382.885 122.723 383.37 124.817 383.47C126.028 393.001 130.942 403.05 146.244 402.863C158.561 402.697 166.636 398.406 171.88 393.53C173.764 395.516 176.001 397.093 178.689 397.921C182.732 399.156 186.224 398.858 189.111 397.843C189.177 398.439 189.254 399.035 189.375 399.63C192.019 411.908 201.372 423.689 222.701 418.692C231.349 416.652 236.329 411.665 239.193 406.426C242.961 411.963 249.494 416.685 260.544 418.604C271.219 420.446 279.482 416.938 285.717 411.599C286.742 418.251 292.239 423.557 299.224 424.042C305.283 424.462 310.737 421.141 313.348 416.045C337.287 426.403 354.991 405.929 354.187 396.156C357.128 399.796 367.066 400.016 372.805 397.347C374.546 396.553 376.055 395.306 377.311 393.828C381.057 395.637 385.188 396.773 389.573 397.082C408.048 398.373 424.067 384.429 425.356 365.93C425.609 362.312 425.268 358.771 424.43 355.439C421.015 341.716 409.106 331.138 394.233 330.09C389.022 329.726 383.999 330.586 379.449 332.395C376.276 327.155 369.522 319.5 356.368 317.15C354.859 316.874 353.273 316.72 351.62 316.698C348.194 303.924 336.99 294.128 323.075 293.157C308.533 292.142 295.61 301.077 290.906 314.16C289.022 313.101 286.841 312.307 284.34 311.954C281.928 311.612 279.856 311.745 278.072 312.153C275.945 308.667 272.651 305.876 268.751 304.663C263.32 303.008 257.162 304.519 252.821 308.148C249.714 300.184 242.245 294.304 233.167 293.676C222.238 292.914 212.577 299.996 209.679 310.134C200.106 306.163 192.702 309.858 188.417 314.006C182.952 319.29 180.11 330.266 182.512 337.403C175.626 335.495 170.118 339.852 171.341 346.912C155.884 337.822 141.177 345.335 133.156 351.413C133.046 351.258 132.925 351.104 132.804 350.95C125.059 344.309 114.945 348.39 113.458 353.674C98.0567 347.519 82.8314 350.144 67.0773 359.311C66.9782 359.366 66.901 359.433 66.8129 359.488C62.924 362.257 76.1001 366.691 90.6974 370.067Z" fill="white"/>
<path d="M90.6974 370.066C99.0041 371.986 106.253 373.012 112.5 373.464C112.709 376.762 114.02 380.127 117.953 381.826C120.421 382.885 122.723 383.37 124.817 383.469C126.028 393 130.942 403.05 146.244 402.862C158.561 402.697 166.636 398.406 171.88 393.53C173.764 395.515 176.001 397.093 178.689 397.92C182.732 399.156 186.224 398.858 189.111 397.843C189.177 398.439 189.254 399.034 189.375 399.63C192.019 411.908 201.372 423.689 222.701 418.692C231.349 416.651 236.329 411.665 239.193 406.425C242.961 411.963 249.494 416.684 260.544 418.604C271.219 420.446 279.482 416.938 285.717 411.599C286.742 418.251 292.239 423.557 299.224 424.042C305.283 424.461 310.737 421.141 313.348 416.044C337.287 426.403 354.991 405.929 354.187 396.155C357.128 399.795 367.066 400.016 372.805 397.347C374.546 396.552 376.055 395.306 377.311 393.828C381.057 395.637 385.188 396.773 389.573 397.082C408.048 398.372 424.067 384.429 425.356 365.93C425.609 362.311 425.268 358.77 424.43 355.439C413.303 352.593 400.843 353.277 393.231 368.721C387.887 358.296 378.182 359.498 375.516 366.68C371.076 359.443 363.155 353.961 352.325 351.214C341.286 348.401 333.057 353.663 327.482 358.892C327.625 358.936 327.769 358.991 327.912 359.046C347.511 366.007 345.803 385.323 345.803 385.323C345.803 385.323 338.543 366.007 299.566 363.602C299.566 363.602 305.437 355.88 318.316 356.895C313.987 350.243 306.87 345.456 298.376 344.375C294.211 343.856 290.168 344.297 286.411 345.489C286.323 344.408 286.191 343.327 285.96 342.246C284.55 335.693 279.504 329.416 272.828 328.865C261.635 327.916 251.874 338.506 253.074 352.472C253.074 352.472 240.251 348.633 231.801 368.621C231.801 368.621 233.674 353.95 243.049 345.72C237.772 340.789 228.606 340.856 225.202 342.047C217.303 344.827 214.659 350.629 214.141 356.344C214.141 356.344 207.388 351.6 201.703 354.292C194.564 357.667 196.734 365.135 196.734 365.135C186.643 362.256 182.424 360.502 176.816 373.784C186.996 370.574 197.439 374.28 204.215 382.818C194.145 376.012 180.088 375.648 169.666 381.936C170.911 372.592 158.198 364.937 150.53 370.397C149.296 361.98 139.899 356.763 131.57 358.34C124.828 359.631 120.63 365.731 121.192 373.265C116.278 360.899 102.981 364.021 85.4644 362.697C79.5594 362.245 72.1891 362.455 66.8129 359.487C62.924 362.256 76.1001 366.691 90.6974 370.066Z" fill="#CCE1F4"/>
<defs>
<radialGradient id="paint0_radial_613_1857" cx="0" cy="0" r="1" gradientUnits="userSpaceOnUse" gradientTransform="translate(271.287 393.942) scale(175.418 68.0603)">
<stop stop-color="#467687"/>
<stop offset="0.1073" stop-color="#4E7C8C" stop-opacity="0.8927"/>
<stop offset="0.2784" stop-color="#668D9C" stop-opacity="0.7216"/>
<stop offset="0.4919" stop-color="#8BA9B4" stop-opacity="0.5081"/>
<stop offset="0.7394" stop-color="#C0D0D6" stop-opacity="0.2606"/>
<stop offset="1" stop-color="white" stop-opacity="0"/>
</radialGradient>
</defs>
</svg>
