<svg width="44" height="44" viewBox="0 0 44 44" fill="none" xmlns="http://www.w3.org/2000/svg">
<circle cx="22" cy="22" r="22" fill="#FF4C29" fill-opacity="0.2"/>
<g clip-path="url(#clip0_643_309)">
<path d="M34.6184 29.184H29.3418C29.7046 28.7257 29.8502 28.1371 29.7406 27.5613L28.6593 21.8842C28.5232 21.17 28.0102 20.5836 27.3205 20.3536L24.563 19.4345C24.5144 19.4183 24.4649 19.4126 24.4168 19.4158V18.6832C24.943 18.092 25.2309 17.3402 25.2309 16.5401V15.6378C25.7036 15.4781 26.045 15.0308 26.045 14.5049V12.4697C26.045 11.1371 24.9608 10.0528 23.6282 10.0528H20.3718C19.8333 10.0528 19.3767 10.4107 19.2276 10.9011C18.5017 11.0537 17.955 11.699 17.955 12.4697V14.5049C17.955 15.0307 18.2964 15.4781 18.7691 15.6378V16.4207C18.7691 17.2617 19.0776 18.0385 19.5832 18.6319V19.4158C19.5351 19.4126 19.4856 19.4183 19.437 19.4345L16.6795 20.3537C15.9898 20.5836 15.4768 21.1701 15.3407 21.8843L14.2594 27.5614C14.1497 28.1372 14.2954 28.7257 14.6582 29.184H9.3816C9.17086 29.184 9 29.3549 9 29.5656C9 29.7764 9.17086 29.9472 9.3816 29.9472H16.2337H16.3014H17.1155H26.8845H27.6986H27.7663H34.6184C34.8291 29.9472 35 29.7764 35 29.5656C35 29.3549 34.8291 29.184 34.6184 29.184ZM19.9648 20.1781C20.1755 20.1781 20.3464 20.0072 20.3464 19.7965V19.2918C20.8048 19.5792 21.3353 19.7526 21.9009 19.7696C21.9344 19.7706 21.9678 19.771 22.0012 19.771C22.5921 19.771 23.1583 19.6133 23.6536 19.3168V19.7965C23.6536 20.0072 23.8245 20.1781 24.0352 20.1781C24.0406 20.1781 24.0458 20.1775 24.051 20.1773C23.9517 21.1184 23.0699 21.8571 22 21.8571C20.9301 21.8571 20.0483 21.1184 19.949 20.1773C19.9542 20.1775 19.9594 20.1781 19.9648 20.1781ZM18.7182 14.5049V12.4697C18.7182 12.0068 19.0948 11.6301 19.5577 11.6301C19.7685 11.6301 19.9393 11.4593 19.9393 11.2485C19.9393 11.0101 20.1333 10.8161 20.3718 10.8161H23.6282C24.54 10.8161 25.2818 11.5578 25.2818 12.4697V14.5049C25.2818 14.5783 25.2633 14.6474 25.2309 14.708V14.0979C25.2309 13.4385 24.6945 12.9022 24.0352 12.9022H19.9648C19.3055 12.9022 18.7691 13.4385 18.7691 14.0979V14.708C18.7367 14.6474 18.7182 14.5783 18.7182 14.5049ZM19.5323 14.0979C19.5323 13.8594 19.7263 13.6654 19.9648 13.6654H24.0352C24.2737 13.6654 24.4677 13.8594 24.4677 14.0979V16.5401C24.4677 17.2133 24.2016 17.8423 23.7184 18.3112C23.2354 18.7799 22.5972 19.0269 21.9238 19.0067C20.6051 18.9671 19.5323 17.807 19.5323 16.4207V14.0979ZM17.1155 29.184C17.1014 29.184 17.09 29.1725 17.09 29.1585V23.8669C17.09 23.8529 17.1014 23.8415 17.1155 23.8415H26.8845C26.8986 23.8415 26.91 23.8529 26.91 23.8669V29.1585C26.91 29.1725 26.8986 29.184 26.8845 29.184H17.1155ZM27.6986 29.184H27.6719C27.6722 29.1755 27.6732 29.1671 27.6732 29.1585V23.8669C27.6732 23.4321 27.3194 23.0783 26.8845 23.0783H17.1155C16.6806 23.0783 16.3268 23.4321 16.3268 23.8669V29.1585C16.3268 29.1671 16.3278 29.1755 16.3281 29.184H16.3014H16.2337C15.8609 29.184 15.5109 29.0193 15.2733 28.7321C15.0357 28.4449 14.9394 28.0703 15.0092 27.7041L16.0905 22.027C16.1749 21.5841 16.4931 21.2203 16.9209 21.0777L19.1978 20.3187C19.3678 21.6137 20.5592 22.6204 22 22.6204C23.4408 22.6204 24.6322 21.6137 24.8023 20.3187L27.0792 21.0777C27.507 21.2203 27.8252 21.5841 27.9095 22.027L28.9908 27.7041C29.0606 28.0703 28.9643 28.445 28.7267 28.7321C28.4891 29.0193 28.1391 29.184 27.7664 29.184H27.6986Z" fill="#D22807"/>
<path d="M22.0004 25.5206C21.3411 25.5206 20.8047 26.0569 20.8047 26.7162C20.8047 27.3756 21.3411 27.9119 22.0004 27.9119C22.6597 27.9119 23.1961 27.3756 23.1961 26.7162C23.1961 26.0569 22.6597 25.5206 22.0004 25.5206ZM22.0004 27.1487C21.7619 27.1487 21.5679 26.9547 21.5679 26.7162C21.5679 26.4778 21.7619 26.2838 22.0004 26.2838C22.2389 26.2838 22.4329 26.4778 22.4329 26.7162C22.4329 26.9547 22.2389 27.1487 22.0004 27.1487Z" fill="#D22807"/>
</g>
<defs>
<clipPath id="clip0_643_309">
<rect width="26" height="26" fill="white" transform="translate(9 7)"/>
</clipPath>
</defs>
</svg>
