<svg width="44" height="44" viewBox="0 0 44 44" fill="none" xmlns="http://www.w3.org/2000/svg">
<circle cx="22" cy="22" r="22" fill="#FF4C29" fill-opacity="0.2"/>
<g clip-path="url(#clip0_643_310)">
<path d="M12.9001 27.8C12.6609 27.8 12.4668 27.9941 12.4668 28.2333C12.4668 28.4725 12.6609 28.6666 12.9001 28.6666H17.2334C17.4726 28.6666 17.6667 28.4725 17.6667 28.2333C17.6667 27.9941 17.4726 27.8 17.2334 27.8H16.8001V17.4H17.2334C17.4726 17.4 17.6667 17.2059 17.6667 16.9667C17.6667 16.7276 17.4726 16.5334 17.2334 16.5334H12.9001C12.6609 16.5334 12.4668 16.7276 12.4668 16.9667C12.4668 17.2059 12.6609 17.4 12.9001 17.4H13.3334V27.8H12.9001ZM14.2001 17.4H15.9334V27.8H14.2001V17.4Z" fill="#D22807"/>
<path d="M9.43341 15.6667H34.5666C34.7603 15.6667 34.9301 15.5384 34.9834 15.3521C35.0363 15.1662 34.9596 14.9673 34.7949 14.8651L22.2284 7.0651C22.0884 6.97842 21.9116 6.97842 21.7717 7.0651L9.20505 14.8651C9.04037 14.9673 8.96369 15.1662 9.01655 15.3521C9.06982 15.5384 9.23973 15.6667 9.43341 15.6667ZM22 7.94346L33.0469 14.8001H10.9531L22 7.94346Z" fill="#D22807"/>
<path d="M10.7334 29.9666C10.7334 30.2058 10.9275 30.3999 11.1667 30.3999H32.8333C33.0724 30.3999 33.2666 30.2058 33.2666 29.9666C33.2666 29.7274 33.0724 29.5333 32.8333 29.5333H11.1667C10.9275 29.5333 10.7334 29.7274 10.7334 29.9666Z" fill="#D22807"/>
<path d="M34.5665 31.2666H9.43331C9.19414 31.2666 9 31.4607 9 31.6999V32.5666C9 32.8058 9.19414 32.9999 9.43331 32.9999C9.67249 32.9999 9.86663 32.8058 9.86663 32.5666V32.1333H34.1332V32.5666C34.1332 32.8058 34.3273 32.9999 34.5665 32.9999C34.8057 32.9999 34.9998 32.8058 34.9998 32.5666V31.6999C34.9998 31.4607 34.8057 31.2666 34.5665 31.2666Z" fill="#D22807"/>
<path d="M19.8337 27.8C19.5945 27.8 19.4004 27.9941 19.4004 28.2333C19.4004 28.4725 19.5945 28.6666 19.8337 28.6666H24.167C24.4062 28.6666 24.6003 28.4725 24.6003 28.2333C24.6003 27.9941 24.4062 27.8 24.167 27.8H23.7337V17.4H24.167C24.4062 17.4 24.6003 17.2059 24.6003 16.9667C24.6003 16.7276 24.4062 16.5334 24.167 16.5334H19.8337C19.5945 16.5334 19.4004 16.7276 19.4004 16.9667C19.4004 17.2059 19.5945 17.4 19.8337 17.4H20.267V27.8H19.8337ZM21.1337 17.4H22.867V27.8H21.1337V17.4Z" fill="#D22807"/>
<path d="M26.7663 27.8C26.5271 27.8 26.333 27.9941 26.333 28.2333C26.333 28.4725 26.5271 28.6666 26.7663 28.6666H31.0996C31.3388 28.6666 31.5329 28.4725 31.5329 28.2333C31.5329 27.9941 31.3388 27.8 31.0996 27.8H30.6663V17.4H31.0996C31.3388 17.4 31.5329 17.2059 31.5329 16.9667C31.5329 16.7276 31.3388 16.5334 31.0996 16.5334H26.7663C26.5271 16.5334 26.333 16.7276 26.333 16.9667C26.333 17.2059 26.5271 17.4 26.7663 17.4H27.1996V27.8H26.7663ZM28.0663 17.4H29.7996V27.8H28.0663V17.4Z" fill="#D22807"/>
</g>
<defs>
<clipPath id="clip0_643_310">
<rect width="26" height="26" fill="white" transform="translate(9 7)"/>
</clipPath>
</defs>
</svg>
