<svg width="16" height="16" viewBox="0 0 16 16" fill="none" xmlns="http://www.w3.org/2000/svg">
<g clip-path="url(#clip0_613_3418)">
<path fill-rule="evenodd" clip-rule="evenodd" d="M15 8C15 6.14348 14.2625 4.36301 12.9497 3.05025C11.637 1.7375 9.85652 0.999999 8 0.999999C6.14349 0.999999 4.36301 1.7375 3.05025 3.05025C1.7375 4.36301 1 6.14348 1 8C1 9.85651 1.7375 11.637 3.05025 12.9497C4.36301 14.2625 6.14348 15 8 15C9.85652 15 11.637 14.2625 12.9497 12.9497C14.2625 11.637 15 9.85652 15 8ZM6.99382e-07 8C8.8487e-07 5.87827 0.842856 3.84343 2.34315 2.34314C3.84344 0.842853 5.87827 -8.8487e-07 8 -6.99382e-07C10.1217 -5.13895e-07 12.1566 0.842854 13.6569 2.34315C15.1571 3.84344 16 5.87827 16 8C16 10.1217 15.1571 12.1566 13.6569 13.6569C12.1566 15.1571 10.1217 16 8 16C5.87827 16 3.84344 15.1571 2.34315 13.6569C0.842855 12.1566 5.13895e-07 10.1217 6.99382e-07 8ZM7.5 4.5C7.5 4.36739 7.55268 4.24021 7.64645 4.14645C7.74022 4.05268 7.86739 4 8 4C8.13261 4 8.25979 4.05268 8.35355 4.14645C8.44732 4.24021 8.5 4.36739 8.5 4.5L8.5 10.293L10.646 8.146C10.7399 8.05211 10.8672 7.99937 11 7.99937C11.1328 7.99937 11.2601 8.05211 11.354 8.146C11.4479 8.23989 11.5006 8.36722 11.5006 8.5C11.5006 8.63278 11.4479 8.76011 11.354 8.854L8.354 11.854C8.30755 11.9006 8.25238 11.9375 8.19163 11.9627C8.13089 11.9879 8.06577 12.0009 8 12.0009C7.93423 12.0009 7.86911 11.9879 7.80837 11.9627C7.74762 11.9375 7.69245 11.9006 7.646 11.854L4.646 8.854C4.55211 8.76011 4.49937 8.63277 4.49937 8.5C4.49937 8.36722 4.55211 8.23989 4.646 8.146C4.73989 8.05211 4.86723 7.99937 5 7.99937C5.13278 7.99937 5.26011 8.05211 5.354 8.146L7.5 10.293L7.5 4.5Z" fill="#BBBBBB"/>
</g>
<defs>
<clipPath id="clip0_613_3418">
<rect width="16" height="16" fill="white" transform="translate(16 16) rotate(-180)"/>
</clipPath>
</defs>
</svg>
