<svg width="44" height="44" viewBox="0 0 44 44" fill="none" xmlns="http://www.w3.org/2000/svg">
<circle cx="22" cy="22" r="22" fill="#FF4C29" fill-opacity="0.2"/>
<path d="M28.1566 18.6762V12.3459H17.2637V18.6763H28.1566V18.6762ZM18.119 13.2012H27.3013V17.821H18.119V13.2012Z" fill="#D22807"/>
<path d="M26.3874 14.1044H19.0322V14.9597H26.3874V14.1044Z" fill="#D22807"/>
<path d="M26.3874 15.8145H19.0322V16.6698H26.3874V15.8145Z" fill="#D22807"/>
<path d="M31.2997 9H14.9433C13.707 9 12.7012 10.0058 12.7012 11.2422C12.7012 11.2422 12.7013 30.2021 12.7013 30.2023C12.7013 31.4385 13.7071 32.4442 14.9433 32.4442H16.2498V35H19.437V32.4442H31.2994L31.2997 9ZM30.4444 27.9596H15.371V9.8553H30.4444V27.9596ZM14.5157 9.9231V28.0004C14.1655 28.0676 13.8381 28.2177 13.5565 28.4403V11.2422C13.5565 10.6267 13.9597 10.1038 14.5157 9.9231ZM14.9433 31.5889C14.1787 31.5889 13.5566 30.9668 13.5566 30.2023C13.5566 29.8313 13.7009 29.4828 13.9627 29.221C14.2246 28.9592 14.5728 28.815 14.9433 28.815H16.2498V31.5889H14.9433ZM17.1051 34.1447V28.8149H18.5817V34.1447H17.1051ZM30.4441 31.5889H19.4371V28.815H30.4441V31.5889Z" fill="#D22807"/>
</svg>
