<svg width="30" height="30" viewBox="0 0 30 30" fill="none" xmlns="http://www.w3.org/2000/svg">
<g clip-path="url(#clip0_613_2272)">
<path d="M26.6404 21.1856H25.5216V20.0711C25.5216 19.7913 25.2948 19.5645 25.015 19.5645H11.4383C11.1585 19.5645 10.9316 19.7913 10.9316 20.0711V24.4953C10.9316 27.5308 13.4012 30.0003 16.4368 30.0003H20.0165C21.6944 30.0003 23.1985 29.2449 24.209 28.0572L26.7625 26.795C28.0595 26.1539 28.8651 24.8569 28.8651 23.4102C28.8651 22.1835 27.8671 21.1856 26.6404 21.1856ZM24.5083 23.4334H11.9449V22.9606H24.5083V23.4334ZM24.5083 20.5777V21.9474H11.9449V20.5777H24.5083ZM20.0165 28.9871H16.4367C13.9599 28.9871 11.9448 26.972 11.9448 24.4953V24.4467H24.5083V24.4953C24.5083 26.9721 22.4933 28.9871 20.0165 28.9871ZM26.3135 25.8866L25.1588 26.4574C25.3924 25.8475 25.5216 25.1864 25.5216 24.4953V22.1988H26.6404C27.3084 22.1988 27.8519 22.7422 27.8519 23.4102C27.8519 24.4687 27.2624 25.4177 26.3135 25.8866Z" fill="white"/>
<path d="M10.5812 26.8776H2.148V4.89117H17.3696V18.1218C17.3696 18.4015 17.5964 18.6284 17.8762 18.6284C18.156 18.6284 18.3828 18.4015 18.3828 18.1218V4.38455C18.3828 4.10476 18.156 3.87793 17.8762 3.87793H1.64138C1.3616 3.87793 1.13477 4.10476 1.13477 4.38455V27.3842C1.13477 27.664 1.3616 27.8908 1.64138 27.8908H10.5813C10.8611 27.8908 11.0879 27.664 11.0879 27.3842C11.0879 27.1044 10.861 26.8776 10.5812 26.8776Z" fill="white"/>
<path d="M9.13758 6.75271C9.13758 6.47292 8.91075 6.24609 8.63096 6.24609H4.00857C3.72878 6.24609 3.50195 6.47292 3.50195 6.75271V10.6045C3.50195 10.8843 3.72878 11.1111 4.00857 11.1111H8.63096C8.91075 11.1111 9.13758 10.8843 9.13758 10.6045V6.75271ZM8.12434 10.0979H4.51519V7.25933H8.12434V10.0979Z" fill="white"/>
<path d="M8.63096 12.203H4.00857C3.72878 12.203 3.50195 12.4298 3.50195 12.7096C3.50195 12.9894 3.72878 13.2162 4.00857 13.2162H8.63096C8.91075 13.2162 9.13758 12.9894 9.13758 12.7096C9.13758 12.4298 8.91075 12.203 8.63096 12.203Z" fill="white"/>
<path d="M8.63096 14.1982H4.00857C3.72878 14.1982 3.50195 14.4251 3.50195 14.7049C3.50195 14.9846 3.72878 15.2115 4.00857 15.2115H8.63096C8.91075 15.2115 9.13758 14.9846 9.13758 14.7049C9.13758 14.4251 8.91075 14.1982 8.63096 14.1982Z" fill="white"/>
<path d="M8.63096 16.1924H4.00857C3.72878 16.1924 3.50195 16.4192 3.50195 16.699C3.50195 16.9788 3.72878 17.2056 4.00857 17.2056H8.63096C8.91075 17.2056 9.13758 16.9788 9.13758 16.699C9.13758 16.4192 8.91075 16.1924 8.63096 16.1924Z" fill="white"/>
<path d="M8.63096 18.1875H4.00857C3.72878 18.1875 3.50195 18.4143 3.50195 18.6941C3.50195 18.9739 3.72878 19.2007 4.00857 19.2007H8.63096C8.91075 19.2007 9.13758 18.9739 9.13758 18.6941C9.13758 18.4143 8.91075 18.1875 8.63096 18.1875Z" fill="white"/>
<path d="M8.63096 20.1824H4.00857C3.72878 20.1824 3.50195 20.4092 3.50195 20.689C3.50195 20.9688 3.72878 21.1956 4.00857 21.1956H8.63096C8.91075 21.1956 9.13758 20.9688 9.13758 20.689C9.13758 20.4092 8.91075 20.1824 8.63096 20.1824Z" fill="white"/>
<path d="M8.63096 22.1777H4.00857C3.72878 22.1777 3.50195 22.4046 3.50195 22.6844C3.50195 22.9641 3.72878 23.191 4.00857 23.191H8.63096C8.91075 23.191 9.13758 22.9641 9.13758 22.6844C9.13758 22.4046 8.91075 22.1777 8.63096 22.1777Z" fill="white"/>
<path d="M8.63096 24.1719H4.00857C3.72878 24.1719 3.50195 24.3987 3.50195 24.6785C3.50195 24.9583 3.72878 25.1851 4.00857 25.1851H8.63096C8.91075 25.1851 9.13758 24.9583 9.13758 24.6785C9.13758 24.3987 8.91075 24.1719 8.63096 24.1719Z" fill="white"/>
<path d="M15.5089 6.24609H10.8865C10.6067 6.24609 10.3799 6.47292 10.3799 6.75271C10.3799 7.0325 10.6067 7.25933 10.8865 7.25933H15.5089C15.7887 7.25933 16.0155 7.0325 16.0155 6.75271C16.0155 6.47292 15.7887 6.24609 15.5089 6.24609Z" fill="white"/>
<path d="M15.5089 8.24097H10.8865C10.6067 8.24097 10.3799 8.4678 10.3799 8.74759C10.3799 9.02737 10.6067 9.2542 10.8865 9.2542H15.5089C15.7887 9.2542 16.0155 9.02737 16.0155 8.74759C16.0155 8.4678 15.7887 8.24097 15.5089 8.24097Z" fill="white"/>
<path d="M15.5089 10.2363H10.8865C10.6067 10.2363 10.3799 10.4632 10.3799 10.7429C10.3799 11.0227 10.6067 11.2496 10.8865 11.2496H15.5089C15.7887 11.2496 16.0155 11.0227 16.0155 10.7429C16.0155 10.4632 15.7887 10.2363 15.5089 10.2363Z" fill="white"/>
<path d="M15.5089 12.2305H10.8865C10.6067 12.2305 10.3799 12.4573 10.3799 12.7371C10.3799 13.0169 10.6067 13.2437 10.8865 13.2437H15.5089C15.7887 13.2437 16.0155 13.0169 16.0155 12.7371C16.0155 12.4573 15.7887 12.2305 15.5089 12.2305Z" fill="white"/>
<path d="M15.5089 14.3319H10.8865C10.6067 14.3319 10.3799 14.5587 10.3799 14.8385V18.1222C10.3799 18.402 10.6067 18.6288 10.8865 18.6288H15.5089C15.7887 18.6288 16.0155 18.402 16.0155 18.1222V14.8385C16.0155 14.5587 15.7887 14.3319 15.5089 14.3319ZM15.0023 17.6156H11.3931V15.3451H15.0023V17.6156Z" fill="white"/>
<path d="M16.98 2.97777C17.21 3.13705 17.5256 3.07963 17.6849 2.84963C18.481 1.69974 19.7899 1.01324 21.1863 1.01324C23.5327 1.01324 25.4417 2.92218 25.4417 5.26863C25.4417 7.61509 23.5328 9.52396 21.1863 9.52396C20.6116 9.52396 20.0544 9.41149 19.5301 9.18979C19.2724 9.0807 18.9752 9.20134 18.8661 9.45904C18.7572 9.71674 18.8777 10.014 19.1354 10.123C19.7853 10.3978 20.4753 10.5372 21.1863 10.5372C24.0914 10.5372 26.4549 8.17372 26.4549 5.26863C26.4549 2.36348 24.0915 0 21.1863 0C19.4575 0 17.8371 0.849633 16.8518 2.27283C16.6926 2.5029 16.75 2.81849 16.98 2.97777Z" fill="white"/>
<path d="M19.4812 5.77574H21.1854C21.4652 5.77574 21.692 5.54891 21.692 5.26912V3.64138C21.692 3.3616 21.4652 3.13477 21.1854 3.13477C20.9056 3.13477 20.6788 3.3616 20.6788 3.64138V4.7625H19.4812C19.2014 4.7625 18.9746 4.98933 18.9746 5.26912C18.9746 5.54891 19.2014 5.77574 19.4812 5.77574Z" fill="white"/>
</g>
<defs>
<clipPath id="clip0_613_2272">
<rect width="30" height="30" fill="white"/>
</clipPath>
</defs>
</svg>
