<svg width="87" height="87" viewBox="0 0 87 87" fill="none" xmlns="http://www.w3.org/2000/svg">
<path d="M46.4131 47.4483V64H62.9648V47.4483H46.4131ZM61.5855 62.6207H55.3786V53.9407L58.3393 56.9014L59.3145 55.9262L54.6889 51.3007L50.0634 55.9262L51.0386 56.9014L53.9993 53.9407V62.6207H47.7924V48.8276H61.5855V62.6207Z" fill="#FF4C29"/>
<path d="M42.2756 52.9655C41.7052 52.9655 41.1466 52.9545 40.5983 52.9352C40.2659 52.9228 39.9452 52.9014 39.6211 52.8828C39.4162 52.871 39.2052 52.8634 39.0038 52.849C38.5735 52.8179 38.1556 52.7779 37.7425 52.7352C37.6597 52.7262 37.5728 52.7207 37.4907 52.7117C37.0176 52.66 36.5569 52.6007 36.108 52.5352C36.0914 52.5331 36.0742 52.531 36.0583 52.529C33.728 52.1848 31.728 51.66 30.1631 51.0359C30.1514 51.031 30.139 51.0269 30.128 51.0221C29.8425 50.9069 29.5742 50.789 29.3183 50.6676C29.2859 50.6524 29.2514 50.6372 29.219 50.6214C28.9894 50.511 28.7776 50.3972 28.5742 50.2828C28.5238 50.2538 28.4707 50.2255 28.4218 50.1966C28.2452 50.0931 28.0838 49.9869 27.9294 49.8807C27.868 49.8379 27.8052 49.7959 27.748 49.7531C27.6183 49.6572 27.5011 49.56 27.3894 49.4628C27.3259 49.4076 27.2631 49.3524 27.2059 49.2966C27.1142 49.2076 27.0342 49.1186 26.9583 49.0297C26.9031 48.9648 26.8507 48.9 26.8038 48.8345C26.7438 48.751 26.6928 48.6676 26.6473 48.5841C26.6094 48.5145 26.5756 48.4448 26.5466 48.3752C26.5135 48.2931 26.4873 48.211 26.468 48.1297C26.4418 48.0172 26.4135 47.9048 26.4135 47.7931V42.1331C26.4259 42.1441 26.4404 42.1552 26.4528 42.1662C26.6128 42.3076 26.7769 42.4483 26.9618 42.5834C29.5631 44.5455 34.7549 46.069 42.2756 46.069C49.779 46.069 54.9625 44.5524 57.57 42.5972C57.77 42.451 57.9494 42.3 58.1211 42.1469C58.1266 42.1421 58.1328 42.1372 58.1376 42.1324V44.6897C58.1376 45.071 58.4466 45.3793 58.8273 45.3793C59.208 45.3793 59.5169 45.071 59.5169 44.6897V39.8621V39.5172V31.2414V30.8966C59.5169 30.7848 59.4845 30.6828 59.4369 30.5897C58.5949 27.0103 50.939 24 42.2756 24C33.6121 24 25.9562 27.0103 25.1142 30.5897C25.0666 30.6828 25.0342 30.7848 25.0342 30.8966V31.2414V39.5172V39.8621V47.7931V48.1379V56.4138C25.0342 56.5248 25.0631 56.6297 25.1135 56.7228C25.899 60.0559 32.4866 62.0193 38.7762 62.491C38.7935 62.4924 38.8114 62.4931 38.8287 62.4931C39.1866 62.4931 39.4887 62.2179 39.5156 61.8552C39.5445 61.4752 39.259 61.1441 38.8797 61.1159C31.2142 60.5407 26.7473 58.2069 26.4356 56.3021C26.43 56.271 26.4231 56.2414 26.4135 56.2117V50.409C26.4259 50.42 26.4404 50.431 26.4528 50.4421C26.6128 50.5834 26.7769 50.7241 26.9618 50.8593C29.5631 52.8214 34.7549 54.3448 42.2756 54.3448C42.6562 54.3448 42.9652 54.0366 42.9652 53.6552C42.9652 53.2738 42.6562 52.9655 42.2756 52.9655ZM26.828 34.2048C27.0349 34.3676 27.2583 34.5283 27.5004 34.6848C27.5507 34.7172 27.6073 34.749 27.6597 34.7814C27.8625 34.9076 28.0769 35.031 28.3025 35.1524C28.3859 35.1972 28.4694 35.2414 28.5556 35.2855C28.8073 35.4138 29.0714 35.5379 29.3494 35.6593C29.3949 35.6793 29.4362 35.7 29.4825 35.7193C29.8059 35.8566 30.1494 35.9876 30.5066 36.1138C30.6052 36.149 30.7087 36.1821 30.81 36.2166C31.0942 36.3124 31.388 36.4041 31.6921 36.4931C31.8018 36.5248 31.9094 36.5579 32.0218 36.589C32.4252 36.7007 32.8418 36.8069 33.279 36.9048C33.339 36.9186 33.4038 36.9303 33.4645 36.9434C33.85 37.0276 34.25 37.1055 34.6611 37.1779C34.8004 37.2028 34.9418 37.2262 35.0838 37.2497C35.4749 37.3138 35.8776 37.3731 36.2907 37.4269C36.3969 37.4407 36.4983 37.4559 36.6059 37.4697C37.119 37.5317 37.65 37.5848 38.1956 37.6303C38.33 37.6414 38.47 37.6497 38.6066 37.6593C39.0431 37.691 39.4894 37.7172 39.9459 37.7379C40.1121 37.7455 40.2776 37.7531 40.4473 37.7586C41.0425 37.7786 41.648 37.7931 42.2756 37.7931C42.9031 37.7931 43.5087 37.7786 44.1031 37.7586C44.2721 37.7531 44.4376 37.7448 44.6045 37.7379C45.0611 37.7172 45.5073 37.691 45.9438 37.6593C46.0804 37.649 46.2197 37.6414 46.3549 37.6303C46.9004 37.5855 47.4314 37.5317 47.9445 37.4697C48.0521 37.4566 48.1535 37.4407 48.2597 37.4269C48.6728 37.3731 49.0749 37.3138 49.4666 37.2497C49.6087 37.2262 49.75 37.2028 49.8894 37.1779C50.3004 37.1055 50.7004 37.0276 51.0859 36.9434C51.1466 36.9303 51.2114 36.9186 51.2714 36.9048C51.7087 36.8069 52.1252 36.7007 52.5287 36.589C52.6411 36.5579 52.7487 36.5255 52.8583 36.4931C53.1625 36.4048 53.4562 36.3124 53.7404 36.2166C53.8418 36.1821 53.9452 36.149 54.0438 36.1138C54.4011 35.9869 54.7452 35.8559 55.068 35.7193C55.1142 35.7 55.1556 35.6786 55.2011 35.6593C55.479 35.5379 55.7431 35.4138 55.9949 35.2855C56.0811 35.2414 56.1652 35.1972 56.248 35.1524C56.4735 35.0317 56.688 34.9083 56.8907 34.7814C56.9431 34.749 56.9997 34.7172 57.05 34.6848C57.2921 34.5283 57.5156 34.3683 57.7225 34.2048C57.7742 34.1634 57.8204 34.1221 57.8707 34.0807C57.9604 34.0062 58.0549 33.9324 58.1376 33.8572V39.5172C58.1376 39.6297 58.1093 39.7428 58.0825 39.8559C58.0631 39.9366 58.0376 40.0166 58.0052 40.0979C57.9762 40.169 57.9418 40.24 57.9031 40.311C57.8576 40.3931 57.808 40.4752 57.7494 40.5572C57.7018 40.6234 57.648 40.6897 57.5921 40.7566C57.5176 40.8441 57.4383 40.9317 57.3487 41.0186C57.29 41.0759 57.2259 41.1324 57.1611 41.189C57.0507 41.2848 56.9356 41.3807 56.8073 41.4752C56.748 41.5193 56.6831 41.5628 56.6204 41.6062C56.4673 41.7117 56.308 41.8166 56.1335 41.9186C56.0825 41.949 56.028 41.9786 55.9749 42.0083C55.7735 42.1221 55.5631 42.2345 55.3362 42.3441C55.3025 42.36 55.2652 42.3766 55.2307 42.3931C54.9762 42.5131 54.7107 42.631 54.4266 42.7448C54.4135 42.7497 54.3997 42.7552 54.3866 42.76C52.8218 43.3834 50.8238 43.9083 48.4949 44.2524C48.4783 44.2545 48.4604 44.2566 48.4438 44.2593C47.9949 44.3248 47.5349 44.3841 47.0625 44.4359C46.9797 44.4448 46.8928 44.451 46.8094 44.4593C46.3962 44.5021 45.979 44.5421 45.5494 44.5731C45.3473 44.5876 45.1362 44.5952 44.9307 44.6069C44.6073 44.6255 44.2866 44.6476 43.9542 44.6593C43.4045 44.6786 42.8459 44.6897 42.2756 44.6897C41.7052 44.6897 41.1466 44.6786 40.5983 44.6593C40.2659 44.6469 39.9452 44.6255 39.6211 44.6069C39.4162 44.5952 39.2052 44.5876 39.0038 44.5731C38.5735 44.5421 38.1556 44.5021 37.7425 44.4593C37.6597 44.4503 37.5728 44.4448 37.4907 44.4359C37.0176 44.3841 36.5569 44.3248 36.108 44.2593C36.0914 44.2572 36.0742 44.2552 36.0583 44.2531C33.728 43.909 31.728 43.3841 30.1631 42.76C30.1514 42.7552 30.139 42.751 30.128 42.7462C29.8425 42.631 29.5742 42.5131 29.3183 42.3917C29.2859 42.3766 29.2514 42.3614 29.219 42.3455C28.9894 42.2352 28.7776 42.1214 28.5742 42.0069C28.5238 41.9779 28.4707 41.9497 28.4218 41.9207C28.2452 41.8172 28.0838 41.711 27.9294 41.6048C27.868 41.5621 27.8052 41.52 27.748 41.4772C27.6183 41.3814 27.5011 41.2841 27.3894 41.1869C27.3259 41.1317 27.2631 41.0766 27.2059 41.0207C27.1142 40.9317 27.0342 40.8428 26.9583 40.7538C26.9031 40.689 26.8507 40.6241 26.8038 40.5586C26.7438 40.4752 26.6928 40.3917 26.6473 40.3083C26.6094 40.2386 26.5756 40.169 26.5466 40.0993C26.5135 40.0172 26.4873 39.9352 26.468 39.8538C26.4418 39.7414 26.4135 39.629 26.4135 39.5172V33.8572C26.4962 33.9324 26.5907 34.0062 26.6804 34.0807C26.73 34.1221 26.7762 34.1634 26.828 34.2048ZM42.2756 25.3793C50.7859 25.3793 57.6914 28.3883 58.1169 30.9897C58.1176 30.9959 58.1149 31.0014 58.1162 31.0069C58.1294 31.0841 58.1383 31.1628 58.1383 31.2414C58.1383 33.6883 51.6238 36.4138 42.2762 36.4138C32.9287 36.4138 26.4142 33.6883 26.4142 31.2414C26.4142 31.1634 26.4231 31.0855 26.4362 31.0083C26.4369 31.0021 26.4342 30.9959 26.4356 30.9897C26.8597 28.3883 33.7645 25.3793 42.2756 25.3793Z" fill="#FF4C29"/>
<circle cx="43.5" cy="43.5" r="43" stroke="#FF4C29"/>
</svg>
