<svg width="87" height="87" viewBox="0 0 87 87" fill="none" xmlns="http://www.w3.org/2000/svg">
<path d="M62.7285 51.3771L61.7152 51.1827C61.2401 51.0914 60.8661 50.7806 60.6892 50.3293C60.5117 49.8788 60.5748 49.3967 60.8612 49.0065L61.4976 48.1392C61.7026 47.8599 61.6731 47.4725 61.4275 47.2276L60.0527 45.8536C59.8148 45.6164 59.4408 45.5806 59.1629 45.7686L58.3089 46.3469C57.9089 46.6199 57.4233 46.6634 56.9791 46.4697C56.5355 46.2767 56.2387 45.8907 56.165 45.4114L56.0015 44.3483C55.9496 44.0065 55.6548 43.7539 55.3089 43.7539H53.365C53.0289 43.7539 52.739 43.9932 52.6759 44.3237L52.4247 45.6325C52.3355 46.0971 52.0331 46.4676 51.5959 46.6486C51.1573 46.8318 50.6829 46.7813 50.2906 46.516L49.1875 45.7693C48.9089 45.5813 48.5355 45.6171 48.2976 45.8543L46.9229 47.2283C46.6773 47.4732 46.6478 47.8599 46.8527 48.1399L47.4892 49.0072C47.7755 49.3974 47.8387 49.8795 47.6612 50.33C47.4843 50.7813 47.1103 51.0922 46.6352 51.1834L45.6219 51.3778C45.292 51.4409 45.0527 51.73 45.0527 52.0669V54.0107C45.0527 54.3567 45.3054 54.6515 45.6478 54.7041L46.711 54.8676C47.1903 54.9413 47.5755 55.2381 47.7692 55.6816C47.9629 56.1258 47.918 56.61 47.6464 57.0114L47.0682 57.8655C46.8794 58.1434 46.9152 58.5174 47.1531 58.7553L48.5271 60.13C48.7713 60.375 49.158 60.4037 49.4387 60.2002L50.3061 59.5637C50.6955 59.2774 51.179 59.215 51.6289 59.3918C52.0801 59.5686 52.391 59.9427 52.4822 60.4178L52.6766 61.4311C52.7398 61.7602 53.0289 61.9995 53.3657 61.9995H55.3096C55.6555 61.9995 55.9503 61.7469 56.0029 61.4044L56.118 60.6571C56.1917 60.1743 56.5054 59.7757 56.9552 59.589C57.4071 59.4023 57.9103 59.4634 58.3033 59.7518L58.9131 60.1995C59.1938 60.4051 59.5805 60.375 59.8247 60.1293L61.1987 58.7546C61.4366 58.5167 61.4724 58.1434 61.2836 57.8648L60.7054 57.0107C60.4338 56.61 60.3889 56.1251 60.5826 55.6809C60.7755 55.2374 61.1615 54.9406 61.6408 54.8669L62.704 54.7034C63.0457 54.6508 63.2983 54.356 63.2983 54.01V52.0662C63.2983 51.73 63.0591 51.4409 62.7285 51.3771ZM61.8948 53.4086L61.4268 53.4809C60.4766 53.6269 59.6801 54.2402 59.2962 55.1209C58.9117 56.0023 59.0043 57.003 59.5433 57.7981L59.7966 58.1722L59.2576 58.7111L59.1334 58.6199C58.3405 58.0395 57.3264 57.9167 56.4183 58.2922C55.5103 58.6683 54.8801 59.4725 54.7306 60.443L54.7075 60.596H53.9454L53.8605 60.1518C53.6787 59.2072 53.0359 58.4346 52.1419 58.0837C51.2471 57.7343 50.2506 57.8634 49.4752 58.4304L49.0934 58.7104L48.5545 58.1715L48.8078 57.7974C49.3468 57.0016 49.4387 56.0009 49.0548 55.1202C48.671 54.2395 47.8738 53.6262 46.9243 53.4802L46.4562 53.4086V52.6465L46.9005 52.5616C47.845 52.3799 48.6176 51.7371 48.9685 50.843C49.3194 49.9483 49.1896 48.9518 48.6219 48.1764L48.3419 47.7946L48.8808 47.2557L49.5047 47.6781C50.2815 48.2058 51.2661 48.3048 52.1341 47.9455C53.0022 47.5855 53.6268 46.8199 53.8043 45.8971L53.9454 45.1574H54.7075L54.7798 45.6255C54.9257 46.5757 55.5391 47.3722 56.4198 47.756C57.3012 48.1399 58.3019 48.0479 59.0969 47.509L59.471 47.2557L60.0099 47.7946L59.7299 48.1764C59.1615 48.9511 59.0324 49.9476 59.3833 50.843C59.7341 51.7371 60.5075 52.3799 61.4513 52.5616L61.8948 52.6465V53.4086Z" fill="#FF4C29"/>
<path d="M54.1758 49.3682C52.241 49.3682 50.667 50.9422 50.667 52.8769C50.667 54.8117 52.241 56.3857 54.1758 56.3857C56.1105 56.3857 57.6845 54.8117 57.6845 52.8769C57.6845 50.9422 56.1105 49.3682 54.1758 49.3682ZM54.1758 54.9822C53.0151 54.9822 52.0705 54.0376 52.0705 52.8769C52.0705 51.7162 53.0151 50.7717 54.1758 50.7717C55.3365 50.7717 56.281 51.7162 56.281 52.8769C56.281 54.0376 55.3365 54.9822 54.1758 54.9822Z" fill="#FF4C29"/>
<path d="M42.246 50.7719C41.6657 50.7719 41.0972 50.7607 40.5393 50.7411C40.1983 50.7284 39.8692 50.7067 39.5365 50.687C39.3309 50.6751 39.119 50.6674 38.9169 50.6526C38.4748 50.6211 38.0453 50.5796 37.6207 50.5354C37.5407 50.527 37.4572 50.5214 37.3779 50.513C36.8916 50.4597 36.4179 50.3986 35.9562 50.3312C35.9443 50.3298 35.9323 50.3284 35.9204 50.3263C33.545 49.9754 31.5064 49.44 29.9127 48.8042C29.9043 48.8014 29.8958 48.7979 29.8874 48.7944C29.5934 48.6765 29.3176 48.5544 29.0551 48.4302C29.025 48.4154 28.9927 48.4014 28.9625 48.3867C28.7267 48.273 28.5085 48.1565 28.2993 48.0379C28.2502 48.0098 28.1983 47.9825 28.1506 47.9537C27.9688 47.847 27.8032 47.7382 27.6446 47.6288C27.5843 47.5867 27.5218 47.5446 27.4643 47.5025C27.3302 47.4035 27.2102 47.3039 27.0951 47.2035C27.0327 47.1481 26.9702 47.0933 26.9127 47.0379C26.8186 46.9467 26.7358 46.8547 26.6579 46.7628C26.6032 46.6982 26.5506 46.633 26.5043 46.5684C26.4425 46.4821 26.3899 46.3958 26.3429 46.3095C26.305 46.24 26.2713 46.1705 26.2425 46.1011C26.2081 46.0161 26.1807 45.9312 26.1611 45.847C26.1344 45.7354 26.1057 45.6218 26.1057 45.5088V39.7495C26.1253 39.7677 26.1499 39.7853 26.1702 39.8035C26.3239 39.9375 26.479 40.0716 26.6544 40.2007C29.2979 42.2007 34.5843 43.7544 42.246 43.7544C49.8762 43.7544 55.1485 42.2133 57.8032 40.226C58.0151 40.0716 58.206 39.9123 58.3857 39.7502L58.3864 42.3509C58.3864 42.7389 58.7 43.0526 59.0881 43.0526C59.4762 43.0526 59.7899 42.7389 59.7899 42.3509V37.4386V37.0877V28.6667V28.3158C59.7899 28.1881 59.7464 28.0751 59.6874 27.9719C58.8748 24.9614 52.8264 22 42.246 22C31.6657 22 25.6165 24.9614 24.8046 27.9719C24.7457 28.0751 24.7021 28.1881 24.7021 28.3158V28.6667V37.0877V37.4386V45.5088V45.8596V54.2807C24.7021 54.3937 24.7316 54.5004 24.7829 54.5951C25.5821 57.9867 32.2853 59.9846 38.6846 60.4646C38.7021 60.466 38.7204 60.4667 38.7379 60.4667C39.1021 60.4667 39.4095 60.1867 39.4369 59.8175C39.4657 59.4309 39.1765 59.094 38.7899 59.0653C30.9906 58.48 26.4453 56.1053 26.1281 54.167C26.1225 54.1354 26.1155 54.1053 26.1057 54.0751V48.1705C26.1253 48.1888 26.1499 48.2063 26.1702 48.2246C26.3239 48.3586 26.479 48.4926 26.6544 48.6218C29.2979 50.6218 34.5843 52.1754 42.246 52.1754C42.6341 52.1754 42.9478 51.8618 42.9478 51.4737C42.9478 51.0856 42.6341 50.7719 42.246 50.7719ZM26.5274 31.6821C26.7379 31.8477 26.9653 32.0112 27.2116 32.1705C27.2629 32.2035 27.3204 32.2358 27.3737 32.2688C27.58 32.3972 27.7983 32.5228 28.0278 32.6463C28.1127 32.6919 28.1976 32.7368 28.286 32.7818C28.5421 32.9123 28.8109 33.0386 29.0937 33.1621C29.14 33.1825 29.1821 33.2035 29.2285 33.2232C29.5576 33.3628 29.9071 33.4961 30.2713 33.6246C30.3716 33.6604 30.4769 33.694 30.58 33.7291C30.8692 33.8267 31.1681 33.92 31.4776 34.0105C31.5892 34.0428 31.6986 34.0765 31.813 34.1081C32.2236 34.2218 32.6474 34.3298 33.0923 34.4295C33.1534 34.4435 33.2193 34.4554 33.2811 34.4688C33.6734 34.5544 34.0804 34.6337 34.4986 34.7074C34.6404 34.7326 34.7843 34.7565 34.9288 34.7804C35.3267 34.8456 35.7365 34.906 36.1569 34.9607C36.265 34.9747 36.3688 34.9902 36.4776 35.0042C36.9997 35.0674 37.5393 35.1214 38.0951 35.1677C38.232 35.1789 38.3744 35.1874 38.5134 35.1972C38.9576 35.2295 39.4116 35.2561 39.8762 35.2772C40.0453 35.2849 40.2137 35.2926 40.3864 35.2982C40.9913 35.3186 41.6074 35.3333 42.246 35.3333C42.8846 35.3333 43.5007 35.3186 44.1057 35.2982C44.2776 35.2926 44.446 35.2842 44.6158 35.2772C45.0804 35.2561 45.5344 35.2295 45.9786 35.1972C46.1176 35.1867 46.26 35.1789 46.3969 35.1677C46.952 35.1221 47.4923 35.0674 48.0144 35.0042C48.1239 34.9909 48.2271 34.9747 48.3351 34.9607C48.7555 34.906 49.1646 34.8456 49.5632 34.7804C49.7078 34.7565 49.8516 34.7326 49.9934 34.7074C50.4116 34.6337 50.8186 34.5544 51.2109 34.4688C51.2727 34.4554 51.3386 34.4435 51.3997 34.4295C51.8446 34.3298 52.2685 34.2218 52.679 34.1081C52.7934 34.0765 52.9029 34.0435 53.0144 34.0105C53.3239 33.9207 53.6229 33.8267 53.912 33.7291C54.0151 33.694 54.1204 33.6604 54.2207 33.6246C54.5843 33.4954 54.9344 33.3621 55.2636 33.2232C55.3106 33.2035 55.3527 33.1818 55.3983 33.1621C55.6811 33.0386 55.9499 32.9123 56.206 32.7818C56.2937 32.7368 56.3793 32.6919 56.4643 32.6463C56.6937 32.5235 56.912 32.3979 57.1183 32.2688C57.1716 32.2358 57.2292 32.2035 57.2804 32.1705C57.5267 32.0112 57.7541 31.8484 57.9646 31.6821C58.0172 31.64 58.0643 31.5979 58.1148 31.5558C58.206 31.48 58.3021 31.4049 58.3864 31.3284V37.0877C58.3864 37.2007 58.3576 37.3144 58.3309 37.4281C58.3113 37.513 58.2839 37.5972 58.2495 37.6821C58.2214 37.7516 58.1871 37.8211 58.1492 37.8905C58.1021 37.9768 58.0495 38.0632 57.9878 38.1495C57.9414 38.214 57.8888 38.2793 57.8341 38.3439C57.7562 38.4358 57.6734 38.5277 57.5793 38.6189C57.5225 38.6744 57.46 38.7291 57.3969 38.7846C57.2818 38.8849 57.1618 38.9846 57.0278 39.0835C56.9702 39.1263 56.9085 39.1677 56.8474 39.2098C56.6888 39.3193 56.5232 39.4281 56.3414 39.5347C56.2937 39.5635 56.2425 39.5909 56.1927 39.6189C55.9843 39.7368 55.7653 39.8533 55.5295 39.9677C55.4993 39.9825 55.4678 39.9965 55.4369 40.0112C55.1737 40.1354 54.8986 40.2575 54.6046 40.3754C54.5962 40.3789 54.5878 40.3818 54.5793 40.3853C52.9857 41.0218 50.9471 41.5572 48.5716 41.9074C48.5597 41.9088 48.5478 41.9102 48.5358 41.9123C48.0741 41.9804 47.6004 42.0414 47.1141 42.094C47.0348 42.1025 46.9513 42.1081 46.8713 42.1165C46.4467 42.1607 46.0165 42.2014 45.5751 42.2337C45.373 42.2484 45.1611 42.2561 44.9555 42.2681C44.6229 42.2877 44.2937 42.3095 43.9527 42.3221C43.3948 42.3396 42.8264 42.3509 42.246 42.3509C41.6657 42.3509 41.0972 42.3396 40.5393 42.32C40.1983 42.3074 39.8692 42.2856 39.5365 42.266C39.3309 42.254 39.119 42.2463 38.9169 42.2316C38.4748 42.2 38.0453 42.1586 37.6207 42.1144C37.5407 42.106 37.4572 42.1004 37.3779 42.0919C36.8916 42.0386 36.4179 41.9775 35.9562 41.9102C35.9443 41.9088 35.9323 41.9074 35.9204 41.9053C33.545 41.5544 31.5064 41.0189 29.9127 40.3832C29.9043 40.3804 29.8958 40.3768 29.8874 40.3733C29.5934 40.2554 29.3176 40.1333 29.0551 40.0091C29.025 39.9944 28.9927 39.9804 28.9625 39.9656C28.7267 39.8519 28.5085 39.7354 28.2993 39.6168C28.2502 39.5888 28.1983 39.5614 28.1506 39.5326C27.9688 39.426 27.8032 39.3172 27.6446 39.2077C27.5843 39.1656 27.5218 39.1235 27.4643 39.0814C27.3302 38.9825 27.2102 38.8828 27.0951 38.7825C27.0327 38.727 26.9702 38.6723 26.9127 38.6168C26.8186 38.5256 26.7358 38.4337 26.6579 38.3418C26.6032 38.2772 26.5506 38.2119 26.5043 38.1474C26.4425 38.0611 26.3899 37.9747 26.3429 37.8884C26.305 37.8189 26.2713 37.7495 26.2425 37.68C26.2081 37.5951 26.1807 37.5102 26.1611 37.426C26.1344 37.3144 26.1057 37.2007 26.1057 37.0877V31.3284C26.1899 31.4049 26.286 31.48 26.3772 31.5558C26.4278 31.5979 26.4748 31.64 26.5274 31.6821ZM42.246 23.4035C51.7583 23.4035 58.3864 26.1768 58.3864 28.6667C58.3864 31.1565 51.7583 33.9298 42.246 33.9298C32.7337 33.9298 26.1057 31.1565 26.1057 28.6667C26.1057 26.1768 32.7337 23.4035 42.246 23.4035Z" fill="#FF4C29"/>
<circle cx="43.5" cy="43.5" r="43" stroke="#FF4C29"/>
</svg>
