<svg width="87" height="87" viewBox="0 0 87 87" fill="none" xmlns="http://www.w3.org/2000/svg">
<circle cx="43.5" cy="43.5" r="43.5" fill="#FF4C29"/>
<g clip-path="url(#clip0_647_305)">
<path d="M43.9993 21C43.2238 21 42.5952 21.6286 42.5952 22.4041V49.4408L37.7952 44.6408C37.2483 44.0939 36.3585 44.0939 35.8116 44.6408C35.2646 45.1878 35.2646 46.0776 35.8116 46.6245L43.0034 53.8163C43.2728 54.0857 43.632 54.2245 43.9912 54.2245C44.3503 54.2245 44.7095 54.0857 44.9789 53.8163L52.1708 46.6245C52.7177 46.0776 52.7177 45.1878 52.1708 44.6408C51.6238 44.0939 50.734 44.0939 50.1871 44.6408L45.3871 49.4408V22.3959C45.3952 21.6204 44.7748 21 43.9993 21Z" fill="white"/>
<path d="M61.7222 59.6044V51.4656C61.7222 50.6901 61.0937 50.0615 60.3182 50.0615C59.5426 50.0615 58.9141 50.6901 58.9141 51.4656V58.2085H29.0773V51.4656C29.0773 50.6901 28.4488 50.0615 27.6814 50.0615C26.9141 50.0615 26.2773 50.6901 26.2773 51.4656V59.6044C26.2773 60.3799 26.9059 61.0003 27.6814 61.0003H60.3182C61.0937 61.0003 61.7222 60.3799 61.7222 59.6044Z" fill="white"/>
</g>
<defs>
<clipPath id="clip0_647_305">
<rect width="40" height="40" fill="white" transform="translate(24 21)"/>
</clipPath>
</defs>
</svg>
