<svg width="64" height="57" viewBox="0 0 64 57" fill="none" xmlns="http://www.w3.org/2000/svg">
<path d="M2.5877 1H1V2.5877H2.5877V1Z" stroke="#8F9294" stroke-width="1.0782" stroke-miterlimit="10"/>
<path d="M14.7215 1H13.1338V2.5877H14.7215V1Z" stroke="#8F9294" stroke-width="1.0782" stroke-miterlimit="10"/>
<path d="M26.8514 1H25.2637V2.5877H26.8514V1Z" stroke="#8F9294" stroke-width="1.0782" stroke-miterlimit="10"/>
<path d="M38.9852 1H37.3975V2.5877H38.9852V1Z" stroke="#8F9294" stroke-width="1.0782" stroke-miterlimit="10"/>
<path d="M51.119 1H49.5312V2.5877H51.119V1Z" stroke="#8F9294" stroke-width="1.0782" stroke-miterlimit="10"/>
<path d="M63.2479 1H61.6602V2.5877H63.2479V1Z" stroke="#8F9294" stroke-width="1.0782" stroke-miterlimit="10"/>
<path d="M2.5877 9.8457H1V11.4334H2.5877V9.8457Z" stroke="#8F9294" stroke-width="1.0782" stroke-miterlimit="10"/>
<path d="M14.7215 9.8457H13.1338V11.4334H14.7215V9.8457Z" stroke="#FF2C2C" stroke-width="1.0782" stroke-miterlimit="10"/>
<path d="M26.8514 9.8457H25.2637V11.4334H26.8514V9.8457Z" stroke="#8F9294" stroke-width="1.0782" stroke-miterlimit="10"/>
<path d="M38.9852 9.8457H37.3975V11.4334H38.9852V9.8457Z" stroke="#8F9294" stroke-width="1.0782" stroke-miterlimit="10"/>
<path d="M51.119 9.8457H49.5312V11.4334H51.119V9.8457Z" stroke="#8F9294" stroke-width="1.0782" stroke-miterlimit="10"/>
<path d="M63.2479 9.8457H61.6602V11.4334H63.2479V9.8457Z" stroke="#8F9294" stroke-width="1.0782" stroke-miterlimit="10"/>
<path d="M2.5877 18.6892H1V20.2769H2.5877V18.6892Z" stroke="#8F9294" stroke-width="1.0782" stroke-miterlimit="10"/>
<path d="M14.7215 18.689H13.1338V20.2767H14.7215V18.689Z" stroke="#8F9294" stroke-width="1.0782" stroke-miterlimit="10"/>
<path d="M26.8514 18.689H25.2637V20.2767H26.8514V18.689Z" stroke="#8F9294" stroke-width="1.0782" stroke-miterlimit="10"/>
<path d="M38.9852 18.689H37.3975V20.2767H38.9852V18.689Z" stroke="#FF2C2C" stroke-width="1.0782" stroke-miterlimit="10"/>
<path d="M51.119 18.689H49.5312V20.2767H51.119V18.689Z" stroke="#8F9294" stroke-width="1.0782" stroke-miterlimit="10"/>
<path d="M63.2479 18.689H61.6602V20.2767H63.2479V18.689Z" stroke="#8F9294" stroke-width="1.0782" stroke-miterlimit="10"/>
<path d="M2.5877 27.531H1V29.1187H2.5877V27.531Z" stroke="#8F9294" stroke-width="1.0782" stroke-miterlimit="10"/>
<path d="M14.7215 27.5308H13.1338V29.1185H14.7215V27.5308Z" stroke="#8F9294" stroke-width="1.0782" stroke-miterlimit="10"/>
<path d="M26.8514 27.5308H25.2637V29.1185H26.8514V27.5308Z" stroke="#8F9294" stroke-width="1.0782" stroke-miterlimit="10"/>
<path d="M38.9852 27.5308H37.3975V29.1185H38.9852V27.5308Z" stroke="#8F9294" stroke-width="1.0782" stroke-miterlimit="10"/>
<path d="M51.119 27.5308H49.5312V29.1185H51.119V27.5308Z" stroke="#8F9294" stroke-width="1.0782" stroke-miterlimit="10"/>
<path d="M63.2479 27.5308H61.6602V29.1185H63.2479V27.5308Z" stroke="#8F9294" stroke-width="1.0782" stroke-miterlimit="10"/>
<path d="M2.5877 36.3779H1V37.9656H2.5877V36.3779Z" stroke="#8F9294" stroke-width="1.0782" stroke-miterlimit="10"/>
<path d="M14.7215 36.3779H13.1338V37.9656H14.7215V36.3779Z" fill="#0F1027"/>
<path d="M26.8514 36.3779H25.2637V37.9656H26.8514V36.3779Z" fill="#0F1027"/>
<path d="M38.9852 36.3779H37.3975V37.9656H38.9852V36.3779Z" stroke="#8F9294" stroke-width="1.0782" stroke-miterlimit="10"/>
<path d="M51.119 36.3779H49.5312V37.9656H51.119V36.3779Z" stroke="#FF2C2C" stroke-width="1.0782" stroke-miterlimit="10"/>
<path d="M63.2479 36.3779H61.6602V37.9656H63.2479V36.3779Z" stroke="#8F9294" stroke-width="1.0782" stroke-miterlimit="10"/>
<path d="M2.5877 45.2197H1V46.8074H2.5877V45.2197Z" stroke="#8F9294" stroke-width="1.0782" stroke-miterlimit="10"/>
<path d="M14.7215 45.2197H13.1338V46.8074H14.7215V45.2197Z" stroke="#8F9294" stroke-width="1.0782" stroke-miterlimit="10"/>
<path d="M26.8514 45.2197H25.2637V46.8074H26.8514V45.2197Z" stroke="#8F9294" stroke-width="1.0782" stroke-miterlimit="10"/>
<path d="M38.9852 45.2197H37.3975V46.8074H38.9852V45.2197Z" fill="#0F1027"/>
<path d="M51.119 45.2197H49.5312V46.8074H51.119V45.2197Z" stroke="#8F9294" stroke-width="1.0782" stroke-miterlimit="10"/>
<path d="M63.2479 45.2197H61.6602V46.8074H63.2479V45.2197Z" stroke="#8F9294" stroke-width="1.0782" stroke-miterlimit="10"/>
<path d="M2.5877 54.0615H1V55.6492H2.5877V54.0615Z" stroke="#8F9294" stroke-width="1.0782" stroke-miterlimit="10"/>
<path d="M14.7215 54.0615H13.1338V55.6492H14.7215V54.0615Z" stroke="#8F9294" stroke-width="1.0782" stroke-miterlimit="10"/>
<path d="M26.8514 54.0615H25.2637V55.6492H26.8514V54.0615Z" stroke="#8F9294" stroke-width="1.0782" stroke-miterlimit="10"/>
<path d="M38.9852 54.0615H37.3975V55.6492H38.9852V54.0615Z" stroke="#8F9294" stroke-width="1.0782" stroke-miterlimit="10"/>
<path d="M51.119 54.0615H49.5312V55.6492H51.119V54.0615Z" fill="#0F1027"/>
<path d="M63.2479 54.0615H61.6602V55.6492H63.2479V54.0615Z" stroke="#8F9294" stroke-width="1.0782" stroke-miterlimit="10"/>
</svg>
