<svg width="14" height="13" viewBox="0 0 14 13" fill="none" xmlns="http://www.w3.org/2000/svg">
<path d="M6.53497 7.02832C7.03758 7.02832 7.44396 7.43546 7.44396 7.93904V11.9569C7.44396 12.4605 7.03758 12.8676 6.53497 12.8676C6.03235 12.8676 5.62598 12.4605 5.62598 11.9569V7.93904C5.62598 7.43546 6.03235 7.02832 6.53497 7.02832Z" fill="#6B5EFF"/>
<path d="M6.53497 0C7.03758 0 7.44396 0.407144 7.44396 0.910719V4.9286C7.44396 5.43218 7.03758 5.83932 6.53497 5.83932C6.03235 5.83932 5.62598 5.43218 5.62598 4.9286V0.910719C5.62598 0.407144 6.03235 0 6.53497 0Z" fill="#6B5EFF"/>
<path d="M0.908991 5.51782H4.51284C5.01545 5.51782 5.42183 5.92497 5.42183 6.42855C5.42183 6.93212 5.01545 7.33927 4.51284 7.33927H0.908991C0.406376 7.33927 0 6.93212 0 6.42855C0 5.92497 0.406376 5.51782 0.908991 5.51782Z" fill="#6B5EFF"/>
<path d="M8.56618 5.51782H12.1701C12.6727 5.51782 13.079 5.92497 13.079 6.42855C13.079 6.93212 12.6727 7.33927 12.1701 7.33927H8.56618C8.06357 7.33927 7.65723 6.93212 7.65723 6.42855C7.65723 5.92497 8.06357 5.51782 8.56618 5.51782Z" fill="#6B5EFF"/>
</svg>
