<svg width="33" height="33" viewBox="0 0 33 33" fill="none" xmlns="http://www.w3.org/2000/svg">
<circle cx="16.5" cy="16.5" r="16.5" fill="#695C49"/>
<path d="M18.4353 20.0825L19.6953 18.8225C19.865 18.6549 20.0797 18.5402 20.3134 18.4923C20.547 18.4443 20.7896 18.4653 21.0116 18.5525L22.5472 19.1656C22.7715 19.2567 22.9639 19.4121 23.1 19.6123C23.2361 19.8125 23.31 20.0486 23.3122 20.2906V23.1031C23.3109 23.2678 23.2763 23.4306 23.2104 23.5815C23.1446 23.7325 23.0488 23.8685 22.929 23.9815C22.8092 24.0945 22.6677 24.1821 22.5132 24.239C22.3586 24.2959 22.1942 24.3209 22.0297 24.3125C11.2691 23.6431 9.0978 14.5306 8.68718 11.0431C8.66812 10.8719 8.68553 10.6985 8.73828 10.5345C8.79103 10.3704 8.87791 10.2194 8.99322 10.0914C9.10852 9.96331 9.24963 9.86111 9.40727 9.79151C9.5649 9.7219 9.73549 9.68647 9.9078 9.68752H12.6247C12.8671 9.68824 13.1038 9.76147 13.3043 9.8978C13.5048 10.0341 13.6599 10.2273 13.7497 10.4525L14.3628 11.9881C14.4529 12.2092 14.4759 12.452 14.4289 12.6861C14.3819 12.9202 14.267 13.1353 14.0984 13.3044L12.8384 14.5644C12.8384 14.5644 13.5641 19.475 18.4353 20.0825Z" fill="#D2CEC8"/>
</svg>
