<svg width="43" height="43" viewBox="0 0 43 43" fill="none" xmlns="http://www.w3.org/2000/svg">
<path d="M32.0617 17.3383C31.9422 16.8931 31.7078 16.487 31.382 16.1609C31.0563 15.8347 30.6505 15.5998 30.2055 15.4797C28.5672 15.0391 22 15.0391 22 15.0391C22 15.0391 15.4328 15.0391 13.7945 15.4773C13.3493 15.5971 12.9433 15.8318 12.6175 16.1581C12.2917 16.4843 12.0574 16.8905 11.9383 17.3359C11.5 18.9766 11.5 22.3984 11.5 22.3984C11.5 22.3984 11.5 25.8203 11.9383 27.4586C12.1797 28.3633 12.8922 29.0758 13.7945 29.3172C15.4328 29.7578 22 29.7578 22 29.7578C22 29.7578 28.5672 29.7578 30.2055 29.3172C31.1102 29.0758 31.8203 28.3633 32.0617 27.4586C32.5 25.8203 32.5 22.3984 32.5 22.3984C32.5 22.3984 32.5 18.9766 32.0617 17.3383ZM19.9141 25.5391V19.2578L25.3516 22.375L19.9141 25.5391Z" fill="#2E2E2E"/>
<circle cx="21.5" cy="21.5" r="21" stroke="#2E2E2E"/>
</svg>
