<svg width="33" height="33" viewBox="0 0 33 33" fill="none" xmlns="http://www.w3.org/2000/svg">
<circle cx="16.5" cy="16.5" r="16.5" fill="#695C49"/>
<path d="M22.8337 10.333H11.167C10.504 10.333 9.86807 10.5964 9.39923 11.0652C8.93038 11.5341 8.66699 12.17 8.66699 12.833V21.1663C8.66699 21.8294 8.93038 22.4653 9.39923 22.9341C9.86807 23.4029 10.504 23.6663 11.167 23.6663H22.8337C23.4967 23.6663 24.1326 23.4029 24.6014 22.9341C25.0703 22.4653 25.3337 21.8294 25.3337 21.1663V12.833C25.3337 12.17 25.0703 11.5341 24.6014 11.0652C24.1326 10.5964 23.4967 10.333 22.8337 10.333ZM22.8337 11.9997L17.417 15.7247C17.2903 15.7978 17.1466 15.8363 17.0003 15.8363C16.854 15.8363 16.7103 15.7978 16.5837 15.7247L11.167 11.9997H22.8337Z" fill="#D2CEC8"/>
</svg>
