<svg width="14" height="13" viewBox="0 0 14 13" fill="none" xmlns="http://www.w3.org/2000/svg">
<path d="M6.53497 7.02881C7.03758 7.02881 7.44396 7.43596 7.44396 7.93954V11.9574C7.44396 12.461 7.03758 12.8681 6.53497 12.8681C6.03235 12.8681 5.62598 12.461 5.62598 11.9574V7.93954C5.62598 7.43596 6.03235 7.02881 6.53497 7.02881Z" fill="#FF4C29"/>
<path d="M6.53497 0C7.03758 0 7.44396 0.407144 7.44396 0.910719V4.9286C7.44396 5.43217 7.03758 5.83932 6.53497 5.83932C6.03235 5.83932 5.62598 5.43217 5.62598 4.9286V0.910719C5.62598 0.407144 6.03235 0 6.53497 0Z" fill="#FF4C29"/>
<path d="M0.908991 5.51782H4.51284C5.01545 5.51782 5.42183 5.92497 5.42183 6.42855C5.42183 6.93212 5.01545 7.33926 4.51284 7.33926H0.908991C0.406376 7.33926 0 6.93212 0 6.42855C0 5.92497 0.406376 5.51782 0.908991 5.51782Z" fill="#FF4C29"/>
<path d="M8.55642 5.51782H12.1603C12.6629 5.51782 13.0693 5.92497 13.0693 6.42855C13.0693 6.93212 12.6629 7.33926 12.1603 7.33926H8.55642C8.0538 7.33926 7.64746 6.93212 7.64746 6.42855C7.64746 5.92497 8.0645 5.51782 8.55642 5.51782Z" fill="#FF4C29"/>
</svg>
