<svg width="33" height="33" viewBox="0 0 33 33" fill="none" xmlns="http://www.w3.org/2000/svg">
<circle cx="16.5" cy="16.5" r="16.5" fill="#695C49"/>
<path d="M16 7.375C13.995 7.37737 12.0729 8.17489 10.6551 9.59262C9.23739 11.0103 8.43987 12.9325 8.43751 14.9375C8.43511 16.576 8.97031 18.17 9.96101 19.475C9.96101 19.475 10.1673 19.7466 10.2009 19.7858L16 26.625L21.8018 19.7823C21.8321 19.7459 22.039 19.475 22.039 19.475L22.0397 19.4729C23.0299 18.1685 23.5649 16.5752 23.5625 14.9375C23.5601 12.9325 22.7626 11.0103 21.3449 9.59262C19.9272 8.17489 18.005 7.37737 16 7.375ZM16 17.6875C15.4561 17.6875 14.9244 17.5262 14.4722 17.224C14.02 16.9219 13.6675 16.4924 13.4593 15.9899C13.2512 15.4874 13.1967 14.9344 13.3028 14.401C13.409 13.8676 13.6709 13.3776 14.0555 12.993C14.4401 12.6084 14.9301 12.3464 15.4635 12.2403C15.997 12.1342 16.5499 12.1887 17.0524 12.3968C17.5549 12.605 17.9844 12.9574 18.2865 13.4097C18.5887 13.8619 18.75 14.3936 18.75 14.9375C18.7491 15.6666 18.4591 16.3655 17.9435 16.881C17.428 17.3966 16.7291 17.6866 16 17.6875Z" fill="#D2CEC8"/>
</svg>
