<svg width="43" height="43" viewBox="0 0 43 43" fill="none" xmlns="http://www.w3.org/2000/svg">
<path d="M22.0001 18.8753C20.2798 18.8753 18.8759 20.2792 18.8759 21.9995C18.8759 23.7198 20.2798 25.1237 22.0001 25.1237C23.7204 25.1237 25.1243 23.7198 25.1243 21.9995C25.1243 20.2792 23.7204 18.8753 22.0001 18.8753ZM31.3704 21.9995C31.3704 20.7058 31.3821 19.4237 31.3095 18.1323C31.2368 16.6323 30.8946 15.3011 29.7978 14.2042C28.6985 13.105 27.3696 12.7652 25.8696 12.6925C24.5759 12.6198 23.2939 12.6316 22.0025 12.6316C20.7087 12.6316 19.4267 12.6198 18.1353 12.6925C16.6353 12.7652 15.304 13.1073 14.2071 14.2042C13.1079 15.3034 12.7681 16.6323 12.6954 18.1323C12.6228 19.4261 12.6345 20.7081 12.6345 21.9995C12.6345 23.2909 12.6228 24.5753 12.6954 25.8667C12.7681 27.3667 13.1103 28.698 14.2071 29.7948C15.3064 30.8941 16.6353 31.2339 18.1353 31.3066C19.429 31.3792 20.711 31.3675 22.0025 31.3675C23.2962 31.3675 24.5782 31.3792 25.8696 31.3066C27.3696 31.2339 28.7009 30.8917 29.7978 29.7948C30.897 28.6956 31.2368 27.3667 31.3095 25.8667C31.3845 24.5753 31.3704 23.2933 31.3704 21.9995ZM22.0001 26.8066C19.34 26.8066 17.1931 24.6597 17.1931 21.9995C17.1931 19.3394 19.34 17.1925 22.0001 17.1925C24.6603 17.1925 26.8071 19.3394 26.8071 21.9995C26.8071 24.6597 24.6603 26.8066 22.0001 26.8066ZM27.004 18.1183C26.3829 18.1183 25.8814 17.6167 25.8814 16.9956C25.8814 16.3745 26.3829 15.873 27.004 15.873C27.6251 15.873 28.1267 16.3745 28.1267 16.9956C28.1269 17.1431 28.0979 17.2892 28.0416 17.4255C27.9852 17.5617 27.9026 17.6856 27.7983 17.7899C27.694 17.8942 27.5701 17.9768 27.4339 18.0332C27.2976 18.0895 27.1515 18.1185 27.004 18.1183Z" fill="#2E2E2E"/>
<circle cx="21.5" cy="21.5" r="21" stroke="#2E2E2E"/>
</svg>
