<svg width="30" height="30" viewBox="0 0 30 30" fill="none" xmlns="http://www.w3.org/2000/svg">
<path d="M29.8424 20.7062C25.3979 15.459 22.0576 8.13725 20.784 0.528246C20.7472 0.308822 20.4301 -0.243473 19.774 0.121112L8.67191 8.3598C8.4793 8.50251 8.3833 8.74134 8.42255 8.9776C8.59967 10.0352 9.03913 12.0901 9.02988 12.0761L0.228796 19.2C-0.146869 19.5248 0.0287189 19.9688 0.135921 20.1003C4.02053 24.8589 10.4095 28.3695 18.125 29.986C18.1687 29.9954 18.2129 29.9998 18.256 29.9998C18.3965 29.9998 18.5322 29.953 18.6426 29.8691L29.7383 21.6351C29.9464 21.5145 30.1496 21.0689 29.8424 20.7062ZM1.53867 19.7823L9.39061 13.4265C9.42636 13.5597 9.46181 13.693 9.49867 13.8256C9.50112 13.822 9.50393 13.8185 9.50644 13.8149C11.0169 19.2216 13.4828 24.2695 16.5852 28.3153C10.3003 26.6918 4.91825 23.647 1.53867 19.7823ZM18.3572 28.4908C14.796 24.1877 12.0091 18.526 10.4638 12.4499C10.4633 12.4502 10.4628 12.4504 10.4623 12.4507C10.1834 11.3607 9.9437 10.2591 9.74803 9.15099L19.7073 1.76012C21.0957 9.06803 24.1655 15.8459 28.4322 21.0148L18.3572 28.4908Z" fill="white"/>
</svg>
