<svg width="108" height="20" viewBox="0 0 108 20" fill="none" xmlns="http://www.w3.org/2000/svg">
<path d="M17.7359 6.89649L12.7769 6.17579L10.5601 1.68165C10.4996 1.5586 10.4 1.45899 10.2769 1.39844C9.96833 1.2461 9.59333 1.37305 9.43903 1.68165L7.22223 6.17579L2.26325 6.89649C2.12653 6.91602 2.00153 6.98048 1.90583 7.07813C1.79013 7.19705 1.72637 7.35704 1.72857 7.52294C1.73077 7.68884 1.79874 7.84709 1.91755 7.9629L5.50544 11.4609L4.65778 16.4004C4.6379 16.5153 4.65062 16.6335 4.69449 16.7415C4.73835 16.8496 4.81161 16.9432 4.90596 17.0117C5.00031 17.0802 5.11198 17.1209 5.22829 17.1292C5.3446 17.1375 5.46091 17.113 5.56403 17.0586L9.99958 14.7266L14.4351 17.0586C14.5562 17.1231 14.6968 17.1445 14.8316 17.1211C15.1715 17.0625 15.4 16.7402 15.3414 16.4004L14.4937 11.4609L18.0816 7.9629C18.1793 7.8672 18.2437 7.74219 18.2633 7.60548C18.316 7.26368 18.0777 6.94727 17.7359 6.89649Z" fill="#F9C611"/>
<path d="M39.7359 6.89649L34.7769 6.17579L32.5601 1.68165C32.4996 1.5586 32.4 1.45899 32.2769 1.39844C31.9683 1.2461 31.5933 1.37305 31.439 1.68165L29.2222 6.17579L24.2633 6.89649C24.1265 6.91602 24.0015 6.98048 23.9058 7.07813C23.7901 7.19705 23.7264 7.35704 23.7286 7.52294C23.7308 7.68884 23.7987 7.84709 23.9175 7.9629L27.5054 11.4609L26.6578 16.4004C26.6379 16.5153 26.6506 16.6335 26.6945 16.7415C26.7384 16.8496 26.8116 16.9432 26.906 17.0117C27.0003 17.0802 27.112 17.1209 27.2283 17.1292C27.3446 17.1375 27.4609 17.113 27.564 17.0586L31.9996 14.7266L36.4351 17.0586C36.5562 17.1231 36.6968 17.1445 36.8316 17.1211C37.1715 17.0625 37.4 16.7402 37.3414 16.4004L36.4937 11.4609L40.0816 7.9629C40.1793 7.8672 40.2437 7.74219 40.2633 7.60548C40.316 7.26368 40.0777 6.94727 39.7359 6.89649Z" fill="#F9C611"/>
<path d="M61.7359 6.89649L56.7769 6.17579L54.5601 1.68165C54.4996 1.5586 54.4 1.45899 54.2769 1.39844C53.9683 1.2461 53.5933 1.37305 53.439 1.68165L51.2222 6.17579L46.2633 6.89649C46.1265 6.91602 46.0015 6.98048 45.9058 7.07813C45.7901 7.19705 45.7264 7.35704 45.7286 7.52294C45.7308 7.68884 45.7987 7.84709 45.9175 7.9629L49.5054 11.4609L48.6578 16.4004C48.6379 16.5153 48.6506 16.6335 48.6945 16.7415C48.7384 16.8496 48.8116 16.9432 48.906 17.0117C49.0003 17.0802 49.112 17.1209 49.2283 17.1292C49.3446 17.1375 49.4609 17.113 49.564 17.0586L53.9996 14.7266L58.4351 17.0586C58.5562 17.1231 58.6968 17.1445 58.8316 17.1211C59.1715 17.0625 59.4 16.7402 59.3414 16.4004L58.4937 11.4609L62.0816 7.9629C62.1793 7.8672 62.2437 7.74219 62.2633 7.60548C62.316 7.26368 62.0777 6.94727 61.7359 6.89649Z" fill="#F9C611"/>
<path d="M83.7359 6.89649L78.7769 6.17579L76.5601 1.68165C76.4996 1.5586 76.4 1.45899 76.2769 1.39844C75.9683 1.2461 75.5933 1.37305 75.439 1.68165L73.2222 6.17579L68.2633 6.89649C68.1265 6.91602 68.0015 6.98048 67.9058 7.07813C67.7901 7.19705 67.7264 7.35704 67.7286 7.52294C67.7308 7.68884 67.7987 7.84709 67.9175 7.9629L71.5054 11.4609L70.6578 16.4004C70.6379 16.5153 70.6506 16.6335 70.6945 16.7415C70.7384 16.8496 70.8116 16.9432 70.906 17.0117C71.0003 17.0802 71.112 17.1209 71.2283 17.1292C71.3446 17.1375 71.4609 17.113 71.564 17.0586L75.9996 14.7266L80.4351 17.0586C80.5562 17.1231 80.6968 17.1445 80.8316 17.1211C81.1715 17.0625 81.4 16.7402 81.3414 16.4004L80.4937 11.4609L84.0816 7.9629C84.1793 7.8672 84.2437 7.74219 84.2633 7.60548C84.316 7.26368 84.0777 6.94727 83.7359 6.89649Z" fill="#F9C611"/>
<path d="M105.736 6.89649L100.777 6.17579L98.5601 1.68165C98.4996 1.5586 98.4 1.45899 98.2769 1.39844C97.9683 1.2461 97.5933 1.37305 97.439 1.68165L95.2222 6.17579L90.2633 6.89649C90.1265 6.91602 90.0015 6.98048 89.9058 7.07813C89.7901 7.19705 89.7264 7.35704 89.7286 7.52294C89.7308 7.68884 89.7987 7.84709 89.9175 7.9629L93.5054 11.4609L92.6578 16.4004C92.6379 16.5153 92.6506 16.6335 92.6945 16.7415C92.7384 16.8496 92.8116 16.9432 92.906 17.0117C93.0003 17.0802 93.112 17.1209 93.2283 17.1292C93.3446 17.1375 93.4609 17.113 93.564 17.0586L97.9996 14.7266L102.435 17.0586C102.556 17.1231 102.697 17.1445 102.832 17.1211C103.171 17.0625 103.4 16.7402 103.341 16.4004L102.494 11.4609L106.082 7.9629C106.179 7.8672 106.244 7.74219 106.263 7.60548C106.316 7.26368 106.078 6.94727 105.736 6.89649Z" fill="#F9C611"/>
</svg>
