<svg width="30" height="30" viewBox="0 0 30 30" fill="none" xmlns="http://www.w3.org/2000/svg">
<g clip-path="url(#clip0_613_2306)">
<path d="M15.0004 0C6.72957 0 0.000976562 6.72896 0.000976562 14.9998C0.000976562 23.271 6.72957 30 15.0004 30C23.2713 30 30.0003 23.271 30.0003 14.9998C30.0003 6.72896 23.2709 0 15.0004 0ZM15.0004 27.8314C7.92558 27.8314 2.16926 22.075 2.16926 14.9998C2.16926 7.9246 7.92522 2.16865 15.0004 2.16865C22.0756 2.16865 27.8316 7.9246 27.8316 14.9998C27.8316 22.075 22.0756 27.8314 15.0004 27.8314Z" fill="#2E2E2E"/>
<path d="M19.3405 16.3806C19.3347 16.3806 19.3297 16.3806 19.3239 16.3806L16.0847 16.429V7.95176C16.0847 7.35285 15.5992 6.86743 15.0003 6.86743C14.4014 6.86743 13.916 7.35285 13.916 7.95176V17.53C13.916 17.5321 13.9167 17.5343 13.9167 17.5365C13.9167 17.5401 13.916 17.5433 13.916 17.5462C13.9167 17.5903 13.9251 17.6319 13.9308 17.6742C13.9344 17.7006 13.9348 17.7277 13.9399 17.7537C13.9496 17.8003 13.9659 17.8437 13.9814 17.8874C13.9894 17.9102 13.9944 17.934 14.0038 17.9557C14.0226 18.0002 14.0479 18.0407 14.0722 18.0822C14.0834 18.1007 14.0917 18.1209 14.1036 18.139C14.1311 18.1791 14.164 18.2149 14.1965 18.2514C14.2102 18.2666 14.2214 18.2839 14.2359 18.2987C14.271 18.3334 14.3103 18.3627 14.3497 18.3927C14.3656 18.4046 14.3797 18.4191 14.396 18.4303C14.4387 18.4592 14.4853 18.482 14.5319 18.5044C14.5482 18.512 14.5626 18.5228 14.5793 18.5297C14.6335 18.5525 14.6913 18.5684 14.7499 18.5825C14.7607 18.585 14.7708 18.5901 14.782 18.5922C14.8521 18.6063 14.9248 18.6143 14.9993 18.6143C15.0047 18.6143 15.0105 18.6143 15.0159 18.6143L19.3561 18.5492C19.9546 18.5402 20.4328 18.0472 20.4241 17.4486C20.4158 16.8555 19.9318 16.3806 19.3405 16.3806Z" fill="#2E2E2E"/>
</g>
<defs>
<clipPath id="clip0_613_2306">
<rect width="30" height="30" fill="white"/>
</clipPath>
</defs>
</svg>
