<svg width="87" height="87" viewBox="0 0 87 87" fill="none" xmlns="http://www.w3.org/2000/svg">
<path d="M45.4044 63.6041V36.5592L50.2044 41.3592C50.4738 41.6285 50.833 41.7673 51.1921 41.7673C51.5513 41.7673 51.9105 41.6285 52.1799 41.3592C52.7268 40.8122 52.7268 39.9224 52.1799 39.3755L44.9881 32.1836C44.4656 31.6612 43.535 31.6612 43.0044 32.1836L35.8125 39.3755C35.2656 39.9224 35.2656 40.8122 35.8125 41.3592C36.3595 41.9061 37.2493 41.9061 37.7962 41.3592L42.5962 36.5592V63.5959C42.5962 64.3714 43.2248 65 43.9921 65C44.784 65 45.4044 64.3796 45.4044 63.6041Z" fill="#FF4C29"/>
<path d="M26.2861 26.3959V34.5347C26.2861 35.3102 26.9147 35.9388 27.6821 35.9388C28.4576 35.9388 29.0861 35.3102 29.0861 34.5347V27.8H58.9229V34.5429C58.9229 35.3184 59.5514 35.9469 60.3188 35.9469C61.0861 35.9469 61.7147 35.3184 61.7147 34.5429V26.3959C61.7147 25.6204 61.0861 25 60.3188 25H27.6902C26.9147 25 26.2861 25.6204 26.2861 26.3959Z" fill="#FF4C29"/>
<circle cx="43.5" cy="43.5" r="43" stroke="#FF4C29"/>
</svg>
