<svg width="145" height="24" viewBox="0 0 145 24" fill="none" xmlns="http://www.w3.org/2000/svg">
<path d="M145 22.6443L139.369 12.5634L133.454 22.4803L145 22.6443ZM1.60493 23.4406C2.76798 22.5571 4.04462 21.6523 5.42972 20.7378L4.32776 19.0687C2.9083 20.0059 1.59549 20.9361 0.395073 21.8481L1.60493 23.4406ZM13.5661 15.9639C16.1973 14.5865 19.052 13.2338 22.1116 11.9453L21.3354 10.1021C18.2246 11.4121 15.3194 12.7885 12.6385 14.192L13.5661 15.9639ZM30.9714 8.61238C33.8668 7.6473 36.8965 6.75405 40.0492 5.95642L39.5587 4.01751C36.3572 4.82748 33.2801 5.73466 30.339 6.71501L30.9714 8.61238ZM49.2947 3.97352C52.3297 3.43752 55.4553 2.997 58.6634 2.66921L58.4601 0.679566C55.2025 1.01243 52.0286 1.45974 48.9468 2.004L49.2947 3.97352ZM68.104 2.05261C71.1973 1.96421 74.354 1.98544 77.5674 2.12978L77.6572 0.131793C74.3938 -0.014786 71.1882 -0.0363467 68.0469 0.0534275L68.104 2.05261ZM86.9937 2.90012C90.0647 3.26459 93.1793 3.74571 96.3324 4.3542L96.7114 2.39043C93.5102 1.77267 90.3478 1.28415 87.2294 0.914055L86.9937 2.90012ZM105.553 6.47847C108.544 7.28022 111.563 8.2006 114.608 9.2482L115.259 7.35701C112.17 6.29429 109.106 5.36039 106.071 4.54669L105.553 6.47847ZM123.439 12.6231C126.294 13.8242 129.167 15.141 132.054 16.5803L132.947 14.7903C130.021 13.332 127.109 11.9973 124.215 10.7797L123.439 12.6231Z" fill="#FFB5A7"/>
</svg>
