<svg width="149" height="24" viewBox="0 0 149 24" fill="none" xmlns="http://www.w3.org/2000/svg">
<path d="M149 1L143.32 11.0533L137.453 1.10749L149 1ZM1.60067 0.200502C2.79939 1.1011 4.11541 2.02336 5.54341 2.95547L4.45022 4.63026C2.98781 3.6757 1.63554 2.72827 0.399333 1.7995L1.60067 0.200502ZM13.9235 7.81575C16.6311 9.21665 19.5686 10.5922 22.7169 11.9023L21.9485 13.7488C18.7494 12.4175 15.7616 11.0186 13.0045 9.59207L13.9235 7.81575ZM31.8286 15.2891C34.8045 16.2691 37.9183 17.1761 41.1584 17.9859L40.6734 19.9262C37.385 19.1043 34.2243 18.1837 31.203 17.1888L31.8286 15.2891ZM50.6574 19.9983C53.7749 20.5422 56.9853 20.989 60.2803 21.3215L60.0795 23.3114C56.7355 22.974 53.4774 22.5205 50.3137 21.9686L50.6574 19.9983ZM69.9752 21.9467C73.1518 22.0363 76.3933 22.0147 79.6932 21.8682L79.7819 23.8662C76.4328 24.0149 73.1429 24.0369 69.9188 23.9459L69.9752 21.9467ZM89.3734 21.0864C92.5279 20.7165 95.7271 20.2282 98.9659 19.6106L99.3405 21.5752C96.0542 22.2018 92.8077 22.6974 89.6064 23.0728L89.3734 21.0864ZM108.44 17.4538C111.514 16.6395 114.618 15.7047 117.747 14.6406L118.391 16.5341C115.218 17.6131 112.07 18.5612 108.953 19.3872L108.44 17.4538ZM126.829 11.2102C129.766 9.98888 132.721 8.6497 135.692 7.18573L136.576 8.97976C133.567 10.4624 130.573 11.8192 127.597 13.0569L126.829 11.2102Z" fill="#FFB5A7"/>
</svg>
