<svg width="157" height="138" viewBox="0 0 157 138" fill="none" xmlns="http://www.w3.org/2000/svg">
<path d="M4.95343 1H1V4.95112H4.95343V1Z" stroke="#8F9294" stroke-width="1.0782" stroke-miterlimit="10"/>
<path d="M35.1663 1H31.2129V4.95112H35.1663V1Z" stroke="#8F9294" stroke-width="1.0782" stroke-miterlimit="10"/>
<path d="M65.3704 1H61.417V4.95112H65.3704V1Z" stroke="#8F9294" stroke-width="1.0782" stroke-miterlimit="10"/>
<path d="M95.5833 1H91.6299V4.95112H95.5833V1Z" stroke="#8F9294" stroke-width="1.0782" stroke-miterlimit="10"/>
<path d="M125.796 1H121.843V4.95112H125.796V1Z" stroke="#8F9294" stroke-width="1.0782" stroke-miterlimit="10"/>
<path d="M156 1H152.047V4.95112H156V1Z" stroke="#8F9294" stroke-width="1.0782" stroke-miterlimit="10"/>
<path d="M4.95343 23.0149H1V26.966H4.95343V23.0149Z" stroke="#8F9294" stroke-width="1.0782" stroke-miterlimit="10"/>
<path d="M35.1663 23.0149H31.2129V26.966H35.1663V23.0149Z" stroke="#FF2C2C" stroke-width="1.0782" stroke-miterlimit="10"/>
<path d="M65.3704 23.0149H61.417V26.966H65.3704V23.0149Z" stroke="#8F9294" stroke-width="1.0782" stroke-miterlimit="10"/>
<path d="M95.5833 23.0149H91.6299V26.966H95.5833V23.0149Z" stroke="#8F9294" stroke-width="1.0782" stroke-miterlimit="10"/>
<path d="M125.796 23.0149H121.843V26.966H125.796V23.0149Z" stroke="#8F9294" stroke-width="1.0782" stroke-miterlimit="10"/>
<path d="M156 23.0149H152.047V26.966H156V23.0149Z" stroke="#8F9294" stroke-width="1.0782" stroke-miterlimit="10"/>
<path d="M4.95343 45.0195H1V48.9706H4.95343V45.0195Z" stroke="#8F9294" stroke-width="1.0782" stroke-miterlimit="10"/>
<path d="M35.1663 45.0195H31.2129V48.9706H35.1663V45.0195Z" stroke="#8F9294" stroke-width="1.0782" stroke-miterlimit="10"/>
<path d="M65.3704 45.0195H61.417V48.9706H65.3704V45.0195Z" stroke="#8F9294" stroke-width="1.0782" stroke-miterlimit="10"/>
<path d="M95.5833 45.0195H91.6299V48.9706H95.5833V45.0195Z" stroke="#FF2C2C" stroke-width="1.0782" stroke-miterlimit="10"/>
<path d="M125.796 45.0195H121.843V48.9706H125.796V45.0195Z" stroke="#8F9294" stroke-width="1.0782" stroke-miterlimit="10"/>
<path d="M156 45.0195H152.047V48.9706H156V45.0195Z" stroke="#8F9294" stroke-width="1.0782" stroke-miterlimit="10"/>
<path d="M4.95343 67.0244H1V70.9755H4.95343V67.0244Z" stroke="#8F9294" stroke-width="1.0782" stroke-miterlimit="10"/>
<path d="M35.1663 67.0244H31.2129V70.9755H35.1663V67.0244Z" stroke="#8F9294" stroke-width="1.0782" stroke-miterlimit="10"/>
<path d="M65.3704 67.0244H61.417V70.9755H65.3704V67.0244Z" stroke="#8F9294" stroke-width="1.0782" stroke-miterlimit="10"/>
<path d="M95.5833 67.0244H91.6299V70.9755H95.5833V67.0244Z" stroke="#8F9294" stroke-width="1.0782" stroke-miterlimit="10"/>
<path d="M125.796 67.0244H121.843V70.9755H125.796V67.0244Z" stroke="#8F9294" stroke-width="1.0782" stroke-miterlimit="10"/>
<path d="M156 67.0244H152.047V70.9755H156V67.0244Z" stroke="#8F9294" stroke-width="1.0782" stroke-miterlimit="10"/>
<path d="M4.95343 89.0393H1V92.9904H4.95343V89.0393Z" stroke="#8F9294" stroke-width="1.0782" stroke-miterlimit="10"/>
<path d="M35.1663 89.0393H31.2129V92.9904H35.1663V89.0393Z" fill="#0F1027"/>
<path d="M65.3704 89.0393H61.417V92.9904H65.3704V89.0393Z" fill="#0F1027"/>
<path d="M95.5833 89.0393H91.6299V92.9904H95.5833V89.0393Z" stroke="#8F9294" stroke-width="1.0782" stroke-miterlimit="10"/>
<path d="M125.796 89.0393H121.843V92.9904H125.796V89.0393Z" stroke="#FF2C2C" stroke-width="1.0782" stroke-miterlimit="10"/>
<path d="M156 89.0393H152.047V92.9904H156V89.0393Z" stroke="#8F9294" stroke-width="1.0782" stroke-miterlimit="10"/>
<path d="M4.95343 111.044H1V114.995H4.95343V111.044Z" stroke="#8F9294" stroke-width="1.0782" stroke-miterlimit="10"/>
<path d="M35.1663 111.044H31.2129V114.995H35.1663V111.044Z" stroke="#8F9294" stroke-width="1.0782" stroke-miterlimit="10"/>
<path d="M65.3704 111.044H61.417V114.995H65.3704V111.044Z" stroke="#8F9294" stroke-width="1.0782" stroke-miterlimit="10"/>
<path d="M95.5833 111.044H91.6299V114.995H95.5833V111.044Z" fill="#0F1027"/>
<path d="M125.796 111.044H121.843V114.995H125.796V111.044Z" stroke="#8F9294" stroke-width="1.0782" stroke-miterlimit="10"/>
<path d="M156 111.044H152.047V114.995H156V111.044Z" stroke="#8F9294" stroke-width="1.0782" stroke-miterlimit="10"/>
<path d="M4.95343 133.049H1V137H4.95343V133.049Z" stroke="#8F9294" stroke-width="1.0782" stroke-miterlimit="10"/>
<path d="M35.1663 133.049H31.2129V137H35.1663V133.049Z" stroke="#8F9294" stroke-width="1.0782" stroke-miterlimit="10"/>
<path d="M65.3704 133.049H61.417V137H65.3704V133.049Z" stroke="#8F9294" stroke-width="1.0782" stroke-miterlimit="10"/>
<path d="M95.5833 133.049H91.6299V137H95.5833V133.049Z" stroke="#8F9294" stroke-width="1.0782" stroke-miterlimit="10"/>
<path d="M125.796 133.049H121.843V137H125.796V133.049Z" fill="#0F1027"/>
<path d="M156 133.049H152.047V137H156V133.049Z" stroke="#8F9294" stroke-width="1.0782" stroke-miterlimit="10"/>
</svg>
