<svg width="28" height="30" viewBox="0 0 28 30" fill="none" xmlns="http://www.w3.org/2000/svg">
<path d="M25.5056 21.1856H24.3868V20.0711C24.3868 19.7913 24.16 19.5645 23.8802 19.5645H10.3035C10.0237 19.5645 9.79688 19.7913 9.79688 20.0711V24.4953C9.79688 27.5308 12.2665 30.0003 15.302 30.0003H18.8818C20.5597 30.0003 22.0637 29.2449 23.0743 28.0572L25.6278 26.795C26.9247 26.1539 27.7304 24.8569 27.7304 23.4102C27.7304 22.1835 26.7323 21.1856 25.5056 21.1856ZM23.3736 23.4334H10.8101V22.9606H23.3736V23.4334ZM23.3736 20.5777V21.9474H10.8101V20.5777H23.3736ZM18.8817 28.9871H15.3019C12.8251 28.9871 10.81 26.972 10.81 24.4953V24.4467H23.3735V24.4953C23.3736 26.9721 21.3585 28.9871 18.8817 28.9871ZM25.1788 25.8866L24.0241 26.4574C24.2576 25.8475 24.3868 25.1864 24.3868 24.4953V22.1988H25.5056C26.1736 22.1988 26.7171 22.7422 26.7171 23.4102C26.7171 24.4687 26.1276 25.4177 25.1788 25.8866Z" fill="#2E2E2E"/>
<path d="M9.44648 26.8776H1.01324V4.89117H16.2348V18.1218C16.2348 18.4015 16.4617 18.6284 16.7415 18.6284C17.0212 18.6284 17.2481 18.4015 17.2481 18.1218V4.38455C17.2481 4.10476 17.0212 3.87793 16.7415 3.87793H0.506619C0.22683 3.87793 0 4.10476 0 4.38455V27.3842C0 27.664 0.22683 27.8908 0.506619 27.8908H9.44655C9.72634 27.8908 9.95317 27.664 9.95317 27.3842C9.95317 27.1044 9.72627 26.8776 9.44648 26.8776Z" fill="#2E2E2E"/>
<path d="M8.00281 6.75271C8.00281 6.47292 7.77598 6.24609 7.4962 6.24609H2.87381C2.59402 6.24609 2.36719 6.47292 2.36719 6.75271V10.6045C2.36719 10.8843 2.59402 11.1111 2.87381 11.1111H7.4962C7.77598 11.1111 8.00281 10.8843 8.00281 10.6045V6.75271ZM6.98958 10.0979H3.38042V7.25933H6.98958V10.0979Z" fill="#2E2E2E"/>
<path d="M7.4962 12.2031H2.87381C2.59402 12.2031 2.36719 12.43 2.36719 12.7097C2.36719 12.9895 2.59402 13.2164 2.87381 13.2164H7.4962C7.77598 13.2164 8.00281 12.9895 8.00281 12.7097C8.00281 12.43 7.77598 12.2031 7.4962 12.2031Z" fill="#2E2E2E"/>
<path d="M7.4962 14.1982H2.87381C2.59402 14.1982 2.36719 14.4251 2.36719 14.7049C2.36719 14.9846 2.59402 15.2115 2.87381 15.2115H7.4962C7.77598 15.2115 8.00281 14.9846 8.00281 14.7049C8.00281 14.4251 7.77598 14.1982 7.4962 14.1982Z" fill="#2E2E2E"/>
<path d="M7.4962 16.1924H2.87381C2.59402 16.1924 2.36719 16.4192 2.36719 16.699C2.36719 16.9788 2.59402 17.2056 2.87381 17.2056H7.4962C7.77598 17.2056 8.00281 16.9788 8.00281 16.699C8.00281 16.4192 7.77598 16.1924 7.4962 16.1924Z" fill="#2E2E2E"/>
<path d="M7.4962 18.1875H2.87381C2.59402 18.1875 2.36719 18.4143 2.36719 18.6941C2.36719 18.9739 2.59402 19.2007 2.87381 19.2007H7.4962C7.77598 19.2007 8.00281 18.9739 8.00281 18.6941C8.00281 18.4143 7.77598 18.1875 7.4962 18.1875Z" fill="#2E2E2E"/>
<path d="M7.4962 20.1824H2.87381C2.59402 20.1824 2.36719 20.4092 2.36719 20.689C2.36719 20.9688 2.59402 21.1956 2.87381 21.1956H7.4962C7.77598 21.1956 8.00281 20.9688 8.00281 20.689C8.00281 20.4092 7.77598 20.1824 7.4962 20.1824Z" fill="#2E2E2E"/>
<path d="M7.4962 22.1777H2.87381C2.59402 22.1777 2.36719 22.4046 2.36719 22.6844C2.36719 22.9641 2.59402 23.191 2.87381 23.191H7.4962C7.77598 23.191 8.00281 22.9641 8.00281 22.6844C8.00281 22.4046 7.77598 22.1777 7.4962 22.1777Z" fill="#2E2E2E"/>
<path d="M7.4962 24.1719H2.87381C2.59402 24.1719 2.36719 24.3987 2.36719 24.6785C2.36719 24.9583 2.59402 25.1851 2.87381 25.1851H7.4962C7.77598 25.1851 8.00281 24.9583 8.00281 24.6785C8.00281 24.3987 7.77598 24.1719 7.4962 24.1719Z" fill="#2E2E2E"/>
<path d="M14.3731 6.24609H9.75076C9.47097 6.24609 9.24414 6.47292 9.24414 6.75271C9.24414 7.0325 9.47097 7.25933 9.75076 7.25933H14.3731C14.6529 7.25933 14.8798 7.0325 14.8798 6.75271C14.8798 6.47292 14.6529 6.24609 14.3731 6.24609Z" fill="#2E2E2E"/>
<path d="M14.3731 8.24097H9.75076C9.47097 8.24097 9.24414 8.4678 9.24414 8.74759C9.24414 9.02737 9.47097 9.2542 9.75076 9.2542H14.3731C14.6529 9.2542 14.8798 9.02737 14.8798 8.74759C14.8798 8.4678 14.6529 8.24097 14.3731 8.24097Z" fill="#2E2E2E"/>
<path d="M14.3731 10.2363H9.75076C9.47097 10.2363 9.24414 10.4632 9.24414 10.7429C9.24414 11.0227 9.47097 11.2496 9.75076 11.2496H14.3731C14.6529 11.2496 14.8798 11.0227 14.8798 10.7429C14.8798 10.4632 14.6529 10.2363 14.3731 10.2363Z" fill="#2E2E2E"/>
<path d="M14.3731 12.2305H9.75076C9.47097 12.2305 9.24414 12.4573 9.24414 12.7371C9.24414 13.0169 9.47097 13.2437 9.75076 13.2437H14.3731C14.6529 13.2437 14.8798 13.0169 14.8798 12.7371C14.8798 12.4573 14.6529 12.2305 14.3731 12.2305Z" fill="#2E2E2E"/>
<path d="M14.3731 14.332H9.75076C9.47097 14.332 9.24414 14.5589 9.24414 14.8386V18.1224C9.24414 18.4021 9.47097 18.629 9.75076 18.629H14.3731C14.6529 18.629 14.8798 18.4021 14.8798 18.1224V14.8386C14.8798 14.5589 14.6529 14.332 14.3731 14.332ZM13.8665 17.6157H10.2574V15.3453H13.8665V17.6157Z" fill="#2E2E2E"/>
<path d="M15.8452 2.97777C16.0752 3.13705 16.3909 3.07963 16.5501 2.84963C17.3462 1.69974 18.6552 1.01324 20.0515 1.01324C22.3979 1.01324 24.3069 2.92218 24.3069 5.26863C24.3069 7.61509 22.398 9.52396 20.0515 9.52396C19.4768 9.52396 18.9196 9.41149 18.3953 9.18979C18.1377 9.0807 17.8404 9.20134 17.7314 9.45904C17.6224 9.71674 17.7429 10.014 18.0006 10.123C18.6505 10.3978 19.3405 10.5372 20.0515 10.5372C22.9566 10.5372 25.3202 8.17372 25.3202 5.26863C25.3202 2.36348 22.9567 0 20.0515 0C18.3227 0 16.7023 0.849633 15.7171 2.27283C15.5578 2.5029 15.6152 2.81849 15.8452 2.97777Z" fill="#2E2E2E"/>
<path d="M18.3465 5.77574H20.0507C20.3304 5.77574 20.5573 5.54891 20.5573 5.26912V3.64138C20.5573 3.3616 20.3304 3.13477 20.0507 3.13477C19.7709 3.13477 19.544 3.3616 19.544 3.64138V4.7625H18.3465C18.0667 4.7625 17.8398 4.98933 17.8398 5.26912C17.8398 5.54891 18.0667 5.77574 18.3465 5.77574Z" fill="#2E2E2E"/>
</svg>
