<svg width="24" height="23" viewBox="0 0 24 23" fill="none" xmlns="http://www.w3.org/2000/svg">
<g clip-path="url(#clip0_1101_860)">
<path d="M14.7744 6.89972C14.8605 6.80869 14.964 6.73584 15.0787 6.68548C15.1935 6.63512 15.3171 6.60828 15.4424 6.60654C15.5677 6.60479 15.6921 6.62819 15.8082 6.67533C15.9243 6.72248 16.0298 6.79243 16.1184 6.88103C16.207 6.96964 16.2769 7.07511 16.3241 7.19121C16.3712 7.30731 16.3946 7.43169 16.3929 7.55698C16.3911 7.68228 16.3643 7.80595 16.3139 7.9207C16.2636 8.03544 16.1907 8.13893 16.0997 8.22504L13.3528 10.9719C13.3492 10.9755 13.3463 10.9799 13.3443 10.9846C13.3424 10.9893 13.3413 10.9944 13.3413 10.9996C13.3413 11.0047 13.3424 11.0098 13.3443 11.0145C13.3463 11.0193 13.3492 11.0236 13.3528 11.0272L16.0997 13.7741C16.1879 13.8609 16.2581 13.9643 16.3062 14.0783C16.3542 14.1924 16.3793 14.3148 16.3798 14.4385C16.3803 14.5623 16.3563 14.6849 16.3092 14.7994C16.2621 14.9138 16.1928 15.0178 16.1053 15.1053C16.0178 15.1928 15.9138 15.2621 15.7994 15.3093C15.685 15.3564 15.5623 15.3804 15.4386 15.38C15.3148 15.3795 15.1924 15.3545 15.0783 15.3064C14.9643 15.2584 14.8609 15.1882 14.7741 15.1L12.0272 12.3532C12.0236 12.3495 12.0193 12.3466 12.0145 12.3447C12.0098 12.3427 12.0047 12.3417 11.9995 12.3417C11.9944 12.3417 11.9893 12.3427 11.9846 12.3447C11.9798 12.3466 11.9755 12.3495 11.9719 12.3532L9.22501 15.1C9.13822 15.1883 9.03483 15.2584 8.92079 15.3065C8.80675 15.3546 8.68432 15.3796 8.56057 15.3801C8.43681 15.3806 8.31418 15.3566 8.19974 15.3095C8.0853 15.2624 7.98133 15.1931 7.89381 15.1056C7.80629 15.0181 7.73696 14.9142 7.68982 14.7997C7.64268 14.6853 7.61866 14.5627 7.61915 14.4389C7.61964 14.3152 7.64462 14.1927 7.69267 14.0787C7.74071 13.9646 7.81086 13.8612 7.89907 13.7744L10.6459 11.0275C10.6496 11.0239 10.6525 11.0196 10.6544 11.0149C10.6564 11.0101 10.6574 11.005 10.6574 10.9999C10.6574 10.9947 10.6564 10.9897 10.6544 10.9849C10.6525 10.9802 10.6496 10.9759 10.6459 10.9722L7.89907 8.22535C7.7256 8.04907 7.62881 7.81139 7.62979 7.56407C7.63077 7.31675 7.72943 7.07984 7.90429 6.90494C8.07915 6.73004 8.31604 6.63132 8.56335 6.63029C8.81067 6.62925 9.04838 6.72598 9.22469 6.89941L11.9716 9.64629C11.9752 9.64992 11.9795 9.65281 11.9843 9.65478C11.989 9.65675 11.9941 9.65776 11.9992 9.65776C12.0044 9.65776 12.0095 9.65675 12.0142 9.65478C12.0189 9.65281 12.0233 9.64992 12.0269 9.64629L14.7738 6.89941L14.7744 6.89972Z" fill="#A2A2A2"/>
</g>
<defs>
<clipPath id="clip0_1101_860">
<rect width="10" height="10" fill="white" transform="translate(7 6)"/>
</clipPath>
</defs>
</svg>
