<svg width="44" height="44" viewBox="0 0 44 44" fill="none" xmlns="http://www.w3.org/2000/svg">
<circle cx="22" cy="22" r="22" fill="#FF4C29" fill-opacity="0.2"/>
<path d="M28.1566 19.6762V13.3459H17.2637V19.6763H28.1566V19.6762ZM18.119 14.2012H27.3013V18.821H18.119V14.2012Z" fill="#D22807"/>
<path d="M26.3874 15.1044H19.0322V15.9597H26.3874V15.1044Z" fill="#D22807"/>
<path d="M26.3874 16.8145H19.0322V17.6698H26.3874V16.8145Z" fill="#D22807"/>
<path d="M31.2997 10H14.9433C13.707 10 12.7012 11.0058 12.7012 12.2422C12.7012 12.2422 12.7013 31.2021 12.7013 31.2023C12.7013 32.4385 13.7071 33.4442 14.9433 33.4442H16.2498V36H19.437V33.4442H31.2994L31.2997 10ZM30.4444 28.9596H15.371V10.8553H30.4444V28.9596ZM14.5157 10.9231V29.0004C14.1655 29.0676 13.8381 29.2177 13.5565 29.4403V12.2422C13.5565 11.6267 13.9597 11.1038 14.5157 10.9231ZM14.9433 32.5889C14.1787 32.5889 13.5566 31.9668 13.5566 31.2023C13.5566 30.8313 13.7009 30.4828 13.9627 30.221C14.2246 29.9592 14.5728 29.815 14.9433 29.815H16.2498V32.5889H14.9433ZM17.1051 35.1447V29.8149H18.5817V35.1447H17.1051ZM30.4441 32.5889H19.4371V29.815H30.4441V32.5889Z" fill="#D22807"/>
</svg>
