<svg width="44" height="44" viewBox="0 0 44 44" fill="none" xmlns="http://www.w3.org/2000/svg">
<circle cx="22" cy="22" r="22" fill="#FF4C29" fill-opacity="0.2"/>
<g clip-path="url(#clip0_642_308)">
<path d="M33.0503 10V18.0408H30.9075V13.7523H22.8666V11.6082H14.5565V18.0408H12.6816V10H10V36H12.6816V31.1755H33.0502V36H35.9999V10H33.0503ZM10.8055 35.1945V10.8055H11.8761V35.1945H10.8055ZM22.8666 14.5578H30.102V18.0408H22.8666V14.5578ZM18.0422 12.4136H19.3809V14.8245H18.0422V12.4136ZM15.362 12.4136H17.2367V15.63H20.1864V12.4136H22.0612V18.0408H15.362V12.4136ZM33.0503 30.37H12.6816V29.5674H33.0503V30.37ZM15.898 28.7619V25.2789H23.1333V28.7619H15.898ZM28.7632 26.351V23.1347H30.638V28.7619H23.9388V23.1347H25.8136V26.351H28.7632ZM26.6191 25.5456V23.1347H27.9578V25.5456H26.6191ZM33.0503 28.7619H31.4435V22.3292H23.1333V24.4735H15.0925V28.7619H12.6816V20.4545H33.0503V28.7619ZM33.0503 19.649H12.6816V18.8463H33.0503V19.649ZM35.1945 35.1945H33.8557V10.8055H35.1945V35.1945Z" fill="#D22807"/>
<path d="M29.1648 15.8966H27.5566V16.7021H29.1648V15.8966Z" fill="#D22807"/>
<path d="M27.0201 15.8966H24.3398V16.7021H27.0201V15.8966Z" fill="#D22807"/>
<path d="M22.1961 26.6172H20.5879V27.4227H22.1961V26.6172Z" fill="#D22807"/>
<path d="M20.0513 26.6172H17.3711V27.4227H20.0513V26.6172Z" fill="#D22807"/>
</g>
<defs>
<clipPath id="clip0_642_308">
<rect width="26" height="26" fill="white" transform="translate(10 10)"/>
</clipPath>
</defs>
</svg>
