<svg width="44" height="44" viewBox="0 0 44 44" fill="none" xmlns="http://www.w3.org/2000/svg">
<circle cx="22" cy="22" r="22" fill="#FF4C29" fill-opacity="0.2"/>
<g clip-path="url(#clip0_643_311)">
<path d="M35.8791 25.2542C35.7216 25.1017 35.4701 25.1056 35.3175 25.2632L32.3294 28.3486C32.2543 28.0953 32.1154 27.8643 31.9204 27.6756C31.6218 27.3864 31.2276 27.2302 30.8128 27.2374C30.4896 27.2426 30.1834 27.3458 29.927 27.5315C29.8539 27.2679 29.712 27.0272 29.5102 26.8319C29.4937 26.8158 29.4768 26.8004 29.4598 26.7853V23.4599C30.1714 24.1334 31.1307 24.5477 32.1855 24.5477C32.4048 24.5477 32.5827 24.3699 32.5827 24.1505C32.5827 23.9311 32.4048 23.7533 32.1855 23.7533C30.4348 23.7533 29.0104 22.329 29.0104 20.5783V19.2281C29.0104 19.0087 28.8326 18.8309 28.6132 18.8309H25.7093C25.1628 18.8309 24.7181 18.3862 24.7181 17.8396C24.7181 17.2931 25.1628 16.8484 25.7093 16.8484H28.4567C29.5379 16.8484 30.6164 17.1119 31.5757 17.6105C33.1593 18.4334 34.3356 19.8212 34.8881 21.5181L34.9953 21.8473C35.0633 22.0559 35.2875 22.17 35.496 22.102C35.7046 22.034 35.8186 21.8099 35.7507 21.6013L35.6435 21.2722C35.0261 19.376 33.7116 17.8252 31.9421 16.9056C30.8701 16.3484 29.6648 16.054 28.4567 16.054H25.7093C24.7366 16.054 23.9436 16.8358 23.9246 17.8041H10.3972C10.1778 17.8041 10 17.9819 10 18.2013V27.2295C10 27.4489 10.1778 27.6267 10.3972 27.6267H20.5224C20.5099 27.7108 20.5038 27.7965 20.5052 27.8832C20.5119 28.2988 20.68 28.6871 20.9787 28.9763C21.2712 29.2596 21.6546 29.4147 22.0608 29.4147C22.0693 29.4147 22.0779 29.4146 22.0864 29.4145C22.4099 29.4093 22.7165 29.3059 22.9731 29.1197C23.0445 29.3778 23.183 29.6207 23.3889 29.8201C23.6814 30.1034 24.0648 30.2585 24.471 30.2585C24.4795 30.2585 24.4881 30.2584 24.4966 30.2583C24.8201 30.2531 25.1268 30.1497 25.3834 29.9635C25.4548 30.2216 25.5933 30.4645 25.7992 30.6639C26.0917 30.9472 26.475 31.1023 26.8813 31.1023C26.8898 31.1023 26.8984 31.1022 26.9069 31.1021C27.2304 31.0969 27.5371 30.9935 27.7936 30.8073C27.865 31.0654 28.0035 31.3083 28.2094 31.5077C28.5019 31.791 28.8853 31.9461 29.2915 31.9461C29.3 31.9461 29.3086 31.946 29.3171 31.9459C29.7327 31.9392 30.121 31.771 30.4102 31.4724L35.8883 25.8159C36.0408 25.6583 36.0367 25.4069 35.8791 25.2542ZM28.6653 22.4095V26.4121C28.5792 26.3989 28.4914 26.3924 28.4026 26.3937C28.0791 26.3989 27.7724 26.5023 27.5159 26.6885C27.4853 26.5779 27.4425 26.4701 27.3872 26.3674H27.5905C27.8099 26.3674 27.9877 26.1896 27.9877 25.9702V19.6253H28.2161V20.5783C28.216 21.2386 28.3789 21.8612 28.6653 22.4095ZM22.108 25.573H12.2666V19.8579H27.1932V25.573H25.0023C24.9255 25.4173 24.8215 25.2718 24.6898 25.1443C24.0733 24.5472 23.0861 24.5631 22.489 25.1796L22.108 25.573ZM10.7944 26.8323V18.5985H24.0934C24.1744 18.7702 24.282 18.9269 24.4108 19.0634H11.8694C11.65 19.0634 11.4722 19.2413 11.4722 19.4607V25.9702C11.4722 26.1895 11.65 26.3674 11.8694 26.3674H21.3386L20.9433 26.7755C20.9254 26.7941 20.9079 26.813 20.8909 26.8323H10.7944V26.8323ZM22.0736 28.6202C21.8704 28.6234 21.6775 28.5472 21.5313 28.4057C21.3851 28.2641 21.3028 28.0741 21.2995 27.8706C21.2962 27.6671 21.3724 27.4745 21.514 27.3283L23.0596 25.7323C23.2089 25.5783 23.4079 25.5008 23.6071 25.5008C23.7981 25.5008 23.9894 25.572 24.1371 25.715C24.4388 26.0074 24.4466 26.4907 24.1543 26.7925L22.6087 28.3885C22.4672 28.5346 22.2771 28.6169 22.0736 28.6202ZM24.4838 29.4639C24.2821 29.4675 24.0877 29.391 23.9415 29.2494C23.6397 28.9571 23.632 28.4738 23.9242 28.172L25.4699 26.5759C25.6191 26.4219 25.8181 26.3444 26.0174 26.3444C26.2084 26.3444 26.3996 26.4156 26.5474 26.5586C26.8492 26.8509 26.8569 27.3342 26.5647 27.636L25.019 29.2321C24.8774 29.3784 24.6873 29.4607 24.4838 29.4639ZM26.894 30.3077C26.6912 30.3116 26.4979 30.2348 26.3517 30.0932C26.0499 29.8009 26.0422 29.3176 26.3344 29.0158L27.8801 27.4197C28.0217 27.2735 28.2117 27.1912 28.4152 27.1879C28.4194 27.1879 28.4236 27.1878 28.4278 27.1878C28.6267 27.1878 28.8144 27.2638 28.9576 27.4025C29.1038 27.5441 29.1861 27.7341 29.1894 27.9376C29.1927 28.1411 29.1165 28.3337 28.9749 28.4799L27.4292 30.0759C27.2876 30.2222 27.0975 30.3045 26.894 30.3077ZM29.8394 30.9197C29.6978 31.066 29.5077 31.1483 29.3042 31.1515C29.1008 31.1554 28.9082 31.0786 28.762 30.937C28.6157 30.7954 28.5334 30.6054 28.5302 30.4019C28.5269 30.1984 28.6031 30.0058 28.7447 29.8596L30.2904 28.2636C30.4319 28.1173 30.622 28.0351 30.8255 28.0318C31.028 28.0289 31.2215 28.1047 31.3678 28.2463C31.514 28.3879 31.5963 28.578 31.5996 28.7815C31.6028 28.985 31.5266 29.1776 31.385 29.3238L29.8394 30.9197Z" fill="#D22807"/>
<path d="M19.7304 20.1379C18.4811 20.1379 17.4648 21.2942 17.4648 22.7155C17.4648 24.1368 18.4811 25.2931 19.7304 25.2931C20.9796 25.2931 21.9959 24.1368 21.9959 22.7155C21.9959 21.2942 20.9796 20.1379 19.7304 20.1379ZM19.7304 24.4987C18.9192 24.4987 18.2593 23.6988 18.2593 22.7155C18.2593 21.7323 18.9192 20.9324 19.7304 20.9324C20.5416 20.9324 21.2015 21.7323 21.2015 22.7155C21.2015 23.6988 20.5416 24.4987 19.7304 24.4987Z" fill="#D22807"/>
</g>
<defs>
<clipPath id="clip0_643_311">
<rect width="26" height="26" fill="white" transform="translate(10 11)"/>
</clipPath>
</defs>
</svg>
