<svg width="501" height="501" viewBox="0 0 501 501" fill="none" xmlns="http://www.w3.org/2000/svg">
<path fill-rule="evenodd" clip-rule="evenodd" d="M266.06 386.49C283.99 339.73 383.75 352.2 364.26 398.96C424.62 370.9 419.81 429.36 373.61 439.49C315.94 451.96 137.46 451.18 113.3 439.49C88.3601 419.23 121.87 381.04 188.12 400.52C170.2 309.33 245.8 341.29 266.06 386.49Z" fill="#E8F2FF"/>
<path fill-rule="evenodd" clip-rule="evenodd" d="M148.96 153.88H210.94C211.39 126.73 223.16 113.61 245.32 113.61C265.23 113.61 276.99 122.21 276.99 141.21C276.99 184.64 221.34 188.72 221.34 258.39H281.51C281.51 205.46 351.18 196.41 351.18 128.09C351.18 77.4202 313.63 48.9102 253 48.9102C188.32 48.9102 149.41 87.3702 148.96 153.88ZM250.31 292.78C227.69 292.78 211.85 308.62 211.85 331.69C211.85 354.76 227.68 371.05 250.31 371.05C272.93 371.05 289.22 354.76 289.22 331.69C289.22 308.61 272.93 292.78 250.31 292.78Z" fill="#C5DCFA"/>
<path fill-rule="evenodd" clip-rule="evenodd" d="M348.11 424.931C351.76 415.831 348.17 385.511 339.06 386.801C326.84 388.531 334.56 419.931 348.11 424.931Z" fill="#C9DAF0"/>
<path fill-rule="evenodd" clip-rule="evenodd" d="M350.16 425.54C355.24 417.15 381.66 413.65 386.1 421.71C392.07 432.53 362.31 433.37 350.16 425.54Z" fill="#C9DAF0"/>
<path fill-rule="evenodd" clip-rule="evenodd" d="M364.62 397.621C371.42 393.771 379.211 371.991 372.231 369.731C363.891 367.031 358.66 387.761 364.62 397.621Z" fill="#C9DAF0"/>
<path fill-rule="evenodd" clip-rule="evenodd" d="M365.881 398.771C371.031 392.891 394.851 390.361 394.701 397.701C394.551 404.821 372.211 404.571 365.881 398.771Z" fill="#C9DAF0"/>
<path fill-rule="evenodd" clip-rule="evenodd" d="M353.88 410.321C360.08 404.441 363.61 379.801 356.86 378.031C347.74 375.641 344.96 401.431 353.88 410.321Z" fill="#C9DAF0"/>
<path fill-rule="evenodd" clip-rule="evenodd" d="M355.601 411.041C362.151 403.841 388.591 400.911 388.261 407.661C387.751 418.151 363.741 416.511 355.601 411.041Z" fill="#C9DAF0"/>
<path fill-rule="evenodd" clip-rule="evenodd" d="M421.38 346.281C422.81 342.391 419.19 330.601 415.57 332.051C410.72 333.991 415.59 344.331 421.38 346.281Z" fill="#C9DAF0"/>
<path fill-rule="evenodd" clip-rule="evenodd" d="M422.28 346.37C422.59 342.23 428.96 334.66 431.75 337.42C435.47 341.08 428.36 347 422.28 346.37Z" fill="#C9DAF0"/>
<path fill-rule="evenodd" clip-rule="evenodd" d="M415.31 358.601C417.95 354.561 415.66 340.371 411.26 341.441C405.37 342.861 409.25 354.891 415.31 358.601Z" fill="#C9DAF0"/>
<path fill-rule="evenodd" clip-rule="evenodd" d="M416.32 358.931C417.75 354.321 429.02 345.741 431.47 350.101C434.45 355.391 423.05 361.221 416.32 358.931Z" fill="#C9DAF0"/>
<path fill-rule="evenodd" clip-rule="evenodd" d="M406.63 368.501C410.39 364.821 409.02 347.761 404.15 348.501C397.7 349.491 401.06 363.121 406.63 368.501Z" fill="#C9DAF0"/>
<path fill-rule="evenodd" clip-rule="evenodd" d="M407.62 369.091C410.22 364.521 423.17 358.681 425.07 363.431C427.54 369.571 414.24 373.111 407.62 369.091Z" fill="#C9DAF0"/>
<path fill-rule="evenodd" clip-rule="evenodd" d="M393.6 378.061C398.91 374.611 402.91 356.621 397.18 355.031C389.94 353.021 388.3 370.381 393.6 378.061Z" fill="#C9DAF0"/>
<path fill-rule="evenodd" clip-rule="evenodd" d="M394.63 378.99C398.8 374.21 414.87 369.14 416.33 374.56C418.41 382.26 401.49 385.32 394.63 378.99Z" fill="#C9DAF0"/>
<path fill-rule="evenodd" clip-rule="evenodd" d="M379.13 386.641C385.38 383.241 391.731 365.611 386.071 362.071C378.901 357.581 373.86 377.571 379.13 386.641Z" fill="#C9DAF0"/>
<path fill-rule="evenodd" clip-rule="evenodd" d="M380.2 387.771C385.28 382.791 405.89 382.121 404.78 387.881C403.47 394.691 387.32 395.461 380.2 387.771Z" fill="#C9DAF0"/>
<path fill-rule="evenodd" clip-rule="evenodd" d="M347.13 444.611C347.17 448.741 352.87 448.241 351.96 443.921C344.45 377.801 417.57 396.711 424.87 334.681C425.17 332.161 422.92 331.941 422.62 334.471C415.6 394.121 339.26 375.261 347.13 444.611Z" fill="#C9DAF0"/>
<path fill-rule="evenodd" clip-rule="evenodd" d="M423.43 337.401C429.99 333.351 429.58 322.951 425.74 322.321C421.12 321.561 419.3 333.171 423.43 337.401Z" fill="#C9DAF0"/>
<path fill-rule="evenodd" clip-rule="evenodd" d="M317.21 432.43C317.14 433.38 318.39 433.17 320 431.95C321.61 430.73 322.97 428.97 323.04 428.02C323.77 418.24 334.83 387.97 352.75 356.05C364.9 334.42 380.12 312.17 397.23 295.42C398.75 293.93 399.55 292.38 399.01 291.95C398.47 291.52 396.8 292.38 395.28 293.87C376.65 312.1 360.42 335.72 347.66 358.44C329.3 391.13 317.97 422.29 317.21 432.43Z" fill="#B8CCE6"/>
<path fill-rule="evenodd" clip-rule="evenodd" d="M343.43 379.31C351.42 381.23 380.23 377.43 381.02 367.21C381.99 354.61 347.9 373.6 343.43 375.68C338.29 378.06 338.94 378.23 343.43 379.31Z" fill="#B8CCE6"/>
<path fill-rule="evenodd" clip-rule="evenodd" d="M352.639 359.92C359.359 361.53 383.609 358.34 384.269 349.73C385.089 339.13 356.389 355.11 352.629 356.86C348.319 358.87 348.869 359.01 352.639 359.92Z" fill="#B8CCE6"/>
<path fill-rule="evenodd" clip-rule="evenodd" d="M362.189 343.15C368.119 344.57 389.519 341.75 390.109 334.16C390.829 324.8 365.509 338.9 362.189 340.45C358.379 342.22 358.859 342.35 362.189 343.15Z" fill="#B8CCE6"/>
<path fill-rule="evenodd" clip-rule="evenodd" d="M372.84 328.98C377.46 330.09 394.11 327.89 394.56 321.99C395.12 314.71 375.42 325.68 372.83 326.88C369.87 328.26 370.25 328.36 372.84 328.98Z" fill="#B8CCE6"/>
<path fill-rule="evenodd" clip-rule="evenodd" d="M383.15 315.44C386.98 316.36 400.78 314.54 401.15 309.64C401.62 303.6 385.28 312.7 383.14 313.7C380.69 314.84 381 314.92 383.15 315.44Z" fill="#B8CCE6"/>
<path fill-rule="evenodd" clip-rule="evenodd" d="M391.57 303.43C394.34 304.1 404.34 302.78 404.62 299.23C404.96 294.86 393.12 301.45 391.57 302.17C389.79 303 390.02 303.06 391.57 303.43Z" fill="#B8CCE6"/>
<path fill-rule="evenodd" clip-rule="evenodd" d="M397.11 294.45C400.28 293.16 409.59 285.34 407.85 282.13C405.71 278.18 397.54 291.72 396.39 293.37C395.07 295.27 395.33 295.17 397.11 294.45Z" fill="#B8CCE6"/>
<path fill-rule="evenodd" clip-rule="evenodd" d="M335.99 374.8C330.68 368.43 320.88 340.56 329.45 335.18C340.01 328.56 338.95 368.14 339.17 373.15C339.42 378.89 338.97 378.38 335.99 374.8Z" fill="#B8CCE6"/>
<path fill-rule="evenodd" clip-rule="evenodd" d="M346.34 355.97C342.04 350.44 334.5 326.63 341.81 322.33C350.82 317.04 348.98 350.43 349.04 354.67C349.12 359.51 348.76 359.07 346.34 355.97Z" fill="#B8CCE6"/>
<path fill-rule="evenodd" clip-rule="evenodd" d="M356.89 338.39C353.53 333.13 348.589 311.36 355.239 308.13C363.439 304.15 359.559 333.69 359.329 337.45C359.069 341.76 358.78 341.34 356.89 338.39Z" fill="#B8CCE6"/>
<path fill-rule="evenodd" clip-rule="evenodd" d="M367.44 325.18C364.9 321.02 361.36 303.97 366.57 301.56C372.99 298.59 369.58 321.56 369.35 324.49C369.09 327.85 368.87 327.52 367.44 325.18Z" fill="#B8CCE6"/>
<path fill-rule="evenodd" clip-rule="evenodd" d="M378.57 311.54C376.4 308.15 373.2 294.11 377.49 292.03C382.78 289.46 380.29 308.51 380.14 310.94C379.98 313.72 379.79 313.44 378.57 311.54Z" fill="#B8CCE6"/>
<path fill-rule="evenodd" clip-rule="evenodd" d="M388.209 299.85C386.749 297.3 384.849 286.97 388.009 285.61C391.889 283.92 389.539 297.7 389.369 299.47C389.159 301.48 389.029 301.27 388.209 299.85Z" fill="#B8CCE6"/>
<path fill-rule="evenodd" clip-rule="evenodd" d="M334.269 402.72C342.669 404.12 372.339 398.21 372.549 387.72C372.809 374.78 338.559 396.571 334.039 399.011C328.879 401.801 329.559 401.94 334.269 402.72Z" fill="#B8CCE6"/>
<path fill-rule="evenodd" clip-rule="evenodd" d="M324.989 398.52C319.609 392.91 308.799 367.54 316.639 361.98C326.289 355.13 327.439 392.12 327.919 396.77C328.459 402.11 327.999 401.67 324.989 398.52Z" fill="#B8CCE6"/>
<path fill-rule="evenodd" clip-rule="evenodd" d="M325.629 421.12C333.069 423.54 360.559 421.94 361.929 412.16C363.609 400.1 330.199 415.94 325.839 417.62C320.849 419.55 321.449 419.77 325.629 421.12Z" fill="#B8CCE6"/>
<path fill-rule="evenodd" clip-rule="evenodd" d="M319.24 418.62C312.51 413.98 296.53 390.22 303.96 382.92C313.11 373.93 320.75 411.57 322.07 416.24C323.58 421.59 323.01 421.22 319.24 418.62Z" fill="#B8CCE6"/>
<path fill-rule="evenodd" clip-rule="evenodd" d="M184.72 404.07C180.93 395.03 184.06 364.65 193.19 365.81C205.43 367.35 198.19 398.86 184.72 404.07Z" fill="#B8CCE6"/>
<path fill-rule="evenodd" clip-rule="evenodd" d="M182.67 404.72C177.47 396.41 151 393.31 146.68 401.44C140.88 412.33 170.65 412.73 182.67 404.72Z" fill="#B8CCE6"/>
<path fill-rule="evenodd" clip-rule="evenodd" d="M167.799 377.02C160.939 373.27 152.819 351.62 159.759 349.25C168.069 346.42 173.599 367.07 167.799 377.02Z" fill="#B8CCE6"/>
<path fill-rule="evenodd" clip-rule="evenodd" d="M166.549 378.18C161.309 372.38 137.449 370.21 137.719 377.54C137.969 384.67 160.309 384.08 166.549 378.18Z" fill="#B8CCE6"/>
<path fill-rule="evenodd" clip-rule="evenodd" d="M178.73 389.55C172.44 383.76 168.54 359.18 175.26 357.31C184.34 354.79 187.51 380.53 178.73 389.55Z" fill="#B8CCE6"/>
<path fill-rule="evenodd" clip-rule="evenodd" d="M177.02 390.3C170.36 383.2 143.88 380.67 144.31 387.42C144.98 397.89 168.97 395.89 177.02 390.3Z" fill="#B8CCE6"/>
<path fill-rule="evenodd" clip-rule="evenodd" d="M110.259 326.551C108.769 322.681 112.209 310.841 115.849 312.231C120.739 314.091 116.029 324.511 110.259 326.551Z" fill="#B8CCE6"/>
<path fill-rule="evenodd" clip-rule="evenodd" d="M109.359 326.641C108.979 322.511 102.499 315.031 99.7494 317.831C96.0994 321.561 103.289 327.371 109.359 326.641Z" fill="#B8CCE6"/>
<path fill-rule="evenodd" clip-rule="evenodd" d="M116.52 338.77C113.82 334.77 115.9 320.55 120.31 321.55C126.22 322.88 122.52 334.96 116.52 338.77Z" fill="#B8CCE6"/>
<path fill-rule="evenodd" clip-rule="evenodd" d="M115.52 339.111C114.02 334.521 102.62 326.121 100.24 330.511C97.3399 335.851 108.82 341.511 115.52 339.111Z" fill="#B8CCE6"/>
<path fill-rule="evenodd" clip-rule="evenodd" d="M125.349 348.54C121.539 344.92 122.639 327.84 127.529 328.51C133.989 329.39 130.839 343.08 125.349 348.54Z" fill="#B8CCE6"/>
<path fill-rule="evenodd" clip-rule="evenodd" d="M124.369 349.14C121.699 344.61 108.669 338.96 106.829 343.75C104.459 349.93 117.809 353.27 124.369 349.14Z" fill="#B8CCE6"/>
<path fill-rule="evenodd" clip-rule="evenodd" d="M138.52 357.9C133.15 354.53 128.89 336.6 134.59 334.93C141.8 332.81 143.71 350.13 138.52 357.9Z" fill="#B8CCE6"/>
<path fill-rule="evenodd" clip-rule="evenodd" d="M137.51 358.84C133.27 354.13 117.12 349.29 115.74 354.74C113.78 362.47 130.74 365.28 137.51 358.84Z" fill="#B8CCE6"/>
<path fill-rule="evenodd" clip-rule="evenodd" d="M153.129 366.25C146.829 362.95 140.209 345.41 145.819 341.79C152.909 337.2 158.249 357.11 153.129 366.25Z" fill="#B8CCE6"/>
<path fill-rule="evenodd" clip-rule="evenodd" d="M152.069 367.4C146.909 362.5 126.299 362.14 127.489 367.89C128.909 374.67 145.069 375.2 152.069 367.4Z" fill="#B8CCE6"/>
<path fill-rule="evenodd" clip-rule="evenodd" d="M185.999 423.73C186.019 427.86 180.309 427.44 181.159 423.11C187.659 356.88 114.839 376.9 106.599 314.99C106.259 312.47 108.499 312.22 108.839 314.74C116.769 374.29 192.819 354.27 185.999 423.73Z" fill="#B8CCE6"/>
<path fill-rule="evenodd" clip-rule="evenodd" d="M108.079 317.7C101.459 313.75 101.719 303.35 105.549 302.66C110.149 301.82 112.139 313.4 108.079 317.7Z" fill="#B8CCE6"/>
<path fill-rule="evenodd" clip-rule="evenodd" d="M186.25 439.03C187.12 439.29 187.18 438.08 186.36 436.34C185.55 434.6 184.18 432.98 183.31 432.72C174.34 430.08 148.35 413.72 122.19 390.62C104.47 374.97 86.7798 356.33 74.5998 337.03C73.5198 335.32 72.2298 334.26 71.7198 334.68C71.2098 335.1 71.6798 336.82 72.7598 338.54C86.0198 359.55 104.77 379.4 123.4 395.84C150.19 419.49 176.95 436.29 186.25 439.03Z" fill="#C9DAF0"/>
<path fill-rule="evenodd" clip-rule="evenodd" d="M141.99 403.96C145.37 396.9 147.61 369.29 138.24 366.51C126.69 363.08 137.56 398.66 138.6 403.24C139.8 408.49 140.1 407.92 141.99 403.96Z" fill="#C9DAF0"/>
<path fill-rule="evenodd" clip-rule="evenodd" d="M125.77 391.49C128.62 385.55 130.5 362.32 122.61 359.97C112.89 357.08 122.04 387.02 122.92 390.88C123.93 395.31 124.18 394.83 125.77 391.49Z" fill="#C9DAF0"/>
<path fill-rule="evenodd" clip-rule="evenodd" d="M112.06 379.24C114.57 374 116.23 353.49 109.27 351.43C100.69 348.88 108.77 375.3 109.54 378.71C110.43 382.6 110.65 382.18 112.06 379.24Z" fill="#C9DAF0"/>
<path fill-rule="evenodd" clip-rule="evenodd" d="M100.99 366.48C102.95 362.4 104.24 346.45 98.82 344.84C92.15 342.86 98.43 363.42 99.03 366.06C99.72 369.1 99.89 368.77 100.99 366.48Z" fill="#C9DAF0"/>
<path fill-rule="evenodd" clip-rule="evenodd" d="M90.4295 354.16C92.0495 350.78 93.1195 337.55 88.6295 336.22C83.0995 334.58 88.2995 351.62 88.7995 353.81C89.3795 356.33 89.5195 356.06 90.4295 354.16Z" fill="#C9DAF0"/>
<path fill-rule="evenodd" clip-rule="evenodd" d="M80.9304 343.91C82.1004 341.46 82.8804 331.88 79.6304 330.91C75.6204 329.72 79.3904 342.07 79.7604 343.66C80.1704 345.48 80.2704 345.28 80.9304 343.91Z" fill="#C9DAF0"/>
<path fill-rule="evenodd" clip-rule="evenodd" d="M73.6599 336.95C73.0899 333.74 67.6699 323.49 64.3299 324.47C60.2199 325.67 71.1999 336 72.5099 337.4C74.0199 339.01 73.9799 338.75 73.6599 336.95Z" fill="#C9DAF0"/>
<path fill-rule="evenodd" clip-rule="evenodd" d="M136.309 409.99C129.309 413.66 101.369 417.22 98.0793 408.15C94.0293 396.98 130.699 405.9 135.399 406.69C140.799 407.62 140.239 407.93 136.309 409.99Z" fill="#C9DAF0"/>
<path fill-rule="evenodd" clip-rule="evenodd" d="M120.83 396.57C114.81 399.47 91.1097 401.73 88.5797 394.06C85.4497 384.6 116.2 393 120.16 393.79C124.69 394.69 124.2 394.95 120.83 396.57Z" fill="#C9DAF0"/>
<path fill-rule="evenodd" clip-rule="evenodd" d="M106.56 383.22C100.98 385.3 79.71 385.55 78.03 378.7C75.97 370.26 102.71 379.79 106.17 380.76C110.14 381.87 109.69 382.06 106.56 383.22Z" fill="#C9DAF0"/>
<path fill-rule="evenodd" clip-rule="evenodd" d="M96.3701 370.75C91.9901 372.28 75.3901 372.17 74.1801 366.83C72.7001 360.25 93.4201 368.03 96.1001 368.83C99.1801 369.75 98.8301 369.89 96.3701 370.75Z" fill="#C9DAF0"/>
<path fill-rule="evenodd" clip-rule="evenodd" d="M85.8803 357.64C82.2803 358.98 68.5603 359.16 67.4803 354.74C66.1403 349.3 83.4003 355.43 85.6303 356.05C88.1903 356.77 87.9003 356.89 85.8803 357.64Z" fill="#C9DAF0"/>
<path fill-rule="evenodd" clip-rule="evenodd" d="M76.9096 346.32C74.2496 347.17 64.2396 346.87 63.5996 343.66C62.7996 339.7 75.1796 344.65 76.7796 345.17C78.6196 345.77 78.4096 345.84 76.9096 346.32Z" fill="#C9DAF0"/>
<path fill-rule="evenodd" clip-rule="evenodd" d="M161.979 417.18C164.959 409.63 165.399 380.8 155.659 378.5C143.659 375.67 157.099 411.95 158.469 416.64C160.039 422.02 160.309 421.41 161.979 417.18Z" fill="#C9DAF0"/>
<path fill-rule="evenodd" clip-rule="evenodd" d="M156.21 424.99C149.91 428.88 124.11 433.87 120.49 425.46C116.04 415.09 150.74 421.43 155.17 421.92C160.25 422.48 159.74 422.81 156.21 424.99Z" fill="#C9DAF0"/>
<path fill-rule="evenodd" clip-rule="evenodd" d="M177.39 428.92C181.13 422.47 185.15 396.53 176.31 393.3C165.41 389.32 173.48 423.63 174.18 428.02C174.97 433.06 175.3 432.54 177.39 428.92Z" fill="#C9DAF0"/>
<path fill-rule="evenodd" clip-rule="evenodd" d="M173.79 434.37C168.12 439.72 142.78 449.84 137.46 441.46C130.91 431.13 167.52 431.55 172.13 431.25C177.42 430.92 176.97 431.38 173.79 434.37Z" fill="#C9DAF0"/>
<path d="M250.079 461.251C332.077 461.251 398.549 452.726 398.549 442.211C398.549 431.695 332.077 423.171 250.079 423.171C168.082 423.171 101.609 431.695 101.609 442.211C101.609 452.726 168.082 461.251 250.079 461.251Z" fill="#C9DAF0"/>
<path fill-rule="evenodd" clip-rule="evenodd" d="M301.55 152.601C300.89 156.501 296.07 161.951 295.74 165.481C294.64 177.081 304.19 187.861 319.79 186.681C341.82 185.001 350.65 185.131 353.1 171.821C355.08 161.061 349.66 158.651 349.39 151.381C349.23 147.191 350.01 144.181 347.48 138.691C340.18 122.841 317.3 122.521 311.37 129.751C309.81 131.651 305.33 131.551 302.53 137.391C300.15 142.361 302.56 146.621 301.55 152.601Z" fill="#002E6C"/>
<path fill-rule="evenodd" clip-rule="evenodd" d="M322.579 259.58C316.809 265.36 303.949 266.98 297.359 265.77C298.879 248.35 301.039 241.07 322.579 259.58Z" fill="white"/>
<path fill-rule="evenodd" clip-rule="evenodd" d="M318.17 438.51C311.72 442.7 295.08 444.85 287.04 443.29C282.54 442.42 282.24 435.92 288.15 433.42C298.35 429.11 307.86 426.09 318.7 423.74C319.63 428.96 321.03 436.65 318.17 438.51Z" fill="#184F96"/>
<path fill-rule="evenodd" clip-rule="evenodd" d="M307.58 426.44C290.9 431.04 318.28 436.84 319.04 426.88C318.04 378.02 321.54 380.22 319.59 344.31C318.76 329.02 298.36 329.99 298.94 346.56C300.08 379.37 310.66 408.83 307.58 426.44Z" fill="#BA8B80"/>
<path fill-rule="evenodd" clip-rule="evenodd" d="M349.03 445.381C344.66 449.361 326.37 452.631 318.26 451.441C313.72 450.771 313.46 444.411 319.25 441.641C329.24 436.861 338.26 433.311 348.98 430.461C350.16 435.641 351.55 443.091 349.03 445.381Z" fill="#184F96"/>
<path fill-rule="evenodd" clip-rule="evenodd" d="M349.44 432.351C347.62 397.981 350.18 377.871 348.54 351.141C347.6 335.821 325.91 336.481 327.25 353.031C329.57 381.751 338.03 415.711 338.29 433.571C322.55 439.011 346.96 442.971 349.44 432.351Z" fill="#BA8B80"/>
<path fill-rule="evenodd" clip-rule="evenodd" d="M358.14 356.66C355.4 323.61 361.41 280.59 344.65 254.93C328.96 248.23 309.28 250.32 300.37 250.21C288.89 282.42 294.13 328.33 291.91 358.07C301.01 359.8 347.3 367.71 358.14 356.66Z" fill="#FF4F4F"/>
<g opacity="0.5">
<path opacity="0.4" fill-rule="evenodd" clip-rule="evenodd" d="M288.03 358.11C289.19 358.11 290.13 359.05 290.13 360.21C290.13 361.37 289.19 362.31 288.03 362.31C286.87 362.31 285.93 361.37 285.93 360.21C285.93 359.05 286.87 358.11 288.03 358.11Z" fill="white"/>
<path opacity="0.4" fill-rule="evenodd" clip-rule="evenodd" d="M300.36 358.11C301.52 358.11 302.46 359.05 302.46 360.21C302.46 361.37 301.52 362.31 300.36 362.31C299.2 362.31 298.26 361.37 298.26 360.21C298.26 359.05 299.2 358.11 300.36 358.11Z" fill="white"/>
<path opacity="0.4" fill-rule="evenodd" clip-rule="evenodd" d="M312.69 358.11C313.85 358.11 314.79 359.05 314.79 360.21C314.79 361.37 313.85 362.31 312.69 362.31C311.53 362.31 310.59 361.37 310.59 360.21C310.59 359.05 311.53 358.11 312.69 358.11Z" fill="white"/>
<path opacity="0.4" fill-rule="evenodd" clip-rule="evenodd" d="M325.03 358.11C326.19 358.11 327.13 359.05 327.13 360.21C327.13 361.37 326.19 362.31 325.03 362.31C323.87 362.31 322.93 361.37 322.93 360.21C322.93 359.05 323.87 358.11 325.03 358.11Z" fill="white"/>
<path opacity="0.4" fill-rule="evenodd" clip-rule="evenodd" d="M337.36 358.11C338.52 358.11 339.46 359.05 339.46 360.21C339.46 361.37 338.52 362.31 337.36 362.31C336.2 362.31 335.26 361.37 335.26 360.21C335.26 359.05 336.2 358.11 337.36 358.11Z" fill="white"/>
<path opacity="0.4" fill-rule="evenodd" clip-rule="evenodd" d="M349.69 358.11C350.85 358.11 351.79 359.05 351.79 360.21C351.79 361.37 350.85 362.31 349.69 362.31C348.53 362.31 347.59 361.37 347.59 360.21C347.59 359.05 348.53 358.11 349.69 358.11Z" fill="white"/>
<path opacity="0.4" fill-rule="evenodd" clip-rule="evenodd" d="M362.03 358.11C363.19 358.11 364.13 359.05 364.13 360.21C364.13 361.37 363.19 362.31 362.03 362.31C360.87 362.31 359.93 361.37 359.93 360.21C359.93 359.05 360.87 358.11 362.03 358.11Z" fill="white"/>
<path opacity="0.4" fill-rule="evenodd" clip-rule="evenodd" d="M294.2 349.141C295.36 349.141 296.3 350.081 296.3 351.241C296.3 352.401 295.36 353.341 294.2 353.341C293.04 353.341 292.1 352.401 292.1 351.241C292.1 350.081 293.03 349.141 294.2 349.141Z" fill="white"/>
<path opacity="0.4" fill-rule="evenodd" clip-rule="evenodd" d="M306.53 349.141C307.69 349.141 308.63 350.081 308.63 351.241C308.63 352.401 307.69 353.341 306.53 353.341C305.37 353.341 304.43 352.401 304.43 351.241C304.43 350.081 305.37 349.141 306.53 349.141Z" fill="white"/>
<path opacity="0.4" fill-rule="evenodd" clip-rule="evenodd" d="M318.86 349.141C320.02 349.141 320.96 350.081 320.96 351.241C320.96 352.401 320.02 353.341 318.86 353.341C317.7 353.341 316.76 352.401 316.76 351.241C316.76 350.081 317.7 349.141 318.86 349.141Z" fill="white"/>
<path opacity="0.4" fill-rule="evenodd" clip-rule="evenodd" d="M331.19 349.141C332.35 349.141 333.29 350.081 333.29 351.241C333.29 352.401 332.35 353.341 331.19 353.341C330.03 353.341 329.09 352.401 329.09 351.241C329.09 350.081 330.03 349.141 331.19 349.141Z" fill="white"/>
<path opacity="0.4" fill-rule="evenodd" clip-rule="evenodd" d="M343.53 349.141C344.69 349.141 345.63 350.081 345.63 351.241C345.63 352.401 344.69 353.341 343.53 353.341C342.37 353.341 341.43 352.401 341.43 351.241C341.43 350.081 342.37 349.141 343.53 349.141Z" fill="white"/>
<path opacity="0.4" fill-rule="evenodd" clip-rule="evenodd" d="M355.86 349.141C357.02 349.141 357.96 350.081 357.96 351.241C357.96 352.401 357.02 353.341 355.86 353.341C354.7 353.341 353.76 352.401 353.76 351.241C353.76 350.081 354.7 349.141 355.86 349.141Z" fill="white"/>
<path opacity="0.4" fill-rule="evenodd" clip-rule="evenodd" d="M288.03 339.891C289.19 339.891 290.13 340.831 290.13 341.991C290.13 343.151 289.19 344.091 288.03 344.091C286.87 344.091 285.93 343.151 285.93 341.991C285.93 340.831 286.87 339.891 288.03 339.891Z" fill="white"/>
<path opacity="0.4" fill-rule="evenodd" clip-rule="evenodd" d="M300.36 339.891C301.52 339.891 302.46 340.831 302.46 341.991C302.46 343.151 301.52 344.091 300.36 344.091C299.2 344.091 298.26 343.151 298.26 341.991C298.26 340.831 299.2 339.891 300.36 339.891Z" fill="white"/>
<path opacity="0.4" fill-rule="evenodd" clip-rule="evenodd" d="M312.69 339.891C313.85 339.891 314.79 340.831 314.79 341.991C314.79 343.151 313.85 344.091 312.69 344.091C311.53 344.091 310.59 343.151 310.59 341.991C310.59 340.831 311.53 339.891 312.69 339.891Z" fill="white"/>
<path opacity="0.4" fill-rule="evenodd" clip-rule="evenodd" d="M325.03 339.891C326.19 339.891 327.13 340.831 327.13 341.991C327.13 343.151 326.19 344.091 325.03 344.091C323.87 344.091 322.93 343.151 322.93 341.991C322.93 340.831 323.87 339.891 325.03 339.891Z" fill="white"/>
<path opacity="0.4" fill-rule="evenodd" clip-rule="evenodd" d="M337.36 339.891C338.52 339.891 339.46 340.831 339.46 341.991C339.46 343.151 338.52 344.091 337.36 344.091C336.2 344.091 335.26 343.151 335.26 341.991C335.26 340.831 336.2 339.891 337.36 339.891Z" fill="white"/>
<path opacity="0.4" fill-rule="evenodd" clip-rule="evenodd" d="M349.69 339.891C350.85 339.891 351.79 340.831 351.79 341.991C351.79 343.151 350.85 344.091 349.69 344.091C348.53 344.091 347.59 343.151 347.59 341.991C347.59 340.831 348.53 339.891 349.69 339.891Z" fill="white"/>
<path opacity="0.4" fill-rule="evenodd" clip-rule="evenodd" d="M362.03 339.891C363.19 339.891 364.13 340.831 364.13 341.991C364.13 343.151 363.19 344.091 362.03 344.091C360.87 344.091 359.93 343.151 359.93 341.991C359.93 340.831 360.87 339.891 362.03 339.891Z" fill="white"/>
<path opacity="0.4" fill-rule="evenodd" clip-rule="evenodd" d="M294.19 330.931C295.35 330.931 296.29 331.871 296.29 333.031C296.29 334.191 295.35 335.131 294.19 335.131C293.03 335.131 292.09 334.191 292.09 333.031C292.09 331.871 293.03 330.931 294.19 330.931Z" fill="white"/>
<path opacity="0.4" fill-rule="evenodd" clip-rule="evenodd" d="M306.53 330.931C307.69 330.931 308.63 331.871 308.63 333.031C308.63 334.191 307.69 335.131 306.53 335.131C305.37 335.131 304.43 334.191 304.43 333.031C304.43 331.871 305.37 330.931 306.53 330.931Z" fill="white"/>
<path opacity="0.4" fill-rule="evenodd" clip-rule="evenodd" d="M318.86 330.931C320.02 330.931 320.96 331.871 320.96 333.031C320.96 334.191 320.02 335.131 318.86 335.131C317.7 335.131 316.76 334.191 316.76 333.031C316.76 331.871 317.7 330.931 318.86 330.931Z" fill="white"/>
<path opacity="0.4" fill-rule="evenodd" clip-rule="evenodd" d="M331.19 330.931C332.35 330.931 333.29 331.871 333.29 333.031C333.29 334.191 332.35 335.131 331.19 335.131C330.03 335.131 329.09 334.191 329.09 333.031C329.09 331.871 330.03 330.931 331.19 330.931Z" fill="white"/>
<path opacity="0.4" fill-rule="evenodd" clip-rule="evenodd" d="M343.53 330.931C344.69 330.931 345.63 331.871 345.63 333.031C345.63 334.191 344.69 335.131 343.53 335.131C342.37 335.131 341.43 334.191 341.43 333.031C341.43 331.871 342.37 330.931 343.53 330.931Z" fill="white"/>
<path opacity="0.4" fill-rule="evenodd" clip-rule="evenodd" d="M355.86 330.931C357.02 330.931 357.96 331.871 357.96 333.031C357.96 334.191 357.02 335.131 355.86 335.131C354.7 335.131 353.76 334.191 353.76 333.031C353.76 331.871 354.7 330.931 355.86 330.931Z" fill="white"/>
<path opacity="0.4" fill-rule="evenodd" clip-rule="evenodd" d="M288.03 321.681C289.19 321.681 290.13 322.621 290.13 323.781C290.13 324.941 289.19 325.881 288.03 325.881C286.87 325.881 285.93 324.941 285.93 323.781C285.93 322.621 286.87 321.681 288.03 321.681Z" fill="white"/>
<path opacity="0.4" fill-rule="evenodd" clip-rule="evenodd" d="M300.36 321.681C301.52 321.681 302.46 322.621 302.46 323.781C302.46 324.941 301.52 325.881 300.36 325.881C299.2 325.881 298.26 324.941 298.26 323.781C298.26 322.621 299.2 321.681 300.36 321.681Z" fill="white"/>
<path opacity="0.4" fill-rule="evenodd" clip-rule="evenodd" d="M312.69 321.681C313.85 321.681 314.79 322.621 314.79 323.781C314.79 324.941 313.85 325.881 312.69 325.881C311.53 325.881 310.59 324.941 310.59 323.781C310.59 322.621 311.53 321.681 312.69 321.681Z" fill="white"/>
<path opacity="0.4" fill-rule="evenodd" clip-rule="evenodd" d="M325.03 321.681C326.19 321.681 327.13 322.621 327.13 323.781C327.13 324.941 326.19 325.881 325.03 325.881C323.87 325.881 322.93 324.941 322.93 323.781C322.93 322.621 323.87 321.681 325.03 321.681Z" fill="white"/>
<path opacity="0.4" fill-rule="evenodd" clip-rule="evenodd" d="M337.36 321.681C338.52 321.681 339.46 322.621 339.46 323.781C339.46 324.941 338.52 325.881 337.36 325.881C336.2 325.881 335.26 324.941 335.26 323.781C335.26 322.621 336.2 321.681 337.36 321.681Z" fill="white"/>
<path opacity="0.4" fill-rule="evenodd" clip-rule="evenodd" d="M349.69 321.681C350.85 321.681 351.79 322.621 351.79 323.781C351.79 324.941 350.85 325.881 349.69 325.881C348.53 325.881 347.59 324.941 347.59 323.781C347.59 322.621 348.53 321.681 349.69 321.681Z" fill="white"/>
<path opacity="0.4" fill-rule="evenodd" clip-rule="evenodd" d="M362.03 321.681C363.19 321.681 364.13 322.621 364.13 323.781C364.13 324.941 363.19 325.881 362.03 325.881C360.87 325.881 359.93 324.941 359.93 323.781C359.93 322.621 360.87 321.681 362.03 321.681Z" fill="white"/>
<path opacity="0.4" fill-rule="evenodd" clip-rule="evenodd" d="M294.19 312.71C295.35 312.71 296.29 313.65 296.29 314.81C296.29 315.97 295.35 316.91 294.19 316.91C293.03 316.91 292.09 315.97 292.09 314.81C292.09 313.65 293.03 312.71 294.19 312.71Z" fill="white"/>
<path opacity="0.4" fill-rule="evenodd" clip-rule="evenodd" d="M306.53 312.71C307.69 312.71 308.63 313.65 308.63 314.81C308.63 315.97 307.69 316.91 306.53 316.91C305.37 316.91 304.43 315.97 304.43 314.81C304.43 313.65 305.37 312.71 306.53 312.71Z" fill="white"/>
<path opacity="0.4" fill-rule="evenodd" clip-rule="evenodd" d="M318.86 312.71C320.02 312.71 320.96 313.65 320.96 314.81C320.96 315.97 320.02 316.91 318.86 316.91C317.7 316.91 316.76 315.97 316.76 314.81C316.76 313.65 317.7 312.71 318.86 312.71Z" fill="white"/>
<path opacity="0.4" fill-rule="evenodd" clip-rule="evenodd" d="M331.19 312.71C332.35 312.71 333.29 313.65 333.29 314.81C333.29 315.97 332.35 316.91 331.19 316.91C330.03 316.91 329.09 315.97 329.09 314.81C329.09 313.65 330.03 312.71 331.19 312.71Z" fill="white"/>
<path opacity="0.4" fill-rule="evenodd" clip-rule="evenodd" d="M343.53 312.71C344.69 312.71 345.63 313.65 345.63 314.81C345.63 315.97 344.69 316.91 343.53 316.91C342.37 316.91 341.43 315.97 341.43 314.81C341.43 313.65 342.37 312.71 343.53 312.71Z" fill="white"/>
<path opacity="0.4" fill-rule="evenodd" clip-rule="evenodd" d="M355.86 312.71C357.02 312.71 357.96 313.65 357.96 314.81C357.96 315.97 357.02 316.91 355.86 316.91C354.7 316.91 353.76 315.97 353.76 314.81C353.76 313.65 354.7 312.71 355.86 312.71Z" fill="white"/>
<path opacity="0.4" fill-rule="evenodd" clip-rule="evenodd" d="M288.03 303.46C289.19 303.46 290.13 304.4 290.13 305.56C290.13 306.72 289.19 307.66 288.03 307.66C286.87 307.66 285.93 306.72 285.93 305.56C285.93 304.4 286.87 303.46 288.03 303.46Z" fill="white"/>
<path opacity="0.4" fill-rule="evenodd" clip-rule="evenodd" d="M300.36 303.46C301.52 303.46 302.46 304.4 302.46 305.56C302.46 306.72 301.52 307.66 300.36 307.66C299.2 307.66 298.26 306.72 298.26 305.56C298.26 304.4 299.2 303.46 300.36 303.46Z" fill="white"/>
<path opacity="0.4" fill-rule="evenodd" clip-rule="evenodd" d="M312.69 303.46C313.85 303.46 314.79 304.4 314.79 305.56C314.79 306.72 313.85 307.66 312.69 307.66C311.53 307.66 310.59 306.72 310.59 305.56C310.59 304.4 311.53 303.46 312.69 303.46Z" fill="white"/>
<path opacity="0.4" fill-rule="evenodd" clip-rule="evenodd" d="M325.03 303.46C326.19 303.46 327.13 304.4 327.13 305.56C327.13 306.72 326.19 307.66 325.03 307.66C323.87 307.66 322.93 306.72 322.93 305.56C322.93 304.4 323.87 303.46 325.03 303.46Z" fill="white"/>
<path opacity="0.4" fill-rule="evenodd" clip-rule="evenodd" d="M337.36 303.46C338.52 303.46 339.46 304.4 339.46 305.56C339.46 306.72 338.52 307.66 337.36 307.66C336.2 307.66 335.26 306.72 335.26 305.56C335.26 304.4 336.2 303.46 337.36 303.46Z" fill="white"/>
<path opacity="0.4" fill-rule="evenodd" clip-rule="evenodd" d="M349.69 303.46C350.85 303.46 351.79 304.4 351.79 305.56C351.79 306.72 350.85 307.66 349.69 307.66C348.53 307.66 347.59 306.72 347.59 305.56C347.59 304.4 348.53 303.46 349.69 303.46Z" fill="white"/>
<path opacity="0.4" fill-rule="evenodd" clip-rule="evenodd" d="M362.03 303.46C363.19 303.46 364.13 304.4 364.13 305.56C364.13 306.72 363.19 307.66 362.03 307.66C360.87 307.66 359.93 306.72 359.93 305.56C359.93 304.4 360.87 303.46 362.03 303.46Z" fill="white"/>
<path opacity="0.4" fill-rule="evenodd" clip-rule="evenodd" d="M294.19 294.5C295.35 294.5 296.29 295.44 296.29 296.6C296.29 297.76 295.35 298.7 294.19 298.7C293.03 298.7 292.09 297.76 292.09 296.6C292.09 295.44 293.03 294.5 294.19 294.5Z" fill="white"/>
<path opacity="0.4" fill-rule="evenodd" clip-rule="evenodd" d="M306.53 294.5C307.69 294.5 308.63 295.44 308.63 296.6C308.63 297.76 307.69 298.7 306.53 298.7C305.37 298.7 304.43 297.76 304.43 296.6C304.43 295.44 305.37 294.5 306.53 294.5Z" fill="white"/>
<path opacity="0.4" fill-rule="evenodd" clip-rule="evenodd" d="M318.86 294.5C320.02 294.5 320.96 295.44 320.96 296.6C320.96 297.76 320.02 298.7 318.86 298.7C317.7 298.7 316.76 297.76 316.76 296.6C316.76 295.44 317.7 294.5 318.86 294.5Z" fill="white"/>
<path opacity="0.4" fill-rule="evenodd" clip-rule="evenodd" d="M331.19 294.5C332.35 294.5 333.29 295.44 333.29 296.6C333.29 297.76 332.35 298.7 331.19 298.7C330.03 298.7 329.09 297.76 329.09 296.6C329.09 295.44 330.03 294.5 331.19 294.5Z" fill="white"/>
<path opacity="0.4" d="M343.53 298.7C344.689 298.7 345.63 297.76 345.63 296.6C345.63 295.44 344.689 294.5 343.53 294.5C342.37 294.5 341.43 295.44 341.43 296.6C341.43 297.76 342.37 298.7 343.53 298.7Z" fill="white"/>
<path opacity="0.4" fill-rule="evenodd" clip-rule="evenodd" d="M355.86 294.5C357.02 294.5 357.96 295.44 357.96 296.6C357.96 297.76 357.02 298.7 355.86 298.7C354.7 298.7 353.76 297.76 353.76 296.6C353.76 295.44 354.7 294.5 355.86 294.5Z" fill="white"/>
<path opacity="0.4" fill-rule="evenodd" clip-rule="evenodd" d="M288.03 285.25C289.19 285.25 290.13 286.19 290.13 287.35C290.13 288.51 289.19 289.45 288.03 289.45C286.87 289.45 285.93 288.51 285.93 287.35C285.93 286.19 286.87 285.25 288.03 285.25Z" fill="white"/>
<path opacity="0.4" fill-rule="evenodd" clip-rule="evenodd" d="M300.36 285.25C301.52 285.25 302.46 286.19 302.46 287.35C302.46 288.51 301.52 289.45 300.36 289.45C299.2 289.45 298.26 288.51 298.26 287.35C298.26 286.19 299.2 285.25 300.36 285.25Z" fill="white"/>
<path opacity="0.4" fill-rule="evenodd" clip-rule="evenodd" d="M312.69 285.25C313.85 285.25 314.79 286.19 314.79 287.35C314.79 288.51 313.85 289.45 312.69 289.45C311.53 289.45 310.59 288.51 310.59 287.35C310.59 286.19 311.53 285.25 312.69 285.25Z" fill="white"/>
<path opacity="0.4" fill-rule="evenodd" clip-rule="evenodd" d="M325.03 285.25C326.19 285.25 327.13 286.19 327.13 287.35C327.13 288.51 326.19 289.45 325.03 289.45C323.87 289.45 322.93 288.51 322.93 287.35C322.93 286.19 323.87 285.25 325.03 285.25Z" fill="white"/>
<path opacity="0.4" fill-rule="evenodd" clip-rule="evenodd" d="M337.36 285.25C338.52 285.25 339.46 286.19 339.46 287.35C339.46 288.51 338.52 289.45 337.36 289.45C336.2 289.45 335.26 288.51 335.26 287.35C335.26 286.19 336.2 285.25 337.36 285.25Z" fill="white"/>
<path opacity="0.4" fill-rule="evenodd" clip-rule="evenodd" d="M349.69 285.25C350.85 285.25 351.79 286.19 351.79 287.35C351.79 288.51 350.85 289.45 349.69 289.45C348.53 289.45 347.59 288.51 347.59 287.35C347.59 286.19 348.53 285.25 349.69 285.25Z" fill="white"/>
<path opacity="0.4" fill-rule="evenodd" clip-rule="evenodd" d="M362.03 285.25C363.19 285.25 364.13 286.19 364.13 287.35C364.13 288.51 363.19 289.45 362.03 289.45C360.87 289.45 359.93 288.51 359.93 287.35C359.93 286.19 360.87 285.25 362.03 285.25Z" fill="white"/>
<path opacity="0.4" fill-rule="evenodd" clip-rule="evenodd" d="M294.19 276.281C295.35 276.281 296.29 277.221 296.29 278.381C296.29 279.541 295.35 280.481 294.19 280.481C293.03 280.481 292.09 279.541 292.09 278.381C292.09 277.221 293.03 276.281 294.19 276.281Z" fill="white"/>
<path opacity="0.4" fill-rule="evenodd" clip-rule="evenodd" d="M306.53 276.281C307.69 276.281 308.63 277.221 308.63 278.381C308.63 279.541 307.69 280.481 306.53 280.481C305.37 280.481 304.43 279.541 304.43 278.381C304.43 277.221 305.37 276.281 306.53 276.281Z" fill="white"/>
<path opacity="0.4" fill-rule="evenodd" clip-rule="evenodd" d="M318.86 276.281C320.02 276.281 320.96 277.221 320.96 278.381C320.96 279.541 320.02 280.481 318.86 280.481C317.7 280.481 316.76 279.541 316.76 278.381C316.76 277.221 317.7 276.281 318.86 276.281Z" fill="white"/>
<path opacity="0.4" fill-rule="evenodd" clip-rule="evenodd" d="M331.19 276.281C332.35 276.281 333.29 277.221 333.29 278.381C333.29 279.541 332.35 280.481 331.19 280.481C330.03 280.481 329.09 279.541 329.09 278.381C329.09 277.221 330.03 276.281 331.19 276.281Z" fill="white"/>
<path opacity="0.4" d="M343.53 280.481C344.689 280.481 345.63 279.54 345.63 278.381C345.63 277.221 344.689 276.281 343.53 276.281C342.37 276.281 341.43 277.221 341.43 278.381C341.43 279.54 342.37 280.481 343.53 280.481Z" fill="white"/>
<path opacity="0.4" fill-rule="evenodd" clip-rule="evenodd" d="M355.86 276.281C357.02 276.281 357.96 277.221 357.96 278.381C357.96 279.541 357.02 280.481 355.86 280.481C354.7 280.481 353.76 279.541 353.76 278.381C353.76 277.221 354.7 276.281 355.86 276.281Z" fill="white"/>
<path opacity="0.4" fill-rule="evenodd" clip-rule="evenodd" d="M288.03 267.031C289.19 267.031 290.13 267.971 290.13 269.131C290.13 270.291 289.19 271.231 288.03 271.231C286.87 271.231 285.93 270.291 285.93 269.131C285.93 267.971 286.87 267.031 288.03 267.031Z" fill="white"/>
<path opacity="0.4" fill-rule="evenodd" clip-rule="evenodd" d="M300.36 267.031C301.52 267.031 302.46 267.971 302.46 269.131C302.46 270.291 301.52 271.231 300.36 271.231C299.2 271.231 298.26 270.291 298.26 269.131C298.26 267.971 299.2 267.031 300.36 267.031Z" fill="white"/>
<path opacity="0.4" fill-rule="evenodd" clip-rule="evenodd" d="M312.69 267.031C313.85 267.031 314.79 267.971 314.79 269.131C314.79 270.291 313.85 271.231 312.69 271.231C311.53 271.231 310.59 270.291 310.59 269.131C310.59 267.971 311.53 267.031 312.69 267.031Z" fill="white"/>
<path opacity="0.4" fill-rule="evenodd" clip-rule="evenodd" d="M325.03 267.031C326.19 267.031 327.13 267.971 327.13 269.131C327.13 270.291 326.19 271.231 325.03 271.231C323.87 271.231 322.93 270.291 322.93 269.131C322.93 267.971 323.87 267.031 325.03 267.031Z" fill="white"/>
<path opacity="0.4" fill-rule="evenodd" clip-rule="evenodd" d="M337.36 267.031C338.52 267.031 339.46 267.971 339.46 269.131C339.46 270.291 338.52 271.231 337.36 271.231C336.2 271.231 335.26 270.291 335.26 269.131C335.26 267.971 336.2 267.031 337.36 267.031Z" fill="white"/>
<path opacity="0.4" fill-rule="evenodd" clip-rule="evenodd" d="M349.69 267.031C350.85 267.031 351.79 267.971 351.79 269.131C351.79 270.291 350.85 271.231 349.69 271.231C348.53 271.231 347.59 270.291 347.59 269.131C347.59 267.971 348.53 267.031 349.69 267.031Z" fill="white"/>
<path opacity="0.4" fill-rule="evenodd" clip-rule="evenodd" d="M362.03 267.031C363.19 267.031 364.13 267.971 364.13 269.131C364.13 270.291 363.19 271.231 362.03 271.231C360.87 271.231 359.93 270.291 359.93 269.131C359.93 267.971 360.87 267.031 362.03 267.031Z" fill="white"/>
</g>
<path fill-rule="evenodd" clip-rule="evenodd" d="M211.57 178.06C217.58 192.82 219.83 203.57 221.73 217.08C223.11 226.94 213.66 228.62 208.53 221.57C199.99 209.84 195.63 198.6 191.41 185.68C186.37 170.32 205.8 163.92 211.57 178.06Z" fill="#C03E3E"/>
<path fill-rule="evenodd" clip-rule="evenodd" d="M205.49 187.49C209.6 195.99 209.74 203.8 209.46 210.65C209.19 217.5 196.99 213.39 196.99 213.39C196.99 213.39 197.95 194.48 205.49 187.49Z" fill="#F08156"/>
<path fill-rule="evenodd" clip-rule="evenodd" d="M298.92 185.41C290.42 192.85 275.79 206.25 268.73 215.07C263.08 222.13 271.71 228.25 279.25 223.25C292.1 214.72 303.59 208.86 314.93 195.98C324.63 184.95 309.24 176.38 298.92 185.41Z" fill="#184F96"/>
<path fill-rule="evenodd" clip-rule="evenodd" d="M293.37 214.15C299.35 209.89 303.97 206.59 309.05 201.93C307.68 196.54 306.11 193 303.36 188.87C297.29 199.64 294.78 204.67 293.37 214.15Z" fill="#002E6C"/>
<path fill-rule="evenodd" clip-rule="evenodd" d="M294.79 267.73C287.42 265.53 303.63 237.55 301.45 230.56C300.18 226.48 294.63 219.25 295.37 212.54C295.91 207.72 298.37 198.2 303.82 182.43C316.34 179.32 329.04 177.64 349.13 184.92C353.42 208.07 344.64 220.57 345.1 238.79C345.3 246.53 355.99 260.5 350.93 264.74C339.08 274.64 310.04 272.3 294.79 267.73Z" fill="#184F96"/>
<path fill-rule="evenodd" clip-rule="evenodd" d="M313.49 180.47C318.23 179.36 322.45 178.78 330.38 180.06C328.39 185.49 320.34 193.22 315.46 195.95C314.21 191.99 313.26 185.17 313.49 180.47Z" fill="#BA8B80"/>
<path fill-rule="evenodd" clip-rule="evenodd" d="M315.06 165.14L328.54 165.19L328.48 181.37C328.46 188.09 314.98 187.64 315 181.32L315.06 165.14Z" fill="#BA8B80"/>
<path fill-rule="evenodd" clip-rule="evenodd" d="M347.88 213.87C350.26 222.43 356.07 229.29 361.05 235.62C366.65 242.72 374.5 243.06 372.6 234.21C369.22 218.48 360.32 192.98 351.18 186.06C343.5 180.24 344.01 199.93 347.88 213.87Z" fill="#184F96"/>
<path fill-rule="evenodd" clip-rule="evenodd" d="M315.04 172.281L328.52 172.331L328.49 180.551C325.05 182.701 317.76 182.141 315.03 175.961L315.04 172.281Z" fill="#947169"/>
<path fill-rule="evenodd" clip-rule="evenodd" d="M325.08 131.381C299.23 127.631 299.03 174.881 318.21 176.341C338.73 177.891 353.17 135.451 325.08 131.381Z" fill="#BA8B80"/>
<path fill-rule="evenodd" clip-rule="evenodd" d="M310.81 150.651C311.55 150.731 312.08 151.401 312 152.161C311.92 152.921 311.26 153.471 310.53 153.401C309.79 153.321 309.26 152.651 309.34 151.891C309.41 151.121 310.07 150.571 310.81 150.651Z" fill="#00204A"/>
<path fill-rule="evenodd" clip-rule="evenodd" d="M323.749 152.09C324.489 152.17 325.019 152.84 324.939 153.6C324.859 154.36 324.199 154.91 323.469 154.84C322.729 154.76 322.199 154.09 322.279 153.33C322.349 152.57 323.009 152.02 323.749 152.09Z" fill="#00204A"/>
<path fill-rule="evenodd" clip-rule="evenodd" d="M316.56 161.291C313.53 160.101 314.58 158.141 315.82 155.531C313.47 157.421 311.96 160.571 316.56 161.291Z" fill="#947169"/>
<path fill-rule="evenodd" clip-rule="evenodd" d="M311.12 163.36C313.77 163.45 317.8 163.81 323.14 164.36C320.42 171.19 312.53 169.74 311.12 163.36Z" fill="#947169"/>
<path fill-rule="evenodd" clip-rule="evenodd" d="M335.25 147.35C335.05 153.58 337.78 158.07 339.73 158.46C341.68 158.85 343.82 147.94 335.25 147.35Z" fill="#002E6C"/>
<path fill-rule="evenodd" clip-rule="evenodd" d="M341.97 154.341C340.87 153.931 339.27 155.521 338.4 157.881C337.53 160.241 337.72 162.491 338.82 162.891C339.92 163.301 341.52 161.711 342.39 159.351C343.26 156.991 343.07 154.751 341.97 154.341Z" fill="#BA8B80"/>
<path fill-rule="evenodd" clip-rule="evenodd" d="M322.7 148.81C321.75 148.84 321.28 147.63 322.48 147.39C324.21 147.05 327.55 147.97 328.5 149.03C329.1 149.7 328.65 150.3 327.83 149.92C326.42 149.27 323.35 148.78 322.7 148.81Z" fill="#002E6C"/>
<path fill-rule="evenodd" clip-rule="evenodd" d="M313.85 147.891C314.69 148.171 315.41 147.111 314.4 146.571C312.94 145.801 310.14 145.811 308.63 146.661C307.88 147.081 308.19 147.871 309.01 147.661C310.15 147.381 313.03 147.621 313.85 147.891Z" fill="#002E6C"/>
<path fill-rule="evenodd" clip-rule="evenodd" d="M181.11 438.121C187.98 442.581 205.69 444.871 214.25 443.211C219.04 442.281 219.36 435.361 213.07 432.701C202.22 428.111 192.09 424.901 180.55 422.391C179.55 427.951 178.07 436.141 181.11 438.121Z" fill="#002E6C"/>
<path fill-rule="evenodd" clip-rule="evenodd" d="M202.18 428.711C197.95 430.781 184.45 431.441 178.85 427.431C176.54 380.141 178.7 366.311 180.12 341.011C180.98 325.601 203.19 327.661 202.58 344.221C201.36 377.251 203.37 416.721 202.18 428.711Z" fill="#4F91E8"/>
<path fill-rule="evenodd" clip-rule="evenodd" d="M178 247.411C179.83 259.121 180.56 272.221 178.07 284.761C176.35 305.621 171.02 329.911 169.3 350.771C168.44 361.171 146.09 361.351 146.08 348.681C146.05 315.651 140.69 283.261 147.2 246.061C156.22 246.081 168.99 247.411 178 247.411Z" fill="#4F91E8"/>
<path d="M169.14 259.781C166.74 263.461 159.25 269.671 156.28 271.651" stroke="#66A1ED" stroke-width="1.9199" stroke-miterlimit="22.9256" stroke-linecap="round" stroke-linejoin="round"/>
<path fill-rule="evenodd" clip-rule="evenodd" d="M174.74 247.411C172.91 259.121 172.6 276.051 175.09 288.591C176.47 309.561 179.13 325.851 180.5 346.821C181.18 357.231 202.32 358.411 202.36 345.741C202.48 312.711 205.31 284.341 202.97 247.091C193.56 247.201 184.15 247.311 174.74 247.411Z" fill="#4F91E8"/>
<path d="M194.72 256.811C197.12 260.491 204.61 266.701 207.58 268.681" stroke="#66A1ED" stroke-width="1.9199" stroke-miterlimit="22.9256" stroke-linecap="round" stroke-linejoin="round"/>
<path d="M184.45 259.051C184.24 263.601 184.86 273.831 182.8 274.141C180.73 274.451 178.25 274.551 178.25 274.551" stroke="#66A1ED" stroke-width="1.9199" stroke-miterlimit="22.9256" stroke-linecap="round" stroke-linejoin="round"/>
<path d="M176.689 300.85C179.539 317.97 182.709 335.09 183.349 343.01C183.979 350.94 179.549 395.95 181.759 422.58" stroke="#66A1ED" stroke-width="1.9199" stroke-miterlimit="22.9256" stroke-linecap="round" stroke-linejoin="round"/>
<path opacity="0.5" fill-rule="evenodd" clip-rule="evenodd" d="M177.49 314.841C179.34 303.911 180.74 293.601 179.78 274.841C178.66 285.971 177.05 296.491 175.89 303.241C176.4 306.341 176.98 310.081 177.49 314.841Z" fill="#1F4C87"/>
<path fill-rule="evenodd" clip-rule="evenodd" d="M144.13 443.7C150.69 448.6 168.21 452.05 176.86 450.96C181.7 450.35 182.48 443.47 176.38 440.4C165.85 435.1 155.96 431.24 144.61 427.98C143.24 433.45 141.22 441.53 144.13 443.7Z" fill="#002E6C"/>
<path fill-rule="evenodd" clip-rule="evenodd" d="M164.77 434.63C160.07 437.81 150.59 438.15 141.64 434.13C140.17 396.48 144.77 366.94 147.21 341.64C148.7 326.22 171.48 326.2 170.21 342.9C167.69 376.19 166.43 422.64 164.77 434.63Z" fill="#4F91E8"/>
<path d="M154.81 255.201C150.69 278.981 150.05 342.061 148.79 352.211C147.52 362.351 144.99 419.731 145.3 428.931" stroke="#66A1ED" stroke-width="1.9199" stroke-miterlimit="22.9256" stroke-linecap="round" stroke-linejoin="round"/>
<path fill-rule="evenodd" clip-rule="evenodd" d="M206.09 211.501C209.38 211.641 214.24 211.331 215.88 212.831C217.52 214.341 213.39 207.321 206.09 207.991C204.59 208.821 204.31 210.411 206.09 211.501Z" fill="#E07348"/>
<path fill-rule="evenodd" clip-rule="evenodd" d="M208.15 172.49C209.45 192.54 207.04 208.41 205.15 222.23C203.62 233.41 208.79 242.29 205.81 258.42C185.85 266.15 163.83 266.59 144.28 256.98C140.75 251.85 150.03 238.88 149.85 226.55C149.62 211.54 138.98 193.72 140.41 173.49C161.28 160.12 200.21 164.89 208.15 172.49Z" fill="#FF4F4F"/>
<path fill-rule="evenodd" clip-rule="evenodd" d="M158.6 217.23C153.23 215.33 148.69 213.1 149.49 211.95C150.72 210.17 158.54 214.62 162.72 214.62C161.32 213.87 159.01 212.47 159.38 211.55C160.67 208.36 175.64 219.29 174.01 223.63C171.29 230.87 147.72 223.99 148.61 221.03C148.93 219.98 151.03 221.77 156.07 222.27C151.16 221.02 145.71 219.37 146.5 217.39C146.94 216.29 153.53 219.33 157.49 219.9C153.29 218.28 145.69 215.65 146.49 214.37C147.56 212.7 154.12 216.55 158.6 217.23Z" fill="#FBC9BE"/>
<path fill-rule="evenodd" clip-rule="evenodd" d="M175.58 133.25C180.63 133.08 184.9 137.01 185.06 141.97L185.9 167.56C186.04 171.78 187.87 179.48 181.66 180.1C172.48 181.02 167.69 173.12 167.52 168.16L166.68 142.57C166.53 137.61 170.53 133.42 175.58 133.25Z" fill="#FBC9BE"/>
<path fill-rule="evenodd" clip-rule="evenodd" d="M185.75 162.98L167.08 154.54L167.53 168.16C172.83 170.85 182.13 169.41 185.75 162.98Z" fill="#D9ABA1"/>
<path fill-rule="evenodd" clip-rule="evenodd" d="M168.68 112.031C185.22 107.401 192.58 122.301 194.43 137.501C195.92 149.711 195.44 161.041 187.45 164.271C177.68 168.221 162.83 161.781 159.2 153.041C152.9 137.901 150.82 117.031 168.68 112.031Z" fill="#FBC9BE"/>
<path fill-rule="evenodd" clip-rule="evenodd" d="M182.88 131.831C181.56 132.201 180.78 130.48 182.04 129.92C184.41 128.87 187.59 128.57 189.81 130.15C190.92 130.94 190.28 132.15 188.99 131.7C187.36 131.12 184.52 131.381 182.88 131.831Z" fill="#233147"/>
<path fill-rule="evenodd" clip-rule="evenodd" d="M179.89 149.78C183.88 148.71 182.83 146.08 181.64 142.62C184.33 145.34 185.8 149.52 179.89 149.78Z" fill="#D9ABA1"/>
<path fill-rule="evenodd" clip-rule="evenodd" d="M189.43 149.211C186.49 151.101 180.29 153.071 174.12 152.901C177.84 155.311 188.04 152.821 189.43 149.211Z" fill="#D9ABA1"/>
<path fill-rule="evenodd" clip-rule="evenodd" d="M173.839 131.98C175.209 132 175.169 133.9 173.809 134.07C172.649 134.22 170.049 135.01 167.989 136.38C166.849 137.13 166.069 136.38 166.779 135.22C168.199 132.89 171.249 131.93 173.839 131.98Z" fill="#233147"/>
<path fill-rule="evenodd" clip-rule="evenodd" d="M186.86 153.73C184.75 154.49 181.67 155.45 179.31 155.85C180.78 157.19 186.35 155.84 186.86 153.73Z" fill="#D9ABA1"/>
<path fill-rule="evenodd" clip-rule="evenodd" d="M173.07 139.96C173.84 139.74 174.65 140.21 174.87 141.01C175.09 141.81 174.65 142.63 173.88 142.84C173.11 143.06 172.3 142.59 172.08 141.79C171.85 141 172.3 140.18 173.07 139.96Z" fill="#00204A"/>
<path fill-rule="evenodd" clip-rule="evenodd" d="M186.4 136.571C187.17 136.351 187.98 136.821 188.2 137.621C188.42 138.421 187.98 139.241 187.21 139.451C186.44 139.671 185.63 139.201 185.41 138.401C185.19 137.611 185.63 136.791 186.4 136.571Z" fill="#00204A"/>
<path fill-rule="evenodd" clip-rule="evenodd" d="M177.06 219.57C180.48 228.91 171.27 233.52 164.55 227.96C151.95 217.52 144.46 206.88 138.19 194.55C127.25 173.06 147.22 160.6 161.95 188.85C168.38 201.17 170.95 202.9 177.06 219.57Z" fill="#C03E3E"/>
<path fill-rule="evenodd" clip-rule="evenodd" d="M168.69 200.64C166.09 203.24 162.87 211.2 163.28 218.73C168.08 215.03 171.52 205.55 171.52 205.55L168.69 200.64Z" fill="#E07348"/>
<path opacity="0.08" fill-rule="evenodd" clip-rule="evenodd" d="M324.94 156.651C327.26 157.161 328.94 158.671 328.68 160.021C328.42 161.371 326.32 162.051 324 161.541C321.68 161.031 320 159.521 320.26 158.171C320.52 156.821 322.62 156.141 324.94 156.651Z" fill="#FF5765"/>
<path opacity="0.08" fill-rule="evenodd" clip-rule="evenodd" d="M309.14 155.35C306.95 155.45 305.179 156.65 305.189 158.02C305.189 159.39 306.969 160.42 309.149 160.32C311.339 160.22 313.109 159.02 313.099 157.65C313.099 156.28 311.33 155.25 309.14 155.35Z" fill="#FF5765"/>
<path opacity="0.08" fill-rule="evenodd" clip-rule="evenodd" d="M188.799 140.491C191.129 140.191 193.179 141.041 193.389 142.381C193.589 143.721 191.869 145.051 189.539 145.341C187.209 145.631 185.159 144.791 184.949 143.451C184.749 142.111 186.469 140.781 188.799 140.491Z" fill="#FF5765"/>
<path opacity="0.08" fill-rule="evenodd" clip-rule="evenodd" d="M171.6 145.441C169.38 146.211 167.92 147.881 168.33 149.171C168.74 150.461 170.87 150.891 173.09 150.121C175.31 149.351 176.77 147.681 176.36 146.391C175.95 145.101 173.82 144.681 171.6 145.441Z" fill="#FF5765"/>
<path fill-rule="evenodd" clip-rule="evenodd" d="M251.53 187.901C251.24 189.841 253.69 191.811 254.51 193.891C259.14 205.631 262.53 213.431 267.43 221.891C271.88 229.571 282.12 222.611 279.22 214.221C275.64 203.851 269.61 196.551 264.71 187.311C263.83 185.651 264.02 182.531 262.36 181.961C258.61 180.691 252.01 184.611 251.53 187.901Z" fill="#184F96"/>
<path fill-rule="evenodd" clip-rule="evenodd" d="M383.76 200.01C386.21 203.02 382.63 209.76 381.79 214.15C380.23 222.21 378.99 229.44 375.12 237.1C371.03 245.2 360.12 240.08 362.38 231.32C364.34 223.73 366.77 217.36 369.1 210.73C370.62 206.41 369.68 198.18 374.86 196.75C377.71 195.96 381.28 196.96 383.76 200.01Z" fill="#184F96"/>
<path fill-rule="evenodd" clip-rule="evenodd" d="M312.8 163.62C314.93 163.75 317.69 163.99 321.03 164.33C320.79 165.71 312.51 164.79 312.8 163.62Z" fill="white"/>
<path fill-rule="evenodd" clip-rule="evenodd" d="M167.63 212.99C177.93 212.69 208.77 210.22 215.26 212.3C224.74 215.35 223 226.98 213.13 228.24C207.43 228.97 178.07 228.91 166.48 227.05C165.58 222.09 166.08 216.85 167.63 212.99Z" fill="#C03E3E"/>
<path fill-rule="evenodd" clip-rule="evenodd" d="M186.9 211.921C185.42 217.331 181.43 224.381 176.63 227.951C174.01 215.701 175.14 211.751 186.9 211.921Z" fill="#E07348"/>
<path fill-rule="evenodd" clip-rule="evenodd" d="M202.92 428.561C198.69 430.631 184.04 431.761 178.44 427.751C178.27 424.301 178.13 421.031 178 417.921C184.2 421.021 198.37 420.081 203.29 418.351C203.27 422.671 203.16 426.171 202.92 428.561Z" fill="#66A1ED"/>
<path fill-rule="evenodd" clip-rule="evenodd" d="M165.52 435.331C161.29 437.401 146.64 438.531 141.04 434.521C140.87 431.071 140.97 427.881 140.84 424.761C147.04 427.861 160.97 426.841 165.89 425.111C165.86 429.441 165.75 432.931 165.52 435.331Z" fill="#66A1ED"/>
<path fill-rule="evenodd" clip-rule="evenodd" d="M276.12 206.83C279.43 210.76 281.05 215.15 282.01 218.74C282.91 213.48 280.69 209.17 276.12 206.83Z" fill="#002E6C"/>
<path fill-rule="evenodd" clip-rule="evenodd" d="M367.12 216.301C363.99 220.381 363.18 227.691 362.38 231.321C360.37 226.101 362.67 218.841 367.12 216.301Z" fill="#002E6C"/>
<path fill-rule="evenodd" clip-rule="evenodd" d="M345.72 205.261C345.96 207.251 347.05 211.641 348.26 215.141C348.03 216.321 347.91 216.891 347.67 218.051C345.5 214.721 345.04 209.481 345.72 205.261Z" fill="#002E6C"/>
<path fill-rule="evenodd" clip-rule="evenodd" d="M311.48 131.181C309.14 140.731 331.94 155.341 344.41 154.171C356.88 153.001 339.73 123.191 311.48 131.181Z" fill="#002E6C"/>
<path fill-rule="evenodd" clip-rule="evenodd" d="M305.08 149.191C307.31 141.571 311.63 137.301 317.64 135.321C317.26 133.001 315.3 130.311 315.3 130.311C315.3 130.311 304.96 135.041 305.08 149.191Z" fill="#002E6C"/>
<path fill-rule="evenodd" clip-rule="evenodd" d="M156.81 119.571C171.64 133.161 180.56 120.911 188.5 123.851C193.4 125.661 193.5 133.311 194.51 137.821C195.6 135.531 197.47 125.721 194.66 122.881C191.57 119.761 197.45 109.201 184.09 110.571C178.59 111.131 162.67 101.251 156.81 119.571Z" fill="#184F96"/>
<path fill-rule="evenodd" clip-rule="evenodd" d="M163.08 115.491C167.6 123.891 164.08 127.821 160.2 131.161C156.44 134.401 164.32 146.101 156.87 147.361C154.05 143.221 145.99 128.251 151.5 125.181C154.38 123.571 150.36 113.631 163.08 115.491Z" fill="#184F96"/>
<path fill-rule="evenodd" clip-rule="evenodd" d="M190.51 122.9C183.74 114.47 168.021 129.08 160.521 116.72C169.191 102.8 183.38 116.76 187.4 112.83C183.76 118.1 168.191 111.26 163.101 116.46C166.521 120.86 187.95 111.83 190.51 122.9Z" fill="#2F69B5"/>
<path fill-rule="evenodd" clip-rule="evenodd" d="M160.79 116.441C153.01 117.121 156.68 123.121 153.65 125.381C156.66 124.831 158.97 116.991 162.58 117.981C162.72 117.291 162.64 116.281 160.79 116.441Z" fill="#2F69B5"/>
<path fill-rule="evenodd" clip-rule="evenodd" d="M154.35 142.16C155.54 141.56 157.54 143.14 158.83 145.68C160.12 148.22 160.2 150.77 159.01 151.37C157.82 151.97 155.82 150.4 154.53 147.85C153.25 145.31 153.17 142.76 154.35 142.16Z" fill="#FBC9BE"/>
<path fill-rule="evenodd" clip-rule="evenodd" d="M345.49 150.47C332.64 153.55 314.78 137.62 313.24 132.1C314.19 133.2 331.51 145.18 345.49 150.47Z" fill="#043A80"/>
<path fill-rule="evenodd" clip-rule="evenodd" d="M302.58 144.94C301.43 138.9 305.65 133.51 309.52 132.61C307.08 134.62 303.22 140.53 302.58 144.94Z" fill="#043A80"/>
<path fill-rule="evenodd" clip-rule="evenodd" d="M194.1 152.05C194.5 149.5 194.45 148.42 193.11 148.52C190.8 148.5 188.95 157.82 186.39 161.47C182.3 161.22 180.48 157.52 179.49 157.91C176.34 159.13 183.37 175.24 186.53 177.47C193.48 182.35 203.52 155.49 200.55 155.61C199.81 155.64 199.62 158.09 197.5 162.01C196.51 161.11 195.63 161.76 194.32 161.22C195.48 156.57 197.65 149.4 196.05 149.32C195.12 149.29 194.55 150.03 194.1 152.05Z" fill="#D9ABA1"/>
<path fill-rule="evenodd" clip-rule="evenodd" d="M191.74 160.26C193.37 154.42 194.87 149.11 193.37 149.1C191.06 149.08 189.34 159.94 186.78 163.58C182.69 163.33 180.8 158.29 179.82 158.68C176.93 159.84 184.72 175.37 187.88 177.6C194.83 182.48 203.71 155.8 200.59 154.78C199.49 154.42 200.3 156.46 197.65 161.15C199.56 156.11 200.8 150.03 198.59 149.5C197.37 149.21 196.65 157.14 194.72 160.94C195.88 156.29 198.23 148.06 196.63 147.98C194.55 147.87 193.89 155.94 191.74 160.26Z" fill="#FBC9BE"/>
<path fill-rule="evenodd" clip-rule="evenodd" d="M182.72 174.51C178.7 184 163.66 213.64 163.25 220.44C162.64 230.38 174.81 233.17 179.57 224.43C182.32 219.38 193.76 190.02 196.25 178.54C191.94 175.91 186.88 174.48 182.72 174.51Z" fill="#C03E3E"/>
<path fill-rule="evenodd" clip-rule="evenodd" d="M315.02 175.961C313.74 178.131 312.83 178.991 311.55 181.161C311.43 188.951 313.48 193.141 315.46 195.941C314.98 191.791 315.17 183.181 315.02 175.961Z" fill="#FFAF8F"/>
<path fill-rule="evenodd" clip-rule="evenodd" d="M328.63 174.83C329.45 176.92 330.45 179.05 330.84 180.82C328.29 187.03 322.47 194.24 315.47 195.94C321.25 191.9 326.5 183.1 328.63 174.83Z" fill="#FFAF8F"/>
<path fill-rule="evenodd" clip-rule="evenodd" d="M315.02 175.961C312.18 178.661 310.42 180.941 308.13 184.821C310.5 183.961 313.19 182.561 315.08 182.821C315.24 180.301 314.8 179.411 315.02 175.961Z" fill="#FFAF8F"/>
<path fill-rule="evenodd" clip-rule="evenodd" d="M328.63 174.83C331.42 179.21 333.75 182.84 334.53 187.62C330.69 185.14 328.49 184.41 325.46 183.11C326.79 180.48 327.78 177.92 328.63 174.83Z" fill="#FFAF8F"/>
<path fill-rule="evenodd" clip-rule="evenodd" d="M144.13 443.701C150.69 448.601 168.21 452.051 176.86 450.961C179 450.691 180.35 449.191 180.66 447.341C179.98 447.951 179.1 448.371 178.03 448.501C168.71 449.671 149.84 445.961 142.78 440.681C142.76 440.661 142.74 440.651 142.72 440.631C142.88 442.001 143.31 443.091 144.13 443.701Z" fill="#001E45"/>
<path fill-rule="evenodd" clip-rule="evenodd" d="M181.11 438.12C187.98 442.57 205.69 444.86 214.25 443.21C216.37 442.8 217.62 441.21 217.8 439.34C217.17 439.99 216.31 440.47 215.25 440.67C206.03 442.46 186.95 439.99 179.56 435.19C179.54 435.18 179.52 435.16 179.5 435.15C179.75 436.5 180.25 437.56 181.11 438.12Z" fill="#001E45"/>
<path fill-rule="evenodd" clip-rule="evenodd" d="M349.03 445.38C344.66 449.36 326.37 452.63 318.26 451.44C316.28 451.15 315.12 449.77 314.91 448.09C315.49 448.6 316.24 448.96 317.16 449.09C325.74 450.35 345.12 446.88 349.74 442.67C349.98 442.45 350.19 442.18 350.37 441.87C350.23 443.4 349.83 444.65 349.03 445.38Z" fill="#0C3D7D"/>
<path fill-rule="evenodd" clip-rule="evenodd" d="M318.17 438.51C313.62 442.28 295.19 444.7 287.15 443.14C285.19 442.76 284.09 441.33 283.96 439.63C284.51 440.17 285.25 440.56 286.16 440.74C294.68 442.39 314.19 439.84 319.01 435.84C319.26 435.63 319.49 435.37 319.68 435.07C319.46 436.59 319 437.82 318.17 438.51Z" fill="#0C3D7D"/>
<path fill-rule="evenodd" clip-rule="evenodd" d="M388.59 191.52C394.06 189.62 398.69 187.38 397.88 186.2C396.64 184.38 385.61 189.6 381.35 189.58C380.9 186.72 384.03 184.82 383.57 183.55C382.52 180.68 374.25 189.51 374.64 197.66C374.74 199.73 377.31 201.68 381.52 201.39C389.29 200.86 399.29 197.39 398.71 195.43C398.39 194.37 396.25 196.17 391.12 196.65C396.12 195.4 401.67 193.76 400.88 191.74C400.44 190.62 393.72 193.68 389.69 194.24C393.97 192.61 401.71 189.98 400.9 188.67C399.85 186.97 393.16 190.85 388.59 191.52Z" fill="#BA8B80"/>
<path fill-rule="evenodd" clip-rule="evenodd" d="M246.36 178.101C240.65 177.101 235.73 175.631 236.34 174.331C237.28 172.341 249 175.541 253.2 174.841C253.19 171.951 249.2 170.511 250.05 169.431C251.73 167.281 260.15 174.101 261.5 180.941C262.34 185.181 259.73 185.831 254.89 186.561C247.19 187.721 236.74 185.621 237 183.591C237.14 182.491 239.55 183.921 244.69 183.581C239.56 183.151 233.82 182.411 234.27 180.291C234.52 179.111 241.65 181.061 245.72 180.971C241.24 180.051 233.17 178.681 233.76 177.271C234.53 175.421 241.75 178.181 246.36 178.101Z" fill="#BA8B80"/>
<path fill-rule="evenodd" clip-rule="evenodd" d="M293.33 63.7104L305.49 66.6404C306.86 61.3404 309.79 59.3204 314.14 60.3704C318.04 61.3104 319.94 63.5604 319.04 67.2804C316.98 75.8004 305.88 73.9604 302.58 87.6304L314.38 90.4804C316.89 80.1004 330.98 81.6204 334.21 68.2204C336.61 58.2804 330.59 50.9104 318.7 48.0404C306.02 44.9904 296.57 50.6904 293.33 63.7104ZM306.63 95.7504C302.19 94.6804 298.34 97.0404 297.25 101.56C296.16 106.09 298.49 110.03 302.93 111.1C307.37 112.17 311.33 109.75 312.42 105.22C313.52 100.7 311.07 96.8204 306.63 95.7504Z" fill="#9ABBE6"/>
<path fill-rule="evenodd" clip-rule="evenodd" d="M227.43 119.381L236.24 120.441C236.77 116.591 238.66 114.931 241.82 115.311C244.65 115.651 246.17 117.071 245.85 119.771C245.11 125.941 237.13 125.571 235.94 135.471L244.49 136.501C245.4 128.981 255.45 128.881 256.62 119.181C257.49 111.981 252.64 107.291 244.02 106.251C234.82 105.131 228.63 109.931 227.43 119.381ZM239.45 140.851C236.24 140.461 233.71 142.441 233.32 145.721C232.93 149.001 234.9 151.581 238.11 151.971C241.32 152.361 243.92 150.321 244.31 147.041C244.71 143.761 242.67 141.241 239.45 140.851Z" fill="#9ABBE6"/>
<path fill-rule="evenodd" clip-rule="evenodd" d="M142.23 71.0108L150.91 68.8808C150.04 65.0608 151.24 62.8208 154.34 62.0608C157.13 61.3808 159.07 62.1708 159.72 64.8408C161.21 70.9208 153.56 73.4108 155.96 83.1608L164.39 81.0908C162.57 73.6808 172.02 70.0108 169.66 60.4508C167.92 53.3508 161.68 50.6508 153.19 52.7408C144.13 54.9608 140 61.6908 142.23 71.0108ZM161.2 86.9808C158.03 87.7608 156.36 90.5208 157.15 93.7508C157.94 96.9808 160.72 98.7208 163.89 97.9408C167.06 97.1608 168.78 94.3208 167.98 91.0908C167.19 87.8608 164.37 86.2008 161.2 86.9808Z" fill="#9ABBE6"/>
</svg>
