<svg width="158" height="139" viewBox="0 0 158 139" fill="none" xmlns="http://www.w3.org/2000/svg">
<path d="M4.97 1H1V4.97H4.97V1Z" stroke="#5B5B5B" stroke-width="1.0782" stroke-miterlimit="10"/>
<path d="M35.3098 1H31.3398V4.97H35.3098V1Z" stroke="#5B5B5B" stroke-width="1.0782" stroke-miterlimit="10"/>
<path d="M65.6399 1H61.6699V4.97H65.6399V1Z" stroke="#5B5B5B" stroke-width="1.0782" stroke-miterlimit="10"/>
<path d="M95.9798 1H92.0098V4.97H95.9798V1Z" stroke="#5B5B5B" stroke-width="1.0782" stroke-miterlimit="10"/>
<path d="M126.32 1H122.35V4.97H126.32V1Z" stroke="#5B5B5B" stroke-width="1.0782" stroke-miterlimit="10"/>
<path d="M156.65 1H152.68V4.97H156.65V1Z" stroke="#5B5B5B" stroke-width="1.0782" stroke-miterlimit="10"/>
<path d="M4.97 23.1201H1V27.0901H4.97V23.1201Z" stroke="#5B5B5B" stroke-width="1.0782" stroke-miterlimit="10"/>
<path d="M35.3098 23.1201H31.3398V27.0901H35.3098V23.1201Z" stroke="#5B5B5B" stroke-width="1.0782" stroke-miterlimit="10"/>
<path d="M65.6399 23.1201H61.6699V27.0901H65.6399V23.1201Z" stroke="#5B5B5B" stroke-width="1.0782" stroke-miterlimit="10"/>
<path d="M95.9798 23.1201H92.0098V27.0901H95.9798V23.1201Z" stroke="#5B5B5B" stroke-width="1.0782" stroke-miterlimit="10"/>
<path d="M126.32 23.1201H122.35V27.0901H126.32V23.1201Z" stroke="#5B5B5B" stroke-width="1.0782" stroke-miterlimit="10"/>
<path d="M156.65 23.1201H152.68V27.0901H156.65V23.1201Z" stroke="#5B5B5B" stroke-width="1.0782" stroke-miterlimit="10"/>
<path d="M4.97 45.2305H1V49.2005H4.97V45.2305Z" stroke="#5B5B5B" stroke-width="1.0782" stroke-miterlimit="10"/>
<path d="M35.3098 45.2305H31.3398V49.2005H35.3098V45.2305Z" stroke="#5B5B5B" stroke-width="1.0782" stroke-miterlimit="10"/>
<path d="M65.6399 45.2305H61.6699V49.2005H65.6399V45.2305Z" stroke="#5B5B5B" stroke-width="1.0782" stroke-miterlimit="10"/>
<path d="M95.9798 45.2305H92.0098V49.2005H95.9798V45.2305Z" stroke="#5B5B5B" stroke-width="1.0782" stroke-miterlimit="10"/>
<path d="M126.32 45.2305H122.35V49.2005H126.32V45.2305Z" stroke="#5B5B5B" stroke-width="1.0782" stroke-miterlimit="10"/>
<path d="M156.65 45.2305H152.68V49.2005H156.65V45.2305Z" stroke="#5B5B5B" stroke-width="1.0782" stroke-miterlimit="10"/>
<path d="M4.97 67.3398H1V71.3098H4.97V67.3398Z" stroke="#5B5B5B" stroke-width="1.0782" stroke-miterlimit="10"/>
<path d="M35.3098 67.3398H31.3398V71.3098H35.3098V67.3398Z" stroke="#5B5B5B" stroke-width="1.0782" stroke-miterlimit="10"/>
<path d="M65.6399 67.3398H61.6699V71.3098H65.6399V67.3398Z" stroke="#5B5B5B" stroke-width="1.0782" stroke-miterlimit="10"/>
<path d="M95.9798 67.3398H92.0098V71.3098H95.9798V67.3398Z" stroke="#5B5B5B" stroke-width="1.0782" stroke-miterlimit="10"/>
<path d="M126.32 67.3398H122.35V71.3098H126.32V67.3398Z" stroke="#5B5B5B" stroke-width="1.0782" stroke-miterlimit="10"/>
<path d="M156.65 67.3398H152.68V71.3098H156.65V67.3398Z" stroke="#5B5B5B" stroke-width="1.0782" stroke-miterlimit="10"/>
<path d="M4.97 89.46H1V93.43H4.97V89.46Z" stroke="#5B5B5B" stroke-width="1.0782" stroke-miterlimit="10"/>
<path d="M35.3098 89.46H31.3398V93.43H35.3098V89.46Z" fill="#5B5B5B"/>
<path d="M65.6399 89.46H61.6699V93.43H65.6399V89.46Z" fill="#5B5B5B"/>
<path d="M95.9798 89.46H92.0098V93.43H95.9798V89.46Z" stroke="#5B5B5B" stroke-width="1.0782" stroke-miterlimit="10"/>
<path d="M126.32 89.46H122.35V93.43H126.32V89.46Z" stroke="#5B5B5B" stroke-width="1.0782" stroke-miterlimit="10"/>
<path d="M156.65 89.46H152.68V93.43H156.65V89.46Z" stroke="#5B5B5B" stroke-width="1.0782" stroke-miterlimit="10"/>
<path d="M4.97 111.57H1V115.54H4.97V111.57Z" stroke="#5B5B5B" stroke-width="1.0782" stroke-miterlimit="10"/>
<path d="M35.3098 111.57H31.3398V115.54H35.3098V111.57Z" stroke="#5B5B5B" stroke-width="1.0782" stroke-miterlimit="10"/>
<path d="M65.6399 111.57H61.6699V115.54H65.6399V111.57Z" stroke="#5B5B5B" stroke-width="1.0782" stroke-miterlimit="10"/>
<path d="M95.9798 111.57H92.0098V115.54H95.9798V111.57Z" fill="#5B5B5B"/>
<path d="M126.32 111.57H122.35V115.54H126.32V111.57Z" stroke="#5B5B5B" stroke-width="1.0782" stroke-miterlimit="10"/>
<path d="M156.65 111.57H152.68V115.54H156.65V111.57Z" stroke="#5B5B5B" stroke-width="1.0782" stroke-miterlimit="10"/>
<path d="M4.97 133.68H1V137.65H4.97V133.68Z" stroke="#5B5B5B" stroke-width="1.0782" stroke-miterlimit="10"/>
<path d="M35.3098 133.68H31.3398V137.65H35.3098V133.68Z" stroke="#5B5B5B" stroke-width="1.0782" stroke-miterlimit="10"/>
<path d="M65.6399 133.68H61.6699V137.65H65.6399V133.68Z" stroke="#5B5B5B" stroke-width="1.0782" stroke-miterlimit="10"/>
<path d="M95.9798 133.68H92.0098V137.65H95.9798V133.68Z" stroke="#5B5B5B" stroke-width="1.0782" stroke-miterlimit="10"/>
<path d="M126.32 133.68H122.35V137.65H126.32V133.68Z" fill="#5B5B5B"/>
<path d="M156.65 133.68H152.68V137.65H156.65V133.68Z" stroke="#5B5B5B" stroke-width="1.0782" stroke-miterlimit="10"/>
</svg>
