<svg width="30" height="30" viewBox="0 0 30 30" fill="none" xmlns="http://www.w3.org/2000/svg">
<path d="M29.394 20.683H27.4242V5.22256C27.4242 3.89418 26.3435 2.81348 25.0151 2.81348H4.98486C3.65648 2.81348 2.57578 3.89418 2.57578 5.22256V20.683H0.606035C0.271348 20.683 0 20.9544 0 21.2891V22.1577C0 23.8509 1.37754 25.2285 3.07072 25.2285H24.8486L26.6284 27.0083C26.7468 27.1266 26.9019 27.1858 27.057 27.1858C27.2121 27.1858 27.3671 27.1266 27.4855 27.0083L29.414 25.0799C29.5276 24.9662 29.5915 24.812 29.5915 24.6513C29.5915 24.4906 29.5277 24.3365 29.414 24.2228L29.2984 24.1071C29.736 23.5765 30 22.8977 30 22.1577V21.2891C30 20.9544 29.7286 20.683 29.394 20.683ZM3.78785 5.22256C3.78785 4.5625 4.3248 4.02561 4.9848 4.02561H25.0151C25.6752 4.02561 26.2121 4.5625 26.2121 5.22256V20.683H25.8743L21.0805 15.8893H23.9333C24.268 15.8893 24.5394 15.6179 24.5394 15.2832C24.5394 14.9486 24.268 14.6772 23.9333 14.6772H21.0793C21.585 13.2745 21.6064 11.7352 21.1431 10.321H21.5455C21.8801 10.321 22.1515 10.0496 22.1515 9.71494C22.1515 9.38025 21.8801 9.10891 21.5455 9.10891H20.6064C20.318 8.60184 19.9582 8.12453 19.5262 7.69252C19.4928 7.65912 19.459 7.62631 19.425 7.59373H21.3258C21.6605 7.59373 21.9318 7.32232 21.9318 6.9877C21.9318 6.65301 21.6604 6.38166 21.3258 6.38166H17.8121C17.7727 6.38166 17.7342 6.3857 17.6969 6.39291C16.808 5.9657 15.8275 5.73994 14.8121 5.73994C13.8057 5.73994 12.8333 5.96166 11.9505 6.38166H5.90912C5.57438 6.38166 5.30309 6.65307 5.30309 6.9877C5.30309 7.32238 5.57443 7.59373 5.90912 7.59373H10.1994C10.1654 7.62637 10.1316 7.65912 10.0982 7.69252C9.67002 8.12066 9.30744 8.59691 9.01512 9.10891H7.33336C6.99861 9.10891 6.72732 9.38031 6.72732 9.71494C6.72732 10.0496 6.99867 10.321 7.33336 10.321H8.4767C8.3168 10.8084 8.21367 11.3161 8.16984 11.8362H5.90912C5.57438 11.8362 5.30309 12.1076 5.30309 12.4422C5.30309 12.7768 5.57443 13.0482 5.90912 13.0482H8.17605C8.22545 13.5687 8.33502 14.0764 8.50096 14.5634H7.33336C6.99861 14.5634 6.72732 14.8348 6.72732 15.1694C6.72732 15.5041 6.99867 15.7755 7.33336 15.7755H9.05672C9.3416 16.2603 9.69 16.7123 10.0981 17.1205C10.1562 17.1786 10.2154 17.235 10.2751 17.2906H7.33336C6.99861 17.2906 6.72732 17.562 6.72732 17.8966C6.72732 18.2313 6.99867 18.5027 7.33336 18.5027H12.1053C12.9464 18.8765 13.8642 19.0731 14.8121 19.0731C15.9152 19.0731 16.9772 18.8067 17.9251 18.305L20.3031 20.6829H3.78785V5.22256ZM18.6691 16.2633C17.6388 17.2936 16.2691 17.861 14.8121 17.861C14.004 17.861 13.223 17.6858 12.5116 17.3545C12.4979 17.3477 12.484 17.341 12.4697 17.3353C11.9146 17.071 11.4027 16.711 10.9551 16.2634C9.92484 15.2332 9.35754 13.8634 9.35754 12.4064C9.35754 10.9495 9.9249 9.57971 10.9552 8.54945C11.9854 7.5192 13.3552 6.95189 14.8121 6.95189C16.2691 6.95189 17.6388 7.5192 18.6691 8.54945C20.7958 10.6762 20.7958 14.1367 18.6691 16.2633ZM3.07072 24.0163C2.04586 24.0163 1.21213 23.1826 1.21213 22.1577V21.8951H3.18182H21.5152L23.6364 24.0163H3.07072ZM27.0569 25.7226L18.9602 17.6259C19.1567 17.4691 19.3458 17.3008 19.5262 17.1205C19.7074 16.9393 19.8754 16.7501 20.0312 16.5542L28.1283 24.6512L27.0569 25.7226ZM28.7879 22.1577C28.7879 22.5633 28.6566 22.9382 28.4352 23.244L27.0864 21.8952H28.7879V22.1577Z" fill="#2E2E2E"/>
<path d="M16.9336 11.0625V10.4347C16.9336 9.26504 15.982 8.31348 14.8124 8.31348C13.6427 8.31348 12.6912 9.26504 12.6912 10.4347V11.0625C12.2588 11.1553 11.9336 11.5402 11.9336 11.9998V14.9301C11.9336 15.459 12.3638 15.8892 12.8927 15.8892H16.7321C17.2609 15.8892 17.6912 15.4589 17.6912 14.9302V11.9999C17.6911 11.5402 17.3659 11.1553 16.9336 11.0625ZM13.9032 10.4346C13.9032 9.93336 14.311 9.52555 14.8123 9.52555C15.3136 9.52555 15.7214 9.93336 15.7214 10.4346V11.0407H13.9032V10.4346ZM16.479 14.6771H13.1457V12.2528H13.2972H16.3275H16.479V14.6771Z" fill="#2E2E2E"/>
<path d="M23.8785 7.59391H23.933C24.2677 7.59391 24.5391 7.3225 24.5391 6.98787C24.5391 6.65318 24.2677 6.38184 23.933 6.38184H23.8785C23.5438 6.38184 23.2725 6.65324 23.2725 6.98787C23.2725 7.3225 23.5439 7.59391 23.8785 7.59391Z" fill="#2E2E2E"/>
</svg>
