<svg width="30" height="26" viewBox="0 0 30 26" fill="none" xmlns="http://www.w3.org/2000/svg">
<path d="M29.394 18.683H27.4242V3.22256C27.4242 1.89418 26.3435 0.813477 25.0151 0.813477H4.98486C3.65648 0.813477 2.57578 1.89418 2.57578 3.22256V18.683H0.606035C0.271348 18.683 0 18.9544 0 19.2891V20.1577C0 21.8509 1.37754 23.2285 3.07072 23.2285H24.8486L26.6284 25.0083C26.7468 25.1266 26.9019 25.1858 27.057 25.1858C27.2121 25.1858 27.3671 25.1266 27.4855 25.0083L29.414 23.0799C29.5276 22.9662 29.5915 22.812 29.5915 22.6513C29.5915 22.4906 29.5277 22.3365 29.414 22.2228L29.2984 22.1071C29.736 21.5765 30 20.8977 30 20.1577V19.2891C30 18.9544 29.7286 18.683 29.394 18.683ZM3.78785 3.22256C3.78785 2.5625 4.3248 2.02561 4.9848 2.02561H25.0151C25.6752 2.02561 26.2121 2.5625 26.2121 3.22256V18.683H25.8743L21.0805 13.8893H23.9333C24.268 13.8893 24.5394 13.6179 24.5394 13.2832C24.5394 12.9486 24.268 12.6772 23.9333 12.6772H21.0793C21.585 11.2745 21.6064 9.7352 21.1431 8.32098H21.5455C21.8801 8.32098 22.1515 8.04957 22.1515 7.71494C22.1515 7.38025 21.8801 7.10891 21.5455 7.10891H20.6064C20.318 6.60184 19.9582 6.12453 19.5262 5.69252C19.4928 5.65912 19.459 5.62631 19.425 5.59373H21.3258C21.6605 5.59373 21.9318 5.32232 21.9318 4.9877C21.9318 4.65301 21.6604 4.38166 21.3258 4.38166H17.8121C17.7727 4.38166 17.7342 4.3857 17.6969 4.39291C16.808 3.9657 15.8275 3.73994 14.8121 3.73994C13.8057 3.73994 12.8333 3.96166 11.9505 4.38166H5.90912C5.57438 4.38166 5.30309 4.65307 5.30309 4.9877C5.30309 5.32238 5.57443 5.59373 5.90912 5.59373H10.1994C10.1654 5.62637 10.1316 5.65912 10.0982 5.69252C9.67002 6.12066 9.30744 6.59691 9.01512 7.10891H7.33336C6.99861 7.10891 6.72732 7.38031 6.72732 7.71494C6.72732 8.04963 6.99867 8.32098 7.33336 8.32098H8.4767C8.3168 8.80836 8.21367 9.31613 8.16984 9.83615H5.90912C5.57438 9.83615 5.30309 10.1076 5.30309 10.4422C5.30309 10.7768 5.57443 11.0482 5.90912 11.0482H8.17605C8.22545 11.5687 8.33502 12.0764 8.50096 12.5634H7.33336C6.99861 12.5634 6.72732 12.8348 6.72732 13.1694C6.72732 13.5041 6.99867 13.7755 7.33336 13.7755H9.05672C9.3416 14.2603 9.69 14.7123 10.0981 15.1205C10.1562 15.1786 10.2154 15.235 10.2751 15.2906H7.33336C6.99861 15.2906 6.72732 15.562 6.72732 15.8966C6.72732 16.2313 6.99867 16.5027 7.33336 16.5027H12.1053C12.9464 16.8765 13.8642 17.0731 14.8121 17.0731C15.9152 17.0731 16.9772 16.8067 17.9251 16.305L20.3031 18.6829H3.78785V3.22256ZM18.6691 14.2633C17.6388 15.2936 16.2691 15.861 14.8121 15.861C14.004 15.861 13.223 15.6858 12.5116 15.3545C12.4979 15.3477 12.484 15.341 12.4697 15.3353C11.9146 15.071 11.4027 14.711 10.9551 14.2634C9.92484 13.2332 9.35754 11.8634 9.35754 10.4064C9.35754 8.94945 9.9249 7.57971 10.9552 6.54945C11.9854 5.5192 13.3552 4.95189 14.8121 4.95189C16.2691 4.95189 17.6388 5.5192 18.6691 6.54945C20.7958 8.67623 20.7958 12.1367 18.6691 14.2633ZM3.07072 22.0163C2.04586 22.0163 1.21213 21.1826 1.21213 20.1577V19.8951H3.18182H21.5152L23.6364 22.0163H3.07072ZM27.0569 23.7226L18.9602 15.6259C19.1567 15.4691 19.3458 15.3008 19.5262 15.1205C19.7074 14.9393 19.8754 14.7501 20.0312 14.5542L28.1283 22.6512L27.0569 23.7226ZM28.7879 20.1577C28.7879 20.5633 28.6566 20.9382 28.4352 21.244L27.0864 19.8952H28.7879V20.1577Z" fill="white"/>
<path d="M16.9336 9.06246V8.43469C16.9336 7.26504 15.982 6.31348 14.8124 6.31348C13.6427 6.31348 12.6912 7.26504 12.6912 8.43469V9.06246C12.2588 9.15533 11.9336 9.54018 11.9336 9.99984V12.9301C11.9336 13.459 12.3638 13.8892 12.8927 13.8892H16.7321C17.2609 13.8892 17.6912 13.4589 17.6912 12.9302V9.9999C17.6911 9.54018 17.3659 9.15533 16.9336 9.06246ZM13.9032 8.43463C13.9032 7.93336 14.311 7.52555 14.8123 7.52555C15.3136 7.52555 15.7214 7.93336 15.7214 8.43463V9.04066H13.9032V8.43463ZM16.479 12.6771H13.1457V10.2528H13.2972H16.3275H16.479V12.6771Z" fill="white"/>
<path d="M23.8795 5.59391H23.934C24.2687 5.59391 24.5401 5.3225 24.5401 4.98787C24.5401 4.65318 24.2687 4.38184 23.934 4.38184H23.8795C23.5448 4.38184 23.2734 4.65324 23.2734 4.98787C23.2734 5.3225 23.5448 5.59391 23.8795 5.59391Z" fill="white"/>
</svg>
