<svg width="1440" height="585" viewBox="0 0 1440 585" fill="none" xmlns="http://www.w3.org/2000/svg">
<rect width="1440" height="585" fill="#FDEDEA"/>
<path d="M675.97 73H672V76.97H675.97V73Z" stroke="white" stroke-width="1.0782" stroke-miterlimit="10"/>
<path d="M706.31 73H702.34V76.97H706.31V73Z" stroke="white" stroke-width="1.0782" stroke-miterlimit="10"/>
<path d="M736.64 73H732.67V76.97H736.64V73Z" stroke="white" stroke-width="1.0782" stroke-miterlimit="10"/>
<path d="M766.98 73H763.01V76.97H766.98V73Z" stroke="white" stroke-width="1.0782" stroke-miterlimit="10"/>
<path d="M797.32 73H793.35V76.97H797.32V73Z" stroke="white" stroke-width="1.0782" stroke-miterlimit="10"/>
<path d="M827.65 73H823.68V76.97H827.65V73Z" stroke="white" stroke-width="1.0782" stroke-miterlimit="10"/>
<path d="M675.97 95.1201H672V99.0901H675.97V95.1201Z" stroke="white" stroke-width="1.0782" stroke-miterlimit="10"/>
<path d="M706.31 95.1201H702.34V99.0901H706.31V95.1201Z" stroke="white" stroke-width="1.0782" stroke-miterlimit="10"/>
<path d="M736.64 95.1201H732.67V99.0901H736.64V95.1201Z" stroke="white" stroke-width="1.0782" stroke-miterlimit="10"/>
<path d="M766.98 95.1201H763.01V99.0901H766.98V95.1201Z" stroke="white" stroke-width="1.0782" stroke-miterlimit="10"/>
<path d="M797.32 95.1201H793.35V99.0901H797.32V95.1201Z" stroke="white" stroke-width="1.0782" stroke-miterlimit="10"/>
<path d="M827.65 95.1201H823.68V99.0901H827.65V95.1201Z" stroke="white" stroke-width="1.0782" stroke-miterlimit="10"/>
<path d="M675.97 117.23H672V121.2H675.97V117.23Z" stroke="white" stroke-width="1.0782" stroke-miterlimit="10"/>
<path d="M706.31 117.23H702.34V121.2H706.31V117.23Z" stroke="white" stroke-width="1.0782" stroke-miterlimit="10"/>
<path d="M736.64 117.23H732.67V121.2H736.64V117.23Z" stroke="white" stroke-width="1.0782" stroke-miterlimit="10"/>
<path d="M766.98 117.23H763.01V121.2H766.98V117.23Z" stroke="white" stroke-width="1.0782" stroke-miterlimit="10"/>
<path d="M797.32 117.23H793.35V121.2H797.32V117.23Z" stroke="white" stroke-width="1.0782" stroke-miterlimit="10"/>
<path d="M827.65 117.23H823.68V121.2H827.65V117.23Z" stroke="white" stroke-width="1.0782" stroke-miterlimit="10"/>
<path d="M675.97 139.34H672V143.31H675.97V139.34Z" stroke="white" stroke-width="1.0782" stroke-miterlimit="10"/>
<path d="M706.31 139.34H702.34V143.31H706.31V139.34Z" stroke="white" stroke-width="1.0782" stroke-miterlimit="10"/>
<path d="M736.64 139.34H732.67V143.31H736.64V139.34Z" stroke="white" stroke-width="1.0782" stroke-miterlimit="10"/>
<path d="M766.98 139.34H763.01V143.31H766.98V139.34Z" stroke="white" stroke-width="1.0782" stroke-miterlimit="10"/>
<path d="M797.32 139.34H793.35V143.31H797.32V139.34Z" stroke="white" stroke-width="1.0782" stroke-miterlimit="10"/>
<path d="M827.65 139.34H823.68V143.31H827.65V139.34Z" stroke="white" stroke-width="1.0782" stroke-miterlimit="10"/>
<path d="M675.97 161.46H672V165.43H675.97V161.46Z" stroke="white" stroke-width="1.0782" stroke-miterlimit="10"/>
<path d="M706.31 161.46H702.34V165.43H706.31V161.46Z" fill="white"/>
<path d="M736.64 161.46H732.67V165.43H736.64V161.46Z" fill="white"/>
<path d="M766.98 161.46H763.01V165.43H766.98V161.46Z" stroke="white" stroke-width="1.0782" stroke-miterlimit="10"/>
<path d="M797.32 161.46H793.35V165.43H797.32V161.46Z" stroke="white" stroke-width="1.0782" stroke-miterlimit="10"/>
<path d="M827.65 161.46H823.68V165.43H827.65V161.46Z" stroke="white" stroke-width="1.0782" stroke-miterlimit="10"/>
<path d="M675.97 183.57H672V187.54H675.97V183.57Z" stroke="white" stroke-width="1.0782" stroke-miterlimit="10"/>
<path d="M706.31 183.57H702.34V187.54H706.31V183.57Z" stroke="white" stroke-width="1.0782" stroke-miterlimit="10"/>
<path d="M736.64 183.57H732.67V187.54H736.64V183.57Z" stroke="white" stroke-width="1.0782" stroke-miterlimit="10"/>
<path d="M766.98 183.57H763.01V187.54H766.98V183.57Z" fill="white"/>
<path d="M797.32 183.57H793.35V187.54H797.32V183.57Z" stroke="white" stroke-width="1.0782" stroke-miterlimit="10"/>
<path d="M827.65 183.57H823.68V187.54H827.65V183.57Z" stroke="white" stroke-width="1.0782" stroke-miterlimit="10"/>
<path d="M675.97 205.68H672V209.65H675.97V205.68Z" stroke="white" stroke-width="1.0782" stroke-miterlimit="10"/>
<path d="M706.31 205.68H702.34V209.65H706.31V205.68Z" stroke="white" stroke-width="1.0782" stroke-miterlimit="10"/>
<path d="M736.64 205.68H732.67V209.65H736.64V205.68Z" stroke="white" stroke-width="1.0782" stroke-miterlimit="10"/>
<path d="M766.98 205.68H763.01V209.65H766.98V205.68Z" stroke="white" stroke-width="1.0782" stroke-miterlimit="10"/>
<path d="M797.32 205.68H793.35V209.65H797.32V205.68Z" fill="white"/>
<path d="M827.65 205.68H823.68V209.65H827.65V205.68Z" stroke="white" stroke-width="1.0782" stroke-miterlimit="10"/>
<path d="M1334.85 440.881L1338.82 440.881L1338.82 436.911L1334.85 436.911L1334.85 440.881Z" fill="#E8481F" fill-opacity="0.6"/>
<path d="M1310.88 440.881L1314.85 440.881L1314.85 436.911L1310.88 436.911L1310.88 440.881Z" fill="#E8481F" fill-opacity="0.6"/>
<path d="M1286.91 440.881L1290.88 440.881L1290.88 436.911L1286.91 436.911L1286.91 440.881Z" fill="#E8481F" fill-opacity="0.6"/>
<path d="M1262.94 440.881L1266.91 440.881L1266.91 436.911L1262.94 436.911L1262.94 440.881Z" fill="#E8481F" fill-opacity="0.6"/>
<path d="M1238.97 440.881L1242.94 440.881L1242.94 436.911L1238.97 436.911L1238.97 440.881Z" fill="#E8481F" fill-opacity="0.6"/>
<path d="M1215 440.881L1218.97 440.881L1218.97 436.911L1215 436.911L1215 440.881Z" fill="#E8481F" fill-opacity="0.6"/>
<path d="M1334.85 425.911L1338.82 425.911L1338.82 421.941L1334.85 421.941L1334.85 425.911Z" fill="#E8481F" fill-opacity="0.6"/>
<path d="M1310.88 425.911L1314.85 425.911L1314.85 421.941L1310.88 421.941L1310.88 425.911Z" fill="#E8481F" fill-opacity="0.6"/>
<path d="M1286.91 425.911L1290.88 425.911L1290.88 421.941L1286.91 421.941L1286.91 425.911Z" fill="#E8481F" fill-opacity="0.6"/>
<path d="M1262.94 425.911L1266.91 425.911L1266.91 421.941L1262.94 421.941L1262.94 425.911Z" fill="#E8481F" fill-opacity="0.6"/>
<path d="M1238.97 425.911L1242.94 425.911L1242.94 421.941L1238.97 421.941L1238.97 425.911Z" fill="#E8481F" fill-opacity="0.6"/>
<path d="M1215 425.911L1218.97 425.911L1218.97 421.941L1215 421.941L1215 425.911Z" fill="#E8481F" fill-opacity="0.6"/>
<path d="M1334.85 410.94L1338.82 410.94L1338.82 406.97L1334.85 406.97L1334.85 410.94Z" fill="#E8481F" fill-opacity="0.6"/>
<path d="M1310.88 410.94L1314.85 410.94L1314.85 406.97L1310.88 406.97L1310.88 410.94Z" fill="#E8481F" fill-opacity="0.6"/>
<path d="M1286.91 410.94L1290.88 410.94L1290.88 406.97L1286.91 406.97L1286.91 410.94Z" fill="#E8481F" fill-opacity="0.6"/>
<path d="M1262.94 410.94L1266.91 410.94L1266.91 406.97L1262.94 406.97L1262.94 410.94Z" fill="#E8481F" fill-opacity="0.6"/>
<path d="M1238.97 410.94L1242.94 410.94L1242.94 406.97L1238.97 406.97L1238.97 410.94Z" fill="#E8481F" fill-opacity="0.6"/>
<path d="M1215 410.94L1218.97 410.94L1218.97 406.97L1215 406.97L1215 410.94Z" fill="#E8481F" fill-opacity="0.6"/>
<path d="M1334.85 395.97L1338.82 395.97L1338.82 392L1334.85 392L1334.85 395.97Z" fill="#E8481F" fill-opacity="0.6"/>
<path d="M1310.88 395.97L1314.85 395.97L1314.85 392L1310.88 392L1310.88 395.97Z" fill="#E8481F" fill-opacity="0.6"/>
<path d="M1286.91 395.97L1290.88 395.97L1290.88 392L1286.91 392L1286.91 395.97Z" fill="#E8481F" fill-opacity="0.6"/>
<path d="M1262.94 395.97L1266.91 395.97L1266.91 392L1262.94 392L1262.94 395.97Z" fill="#E8481F" fill-opacity="0.6"/>
<path d="M1238.97 395.97L1242.94 395.97L1242.94 392L1238.97 392L1238.97 395.97Z" fill="#E8481F" fill-opacity="0.6"/>
<path d="M1215 395.97L1218.97 395.97L1218.97 392L1215 392L1215 395.97Z" fill="#E8481F" fill-opacity="0.6"/>
<path d="M1334.85 499.881L1338.82 499.881L1338.82 495.911L1334.85 495.911L1334.85 499.881Z" fill="#E8481F" fill-opacity="0.6"/>
<path d="M1310.88 499.881L1314.85 499.881L1314.85 495.911L1310.88 495.911L1310.88 499.881Z" fill="#E8481F" fill-opacity="0.6"/>
<path d="M1286.91 499.881L1290.88 499.881L1290.88 495.911L1286.91 495.911L1286.91 499.881Z" fill="#E8481F" fill-opacity="0.6"/>
<path d="M1262.94 499.881L1266.91 499.881L1266.91 495.911L1262.94 495.911L1262.94 499.881Z" fill="#E8481F" fill-opacity="0.6"/>
<path d="M1238.97 499.881L1242.94 499.881L1242.94 495.911L1238.97 495.911L1238.97 499.881Z" fill="#E8481F" fill-opacity="0.6"/>
<path d="M1215 499.881L1218.97 499.881L1218.97 495.911L1215 495.911L1215 499.881Z" fill="#E8481F" fill-opacity="0.6"/>
<path d="M1334.85 484.911L1338.82 484.911L1338.82 480.941L1334.85 480.941L1334.85 484.911Z" fill="#E8481F" fill-opacity="0.6"/>
<path d="M1310.88 484.911L1314.85 484.911L1314.85 480.941L1310.88 480.941L1310.88 484.911Z" fill="#E8481F" fill-opacity="0.6"/>
<path d="M1286.91 484.911L1290.88 484.911L1290.88 480.941L1286.91 480.941L1286.91 484.911Z" fill="#E8481F" fill-opacity="0.6"/>
<path d="M1262.94 484.911L1266.91 484.911L1266.91 480.941L1262.94 480.941L1262.94 484.911Z" fill="#E8481F" fill-opacity="0.6"/>
<path d="M1238.97 484.911L1242.94 484.911L1242.94 480.941L1238.97 480.941L1238.97 484.911Z" fill="#E8481F" fill-opacity="0.6"/>
<path d="M1215 484.911L1218.97 484.911L1218.97 480.941L1215 480.941L1215 484.911Z" fill="#E8481F" fill-opacity="0.6"/>
<path d="M1334.85 469.94L1338.82 469.94L1338.82 465.97L1334.85 465.97L1334.85 469.94Z" fill="#E8481F" fill-opacity="0.6"/>
<path d="M1310.88 469.94L1314.85 469.94L1314.85 465.97L1310.88 465.97L1310.88 469.94Z" fill="#E8481F" fill-opacity="0.6"/>
<path d="M1286.91 469.94L1290.88 469.94L1290.88 465.97L1286.91 465.97L1286.91 469.94Z" fill="#E8481F" fill-opacity="0.6"/>
<path d="M1262.94 469.94L1266.91 469.94L1266.91 465.97L1262.94 465.97L1262.94 469.94Z" fill="#E8481F" fill-opacity="0.6"/>
<path d="M1238.97 469.94L1242.94 469.94L1242.94 465.97L1238.97 465.97L1238.97 469.94Z" fill="#E8481F" fill-opacity="0.6"/>
<path d="M1215 469.94L1218.97 469.94L1218.97 465.97L1215 465.97L1215 469.94Z" fill="#E8481F" fill-opacity="0.6"/>
<path d="M1334.85 454.97L1338.82 454.97L1338.82 451L1334.85 451L1334.85 454.97Z" fill="#E8481F" fill-opacity="0.6"/>
<path d="M1310.88 454.97L1314.85 454.97L1314.85 451L1310.88 451L1310.88 454.97Z" fill="#E8481F" fill-opacity="0.6"/>
<path d="M1286.91 454.97L1290.88 454.97L1290.88 451L1286.91 451L1286.91 454.97Z" fill="#E8481F" fill-opacity="0.6"/>
<path d="M1262.94 454.97L1266.91 454.97L1266.91 451L1262.94 451L1262.94 454.97Z" fill="#E8481F" fill-opacity="0.6"/>
<path d="M1238.97 454.97L1242.94 454.97L1242.94 451L1238.97 451L1238.97 454.97Z" fill="#E8481F" fill-opacity="0.6"/>
<path d="M1215 454.97L1218.97 454.97L1218.97 451L1215 451L1215 454.97Z" fill="#E8481F" fill-opacity="0.6"/>
<g opacity="0.5">
<path d="M590 579.91H652.75" stroke="#E84420" stroke-width="0.1477" stroke-miterlimit="10"/>
<path d="M598.9 571.01H661.65" stroke="#E84420" stroke-width="0.1997" stroke-miterlimit="10"/>
<path d="M607.8 562.11H670.55" stroke="#E84420" stroke-width="0.2517" stroke-miterlimit="10"/>
<path d="M616.7 553.21H679.45" stroke="#E84420" stroke-width="0.3037" stroke-miterlimit="10"/>
<path d="M625.6 544.31H688.35" stroke="#E84420" stroke-width="0.3557" stroke-miterlimit="10"/>
<path d="M634.5 535.41H697.25" stroke="#E84420" stroke-width="0.4077" stroke-miterlimit="10"/>
<path d="M643.4 526.51H706.15" stroke="#E84420" stroke-width="0.4597" stroke-miterlimit="10"/>
<path d="M652.3 517.61H715.05" stroke="#E84420" stroke-width="0.5117" stroke-miterlimit="10"/>
<path d="M661.2 508.71H723.95" stroke="#E84420" stroke-width="0.5637" stroke-miterlimit="10"/>
<path d="M670.1 499.81H732.85" stroke="#E84420" stroke-width="0.6157" stroke-miterlimit="10"/>
<path d="M679 490.91H741.75" stroke="#E84420" stroke-width="0.6677" stroke-miterlimit="10"/>
<path d="M687.9 482.01H750.65" stroke="#E84420" stroke-width="0.7197" stroke-miterlimit="10"/>
<path d="M696.8 473.11H759.55" stroke="#E84420" stroke-width="0.7717" stroke-miterlimit="10"/>
<path d="M705.7 464.21H768.45" stroke="#E84420" stroke-width="0.8237" stroke-miterlimit="10"/>
<path d="M714.6 455.31H777.35" stroke="#E84420" stroke-width="0.8756" stroke-miterlimit="10"/>
<path d="M723.5 446.41H786.25" stroke="#E84420" stroke-width="0.9276" stroke-miterlimit="10"/>
<path d="M732.4 437.51H795.15" stroke="#E84420" stroke-width="0.9796" stroke-miterlimit="10"/>
<path d="M741.3 428.61H804.05" stroke="#E84420" stroke-width="1.0316" stroke-miterlimit="10"/>
<path d="M750.2 419.71H812.95" stroke="#E84420" stroke-width="1.0836" stroke-miterlimit="10"/>
<path d="M759.1 410.81H821.85" stroke="#E84420" stroke-width="1.1356" stroke-miterlimit="10"/>
<path d="M768 401.91H830.75" stroke="#E84420" stroke-width="1.1876" stroke-miterlimit="10"/>
<path d="M776.9 393.01H839.65" stroke="#E84420" stroke-width="1.2396" stroke-miterlimit="10"/>
<path d="M785.81 384.11H848.55" stroke="#E84420" stroke-width="1.2916" stroke-miterlimit="10"/>
<path d="M794.71 375.21H857.45" stroke="#E84420" stroke-width="1.3436" stroke-miterlimit="10"/>
<path d="M803.61 366.31H866.35" stroke="#E84420" stroke-width="1.3956" stroke-miterlimit="10"/>
<path d="M812.51 357.41H875.25" stroke="#E84420" stroke-width="1.4476" stroke-miterlimit="10"/>
<path d="M821.41 348.51H884.15" stroke="#E84420" stroke-width="1.4995" stroke-miterlimit="10"/>
<path d="M830.31 339.61H893.05" stroke="#E84420" stroke-width="1.5516" stroke-miterlimit="10"/>
<path d="M839.21 330.71H901.95" stroke="#E84420" stroke-width="1.6035" stroke-miterlimit="10"/>
<path d="M848.11 321.81H910.85" stroke="#E84420" stroke-width="1.6555" stroke-miterlimit="10"/>
<path d="M857.01 312.91H919.75" stroke="#E84420" stroke-width="1.7075" stroke-miterlimit="10"/>
<path d="M865.91 304.01H928.65" stroke="#E84420" stroke-width="1.7595" stroke-miterlimit="10"/>
<path d="M874.81 295.11H937.55" stroke="#E84420" stroke-width="1.8115" stroke-miterlimit="10"/>
<path d="M883.71 286.21H946.45" stroke="#E84420" stroke-width="1.8635" stroke-miterlimit="10"/>
<path d="M892.61 277.31H955.35" stroke="#E84420" stroke-width="1.9155" stroke-miterlimit="10"/>
<path d="M901.51 268.41H964.25" stroke="#E84420" stroke-width="1.9675" stroke-miterlimit="10"/>
<path d="M910.41 259.5H973.15" stroke="#E84420" stroke-width="2.0195" stroke-miterlimit="10"/>
<path d="M919.31 250.6H982.05" stroke="#E84420" stroke-width="2.0715" stroke-miterlimit="10"/>
<path d="M928.21 241.7H990.95" stroke="#E84420" stroke-width="2.1235" stroke-miterlimit="10"/>
<path d="M937.11 232.8H999.85" stroke="#E84420" stroke-width="2.1755" stroke-miterlimit="10"/>
<path d="M946.01 223.9H1008.75" stroke="#E84420" stroke-width="2.2274" stroke-miterlimit="10"/>
<path d="M954.91 215H1017.65" stroke="#E84420" stroke-width="2.2794" stroke-miterlimit="10"/>
<path d="M963.81 206.1H1026.56" stroke="#E84420" stroke-width="2.3314" stroke-miterlimit="10"/>
<path d="M972.71 197.2H1035.46" stroke="#E84420" stroke-width="2.3834" stroke-miterlimit="10"/>
<path d="M981.61 188.3H1044.36" stroke="#E84420" stroke-width="2.4354" stroke-miterlimit="10"/>
<path d="M990.51 179.4H1053.26" stroke="#E84420" stroke-width="2.4874" stroke-miterlimit="10"/>
<path d="M999.41 170.5H1062.16" stroke="#E84420" stroke-width="2.5394" stroke-miterlimit="10"/>
<path d="M1008.31 161.6H1071.06" stroke="#E84420" stroke-width="2.5914" stroke-miterlimit="10"/>
<path d="M1017.21 152.7H1079.96" stroke="#E84420" stroke-width="2.6434" stroke-miterlimit="10"/>
<path d="M1026.11 143.8H1088.86" stroke="#E84420" stroke-width="2.6954" stroke-miterlimit="10"/>
<path d="M1035.01 134.9H1097.76" stroke="#E84420" stroke-width="2.7474" stroke-miterlimit="10"/>
<path d="M1043.91 126H1106.66" stroke="#E84420" stroke-width="2.7994" stroke-miterlimit="10"/>
</g>
<g opacity="0.5">
<path d="M1423.66 16.0002L1360.91 16.0002" stroke="#E84420" stroke-width="0.1477" stroke-miterlimit="10"/>
<path d="M1414.76 24.9001L1352.01 24.9002" stroke="#E84420" stroke-width="0.1997" stroke-miterlimit="10"/>
<path d="M1405.86 33.8003L1343.11 33.8003" stroke="#E84420" stroke-width="0.2517" stroke-miterlimit="10"/>
<path d="M1396.96 42.7002L1334.21 42.7002" stroke="#E84420" stroke-width="0.3037" stroke-miterlimit="10"/>
<path d="M1388.06 51.6001L1325.31 51.6001" stroke="#E84420" stroke-width="0.3557" stroke-miterlimit="10"/>
<path d="M1379.16 60.5002L1316.41 60.5002" stroke="#E84420" stroke-width="0.4077" stroke-miterlimit="10"/>
<path d="M1370.26 69.4001L1307.51 69.4002" stroke="#E84420" stroke-width="0.4597" stroke-miterlimit="10"/>
<path d="M1361.36 78.3003L1298.61 78.3003" stroke="#E84420" stroke-width="0.5117" stroke-miterlimit="10"/>
<path d="M1352.46 87.2002L1289.71 87.2002" stroke="#E84420" stroke-width="0.5637" stroke-miterlimit="10"/>
<path d="M1343.56 96.1001L1280.81 96.1001" stroke="#E84420" stroke-width="0.6157" stroke-miterlimit="10"/>
<path d="M1334.66 105L1271.91 105" stroke="#E84420" stroke-width="0.6677" stroke-miterlimit="10"/>
<path d="M1325.76 113.9L1263.01 113.9" stroke="#E84420" stroke-width="0.7197" stroke-miterlimit="10"/>
<path d="M1316.86 122.8L1254.11 122.8" stroke="#E84420" stroke-width="0.7717" stroke-miterlimit="10"/>
<path d="M1307.96 131.7L1245.21 131.7" stroke="#E84420" stroke-width="0.8237" stroke-miterlimit="10"/>
<path d="M1299.06 140.6L1236.31 140.6" stroke="#E84420" stroke-width="0.8756" stroke-miterlimit="10"/>
<path d="M1290.16 149.5L1227.41 149.5" stroke="#E84420" stroke-width="0.9276" stroke-miterlimit="10"/>
<path d="M1281.26 158.4L1218.51 158.4" stroke="#E84420" stroke-width="0.9796" stroke-miterlimit="10"/>
<path d="M1272.36 167.3L1209.61 167.3" stroke="#E84420" stroke-width="1.0316" stroke-miterlimit="10"/>
<path d="M1263.46 176.2L1200.71 176.2" stroke="#E84420" stroke-width="1.0836" stroke-miterlimit="10"/>
<path d="M1254.56 185.1L1191.81 185.1" stroke="#E84420" stroke-width="1.1356" stroke-miterlimit="10"/>
<path d="M1245.66 194L1182.91 194" stroke="#E84420" stroke-width="1.1876" stroke-miterlimit="10"/>
<path d="M1236.76 202.9L1174.01 202.9" stroke="#E84420" stroke-width="1.2396" stroke-miterlimit="10"/>
<path d="M1227.85 211.8L1165.11 211.8" stroke="#E84420" stroke-width="1.2916" stroke-miterlimit="10"/>
<path d="M1218.95 220.7L1156.21 220.7" stroke="#E84420" stroke-width="1.3436" stroke-miterlimit="10"/>
<path d="M1210.05 229.6L1147.31 229.6" stroke="#E84420" stroke-width="1.3956" stroke-miterlimit="10"/>
<path d="M1201.15 238.5L1138.41 238.5" stroke="#E84420" stroke-width="1.4476" stroke-miterlimit="10"/>
<path d="M1192.25 247.4L1129.51 247.4" stroke="#E84420" stroke-width="1.4995" stroke-miterlimit="10"/>
<path d="M1183.35 256.3L1120.61 256.3" stroke="#E84420" stroke-width="1.5516" stroke-miterlimit="10"/>
<path d="M1174.45 265.2L1111.71 265.2" stroke="#E84420" stroke-width="1.6035" stroke-miterlimit="10"/>
<path d="M1165.55 274.1L1102.81 274.1" stroke="#E84420" stroke-width="1.6555" stroke-miterlimit="10"/>
<path d="M1156.65 283L1093.91 283" stroke="#E84420" stroke-width="1.7075" stroke-miterlimit="10"/>
<path d="M1147.75 291.9L1085.01 291.9" stroke="#E84420" stroke-width="1.7595" stroke-miterlimit="10"/>
<path d="M1138.85 300.8L1076.11 300.8" stroke="#E84420" stroke-width="1.8115" stroke-miterlimit="10"/>
<path d="M1129.95 309.7L1067.21 309.7" stroke="#E84420" stroke-width="1.8635" stroke-miterlimit="10"/>
<path d="M1121.05 318.6L1058.31 318.6" stroke="#E84420" stroke-width="1.9155" stroke-miterlimit="10"/>
<path d="M1112.15 327.5L1049.41 327.5" stroke="#E84420" stroke-width="1.9675" stroke-miterlimit="10"/>
<path d="M1103.25 336.41L1040.51 336.41" stroke="#E84420" stroke-width="2.0195" stroke-miterlimit="10"/>
<path d="M1094.35 345.31L1031.61 345.31" stroke="#E84420" stroke-width="2.0715" stroke-miterlimit="10"/>
<path d="M1085.45 354.21L1022.71 354.21" stroke="#E84420" stroke-width="2.1235" stroke-miterlimit="10"/>
<path d="M1076.55 363.11L1013.81 363.11" stroke="#E84420" stroke-width="2.1755" stroke-miterlimit="10"/>
<path d="M1067.65 372.01L1004.91 372.01" stroke="#E84420" stroke-width="2.2274" stroke-miterlimit="10"/>
<path d="M1058.75 380.91L996.01 380.91" stroke="#E84420" stroke-width="2.2794" stroke-miterlimit="10"/>
<path d="M1049.85 389.81L987.101 389.81" stroke="#E84420" stroke-width="2.3314" stroke-miterlimit="10"/>
<path d="M1040.95 398.71L978.2 398.71" stroke="#E84420" stroke-width="2.3834" stroke-miterlimit="10"/>
<path d="M1032.05 407.61L969.3 407.61" stroke="#E84420" stroke-width="2.4354" stroke-miterlimit="10"/>
<path d="M1023.15 416.51L960.4 416.51" stroke="#E84420" stroke-width="2.4874" stroke-miterlimit="10"/>
<path d="M1014.25 425.41L951.5 425.41" stroke="#E84420" stroke-width="2.5394" stroke-miterlimit="10"/>
<path d="M1005.35 434.31L942.601 434.31" stroke="#E84420" stroke-width="2.5914" stroke-miterlimit="10"/>
<path d="M996.45 443.21L933.7 443.21" stroke="#E84420" stroke-width="2.6434" stroke-miterlimit="10"/>
<path d="M987.55 452.11L924.8 452.11" stroke="#E84420" stroke-width="2.6954" stroke-miterlimit="10"/>
<path d="M978.65 461.01L915.9 461.01" stroke="#E84420" stroke-width="2.7474" stroke-miterlimit="10"/>
<path d="M969.75 469.91L907 469.91" stroke="#E84420" stroke-width="2.7994" stroke-miterlimit="10"/>
</g>
</svg>
