<svg width="30" height="30" viewBox="0 0 30 30" fill="none" xmlns="http://www.w3.org/2000/svg">
<path d="M14.9995 0C6.72859 0 0 6.72896 0 14.9998C0 23.271 6.72859 30 14.9995 30C23.2703 30 29.9993 23.271 29.9993 14.9998C29.9993 6.72896 23.27 0 14.9995 0ZM14.9995 27.8314C7.9246 27.8314 2.16829 22.075 2.16829 14.9998C2.16829 7.9246 7.92424 2.16865 14.9995 2.16865C22.0747 2.16865 27.8306 7.9246 27.8306 14.9998C27.8306 22.075 22.0747 27.8314 14.9995 27.8314Z" fill="white"/>
<path d="M19.3386 16.3806C19.3328 16.3806 19.3277 16.3806 19.3219 16.3806L16.0827 16.429V7.95176C16.0827 7.35285 15.5973 6.86743 14.9984 6.86743C14.3995 6.86743 13.9141 7.35285 13.9141 7.95176V17.53C13.9141 17.5321 13.9148 17.5343 13.9148 17.5365C13.9148 17.5401 13.9141 17.5433 13.9141 17.5462C13.9148 17.5903 13.9231 17.6319 13.9289 17.6742C13.9325 17.7006 13.9329 17.7277 13.9379 17.7537C13.9477 17.8003 13.9639 17.8437 13.9795 17.8874C13.9874 17.9102 13.9925 17.934 14.0019 17.9557C14.0207 18.0002 14.046 18.0407 14.0702 18.0822C14.0814 18.1007 14.0897 18.1209 14.1017 18.139C14.1291 18.1791 14.162 18.2149 14.1945 18.2514C14.2083 18.2666 14.2195 18.2839 14.2339 18.2987C14.269 18.3334 14.3084 18.3627 14.3478 18.3927C14.3637 18.4046 14.3778 18.4191 14.3941 18.4303C14.4367 18.4592 14.4833 18.482 14.53 18.5044C14.5462 18.512 14.5607 18.5228 14.5773 18.5297C14.6315 18.5525 14.6894 18.5684 14.7479 18.5825C14.7588 18.585 14.7689 18.5901 14.7801 18.5922C14.8502 18.6063 14.9228 18.6143 14.9973 18.6143C15.0027 18.6143 15.0085 18.6143 15.0139 18.6143L19.3541 18.5492C19.9527 18.5402 20.4309 18.0472 20.4222 17.4486C20.4139 16.8555 19.9299 16.3806 19.3386 16.3806Z" fill="white"/>
</svg>
